/* XPM */
static char *cdd8c05cf03c43ebbe532ad8929237b9jevtg4SN3WDGvKFW[] = {
/* columns rows colors chars-per-pixel */
"64 64 161 2 ",
"   c #6D4B3C",
".  c #7F503D",
"X  c #6C4F42",
"o  c #625643",
"O  c #6E5042",
"+  c #725446",
"@  c #7C5445",
"#  c #7A5847",
"$  c #745649",
"%  c #7E5649",
"&  c #76594C",
"*  c #7B5C4D",
"=  c #7C5F50",
"-  c #75604F",
";  c #7E604F",
":  c #6D6254",
">  c #6F6558",
",  c #746355",
"<  c #7E6152",
"1  c #756853",
"2  c #756658",
"3  c #7B6658",
"4  c #766A5C",
"5  c #7C6B5D",
"6  c #7B705D",
"7  c #776F61",
"8  c #7B6E61",
"9  c #767065",
"0  c #7D7465",
"q  c #7F7768",
"w  c #7F786A",
"e  c #835645",
"r  c #825846",
"t  c #81574A",
"y  c #845C4C",
"u  c #895E4D",
"i  c #845F50",
"p  c #895F50",
"a  c #82604F",
"s  c #8A614F",
"d  c #836453",
"f  c #8C6352",
"g  c #866856",
"h  c #8C6956",
"j  c #856758",
"k  c #85695A",
"l  c #8A6B5B",
"z  c #916655",
"x  c #926A56",
"c  c #986C57",
"v  c #906758",
"b  c #946958",
"n  c #956A58",
"m  c #946A59",
"M  c #946B59",
"N  c #946A5A",
"B  c #946B5A",
"V  c #956B5A",
"C  c #966C5B",
"Z  c #966D5B",
"A  c #926B5C",
"S  c #976D5C",
"D  c #976E5C",
"F  c #946B59",
"G  c #986F5A",
"H  c #986E5C",
"J  c #986E5D",
"K  c #986F5D",
"L  c #986F59",
"P  c #84705F",
"I  c #8D705F",
"U  c #95715C",
"Y  c #98705F",
"T  c #9A705E",
"R  c #9B725E",
"E  c #9A725B",
"W  c #816F61",
"Q  c #916F60",
"!  c #807366",
"~  c #807666",
"^  c #807767",
"/  c #837464",
"(  c #8B7464",
")  c #817967",
"_  c #827668",
"`  c #8A7768",
"'  c #807869",
"]  c #827969",
"[  c #81796B",
"{  c #807A6D",
"}  c #847B6D",
"|  c #857D6D",
" . c #877D6D",
".. c #857D6E",
"X. c #877E6F",
"o. c #847B6C",
"O. c #88786B",
"+. c #8A7A6C",
"@. c #887E6D",
"#. c #8A7D6F",
"$. c #887F6F",
"%. c #8A7C6D",
"&. c #927362",
"*. c #947966",
"=. c #9B7A66",
"-. c #947768",
";. c #907D6C",
":. c #877F70",
">. c #867F70",
",. c #877F70",
"<. c #887F71",
"1. c #897F70",
"2. c #927F71",
"3. c #A47861",
"4. c #9A816B",
"5. c #878071",
"6. c #878072",
"7. c #898171",
"8. c #8B8271",
"9. c #898173",
"0. c #8B8072",
"q. c #8A8272",
"w. c #8B8273",
"e. c #8C8070",
"r. c #8C8172",
"t. c #898274",
"y. c #898275",
"u. c #8C8475",
"i. c #8E8575",
"p. c #8C8576",
"a. c #8D8677",
"s. c #8B8374",
"d. c #8D8678",
"f. c #8F8778",
"g. c #8E8678",
"h. c #8F8879",
"j. c #938274",
"k. c #928474",
"l. c #908777",
"z. c #928474",
"x. c #908877",
"c. c #918678",
"v. c #908778",
"b. c #908879",
"n. c #90897A",
"m. c #918A7B",
"M. c #958979",
"N. c #948B7B",
"B. c #918A7C",
"V. c #958B7C",
"C. c #958B7D",
"Z. c #978F7F",
"A. c #928A7B",
"S. c #988978",
"D. c #9B8D7E",
"F. c #9A907C",
"G. c #9B907B",
"H. c #968F80",
"J. c #9F8C80",
"K. c #9B9283",
"L. c #A29883",
/* pixels */
"m.f.m.N.V.N.N.Z.O.J.r.} V.#.0 ' c.9.#.+.r.j.....D.j.A f f p v h 9.a...q ..q ~ 0 ~ ' ~ ..#.#.! 0 #.#.9.#...r.9.' 0 7 l.9.<...6.9.",
"<.a.Y M C D 3.J C Y h m m f f f f h f h v v f f c M v h h f f f f f.>.d d * & & $ & * * * * # # & * * $ * * = = & * i d * * & < ",
"k f.m M M m Y D C Y h h h f y y f h h h v v f f v f v m h y i f y m.a.d d = # * * * * y d = & & $ $ * & = * d = * & & $ < * = = ",
"l B.m C M C J D J M v h f i f f y f f m m v f f f v f m f p i i f 6...= * = $ & $ # * y d = * $ $ $ $ & * % d d = * $ & = * = < ",
"d y.h m m G h m M v h y y f f f i f h m f v v f h h p h f h h f f ' >.= = * & * $ * * i i * * * $ $ + & d % f d * $ + * * d < d ",
"j a.h v h v m m v h f p f f % f f h h v h n h f f f f p f i f f h } 9.d d = = O X * * * i $ $ & $ $ $ * d % j d * $ $ $ * * d < ",
"< y.f h h m h h m m h h f f y f f f h m v s p i y i f i f i f f h y.a.l = & * $ + $ * * * & # * $ & * * f y d d * * $ * $ = < d ",
"d y.h h h h m f m M h h h f f h f h h m u y f y f f f f h i f i f 9 ..< * & & + & * & * $ $ * * $ & i * d j * * * * * + + * d d ",
"l 6.h h F m m f h m f h v y y f h m h f y y y y y y f f &.l -.Q h y.} O $ & $ * $ $ & $ $ * $ $ + = i % % d * d * & $ * * # j j ",
"i...l m F v F h f h h v y y y f &.y.y.' ~ o.9.0 ' ' ' } ..w } ..9.0 ..' & & o.0 ' d & * $ & & $ X & ( ( ;.#.a.#.<.` ! k * * j g ",
"9.h.>.u.m.u.a.6.9.) 6.9.0 ) 6 ..9.a.a...} ..} 6...<...} } q a.y.9...' ....9.' 0 } ' 0 0 0 ' 0 0 4 ' r.#.' w 5.....q ..0 ' ..9.9.",
"v v v U E U F v f s v f u r s F v y.9.u.~ & 4 & d < < < j = d k d j < < * = & $ * & & & $ + & $ + 0 #.I s s F 5 0 4 4 0 : l F v ",
"v h h F U U C C v v x v s s F E F 0 u.9.d j * < d d < j d < d j d j = < = * d * & * & = $ & & & & ~ ..s r s f f h v s s f f v F ",
"v v h F F U F F v v x F v E U x x / 9.9.d g k < g * = d d < d j * j * < * * * * * * * * & & & & * ' ..f s y f h v v f v h F F F ",
"C F C F F F F x x x x v F F F h C / 9.#.d j d * g < * j d d < l j d d = * < < < * * & * + $ $ $ * 0 ..f y f f f v v s f x v E F ",
"E E F C U U E F F C v x F v U s s ! y.#.d k d + g * < < < d = j j d < * * d = = * < * < & $ + * * q 0 f z f f x F f f v x F E E ",
"F E c C E C C F F v v E G G R x x _ >./ d < d & h d * * d < * < d d < * < < * d * = * < & $ + * * ' 6.h f f s f v h s x v F G E ",
"E E z U C C x v U F E C c G E G E ~ 6.j < j l g g d * < d < < * d * < * < < d = & = & & $ + & * ; o.9.s f f f x f f f v G G C E ",
"F U F F F C F v v F G x F G E n E #.H.P j d j d d < d j j * = * d d * < < d d < + * & & + & * * * ..0 s h f v s f x x x G F G C ",
"=.4.h F h s v C C F F G n G E E E f.C./ U l j < d = d g j d j * < d * d < d = * + d < < & & * * * ..q g f v f s s s v F F G =.=.",
"x.....9.~ o...l.r.#.i.i.r./ l.m.r.h.Z.u.l.9.#.l.` ( / ` ( W ( ` ( / / ` ` O.o./ 5 k / O.0 r.} 5 ' o.>.9...o.0 0 ) ' 9.x.a.a.m.f.",
"..9...8 / / / ` ` ` ` O.` ` %.( 2.K.<.2.` ` / / o.9.6.a.5 5 9./ 0 W o.~ ~ k P & 0 5 5 0 ' q 0 ..' ....' ....i.' 5.i.Z.a.f.a.9.f.",
"k d < < d j j k g j d l l k l l l l l k d k l g j j a.k g d d * d d j d d d f f y d y % ; * * * f a * & d y d a * a.K.A._ j k l ",
"k d < d d d k k d d g l l k l k k k l k k l l k l j #.k d d ; * * d d ; d g g g f a a * # a * a f g * y d * g f d g m.m.j k k l ",
"l d < < d d d j d d j l l l j j j k l l l k j j U l ( ` j d d d ; d d d d f f f d j d d * y * a d d # & * a d g a j a.m.k l k l ",
"l d d d d d d d d d k l l l l d k < U k l j j j l g j #.f j d d d d g g g f g g f f f a d * y a d d a * a * d g d g ) ..d j k k ",
"l k k d j d d < d < l l l l d d k k U k k j k j l # k 9.g g d j g g j d j d g g a g g f d a # d * a d * a g a g a g ....< j d k ",
"l k j d d < < < < < k j j d d j j d l d k j d d j k k ..a g j j g g g g g g a g a g f d d d * a * a f * g d a j a a 6.' l d d d ",
"l k k d j < < < d < < k d d d k j k l d d d d j j k k ..a a d g j g j g h g g g d f g d g a a ; d d g ; a d a g d d } a.< d d k ",
"l j d j < < d < * < d k j j j d j j j U d d d l j * & a.g ; a g g d j f g g g g g g g g f g d * g a a & a a a a a g y.y.( k j l ",
"k k j d < = = < d d d ( l ( ` j j j j d d d d k l < } ..` a a d g d d j a ; d g f j l f f g f d a ; a d d d * g d d >...#.l k k ",
"a.a.m.B.q q w } ..9.a.9.9.9.m.a.f.a.9.>.q 9.9.a.m...) 9.<.' q 9.a.>.} a.h.Z.9.a...a.9.5.9.) ! #.O.` ` l.k.` #./ / ..9.>.a.Z.m.i.",
"B.a.m.h.} } q } / 0 _ a.m.a.m.D.Z.m.x.r.5.9.m.m.l.9.x.o.%...9.9.u.y.q y.9.9.9.a.y.....a.9.a.....' / d v l &.l d d < ! 6.N.V.K.V.",
"&.I F m f y p f p v n b b b r...a.v v f v f m C n f u f f y y f f f * d f % y y u u f f f f u ..~ p p f v f v f v f f f f b C v ",
"G J m v v p f f h v n n b z A a.l.z v z v u v v z f f y y r y f f f y y f y f f s f u f s f u ~ #.p v v h f f f p f f f f v n M ",
"M v M h u y f f v v n s z z D c.a.f z v v z n n z f f y y y y s f f v f f s f f s s s f s s u / ..f f f f @ f f f M f u p u M b ",
"n m v h f p f v M M v u f f z 9.r.z v v n n n s u f r y y u u f f f y f f s u y f f y f f u u *.} f f f f p v u p f v f f M v b ",
"f v v v f f v M M v f f f f u q 9.z n z n f f s y u y y y y u f f y f y f f y f u f u s s y u k _ f z f p f u p u u f f p y p b ",
"h m M M v f b v v b f f f f u 0 ..s z s u y s y y y u y y y y s v s y y s f f s f f y y y y u ( ( v M v f f f f f p f h v p f p ",
"v v M b v f f f f f f f f p / ' #.z s u e y y @ y y p y y y y u f f f y f f f z s s u y s h s O...v f v h h f p u p f f v v v f ",
"h v f v v f f f f f f u f v O.c.0 u y @ @ @ @ @ y y s y y y u y y y f s u f u f s s s y y y u ..} v u f v f f f f u f f v f u f ",
"f m m v f p y ( O.m...#.r.r...y.o.h U l @ # y 0 ~ ' #.y f u y y h f u y y y s u v s e h y l ' <.' ( ( v f f f f p p f f f f f f ",
"9.y.y.a.f.' 0 ' } a.a.i.9.9.9.....r.a.w 0 ) 0 0 } >...0 0 0 ..0 0 0 0 } ' } 0 7 ' ' 0 0 0 0 0 0 } } 0 } ..' ' } 0 >.......' >.0 ",
"f v h g y f * / +.D.D.D.! ~ ~ #.! ! ` l 0 4 4 : 2 8 ' 4 2 0 <.> y y y y f y p y y y y y y y @ f p y f y p u y i y * @ y f y 0 } ",
"f v h v h h s s f C M v v v z f s f f f f s y y y y y @ y y 0 k y y y u y y y y y y y y % # y y y y p f p y y f y y % y p y < } ",
"g h m m v v f f v C n v v v f f y y y f f f f y y y s y y s ~ k y y y y y t y y y y i y @ + % y y y f M h f p f y y % y y @ 8 >.",
"l v m C n v f h v C n v v v f y y y s f h s y % y y y f f f ~ k y y y y y t @ % % y y y t y y y y u u f h f y p y y y y y # 0 ' ",
"f v C m v v v z v n n v s f f s y y f s f f y @ y s f y y y ! ( y y y y % t t y y i y y y % y y y p y v h f f h y y y % %   2 } ",
"h m C C n v n f v C C f f s s y f y y y f f % r y f v y y y l k y y y y y y y % y y p y y @ y y f u e u h f f p y y y % % % 3 ..",
"v C C C f f f f h v M v f f y y y y y y f f r r r s f y s y ! k f s y y t p i y i y f p y y y y y y e f f f f y y % % y % y W >.",
"v M C v h f f f s v v h f s f y + y f f f f y y y y f f f f o.( f f y y y y y y y @ f y y t @ t t t y p p f y y y % % y f p / #.",
"v C m v h y f f f v v h s f f s y y f f f m y s u s f y f l 9.%.f f y f y y p % y @ y y y @ % y y y e f y y @ y y y y y f y / ` ",
"( h l l &.< W / W 5 #.<.....w 0 0 ' ' } 9.5.5.O.#.o.~ 8 5 o...o.#.#.~ } ~ / / ~ ' 0 ..' 0 0 0 0 6 0 #.' ..' 0 0 #.5 k d i k / ..",
"<./ 9...} f.' ..0 9.' 9.9.y.9.' <.' ....9.a.r.5 3 W 5 ! 5 5 +.+.` ! 5 3 k 5 3 3 7 0 o , / 4 0 ../ ' ' 0 >.0 ' q 9.' 0 o._ ~ 1 ~ ",
"s s f s f < 5 ' , ; y s s v g 6 ' ' & & d = * & * * = < & < < < = * * & & = = = = * < * & & $ 0 ....% y f j y < + y u y u s u s ",
"f v f f f f f f f f y s v M v / ....= & = * = & * * = < * < < < = * = & & * < = * = ; & * + $ + 0 u s f f f s y y y u s y u . f ",
"f v f f f f s f h f y f v v f k ' } = = = * $ & * & = < < < < & & * * & & & & = & * < & < & $ O 0 y f s f z f s u u u u y f f f ",
"f x f f m f f f f f u h z h s f 9.} = = < * = * d * = = < = < & * * * & + $ & & $ & = & * & & $ 0 y u f f u h s s s u y y y f f ",
"f v m C s f h s f s y f v v v z ' k < < < < < * h & < d d < < = & * & & + O & & $ & * & & & $ $ 6 y u s z s y s f f u y y y s u ",
"v z v v v h f f h h s h v h v v o.< < $ < d = = E = < < d k d d = & & $ & & $ $ & & * & $ & & $ 5 e u u z f f f f u f f s y s s ",
"C n v v v v f v h h f v v v v v o.d d d < * = g E g d < d k j d d & & & & $ $ & & & = * = & & & ) u z s f f f f s u u s s f y f ",
"v G C G m C v C Y M f v h v v U 6.< < < < < * < E d d < < j k j d = & & & * $ & & & * < = & & * ..s z f f f f f y u u u u f f f ",
"C =.G Y E E R =.j.j.;.k.k.( ;.9.6.+.3 o.#.9.;.` 4.` d < d d d d d & & $ *   $ < 5 & * = = = & , 0 / ( s f z C -.&.g s s y s s f ",
"m.C.Z.K.C.L.D.A.m.Z.m.Z.m.B.6.a.>.....a.a.a.a.D.G.9.....} ..a.a.9.....0 ' 0 ' ' ~ 0 0 ..} ..o.0 ' ~ ..o.#.5.' 9.} ' ..5.' ' ' .."
};
