/* XPM */
static char *c5a6787cafa942129e3f7269eb29f0b3dY59UI2RNucIxYDk[] = {
/* columns rows colors chars-per-pixel */
"64 64 172 2 ",
"   c #1F160F",
".  c #1B1714",
"X  c #1E1915",
"o  c #1E1B19",
"O  c #23170E",
"+  c #24190F",
"@  c #221B16",
"#  c #2A1E14",
"$  c #221D1A",
"%  c #2E2216",
"&  c #25211D",
"*  c #2B241E",
"=  c #332315",
"-  c #32261C",
";  c #34291F",
":  c #3C2B1C",
">  c #262321",
",  c #2B2622",
"<  c #2D2925",
"1  c #2E2B29",
"2  c #322B25",
"3  c #3A2E24",
"4  c #332E2A",
"5  c #392F29",
"6  c #3D3125",
"7  c #36312C",
"8  c #3A332D",
"9  c #373432",
"0  c #3B3531",
"q  c #3D3935",
"w  c #3F3B39",
"e  c #48301D",
"r  c #423326",
"t  c #493726",
"y  c #43362B",
"u  c #493729",
"i  c #46392E",
"p  c #4C3A2C",
"a  c #523B27",
"s  c #533E2C",
"d  c #583E29",
"f  c #403730",
"g  c #443B34",
"h  c #4B3E34",
"j  c #443E39",
"k  c #493F38",
"l  c #523F31",
"z  c #57412E",
"x  c #5B432E",
"c  c #4D4036",
"v  c #46403C",
"b  c #4B433C",
"n  c #534235",
"m  c #5A4534",
"M  c #5C4837",
"N  c #52463C",
"B  c #55493E",
"V  c #5B4B3D",
"C  c #6A4A2F",
"Z  c #654A33",
"A  c #624E3D",
"S  c #684F38",
"D  c #6D543E",
"F  c #4D4641",
"G  c #4F4944",
"H  c #504740",
"J  c #534B44",
"K  c #5A4E44",
"L  c #554E49",
"P  c #584F48",
"I  c #5D5046",
"U  c #57504B",
"Y  c #5B534C",
"T  c #5D5651",
"R  c #5E5954",
"E  c #5F5B59",
"W  c #614F41",
"Q  c #635244",
"!  c #6A5644",
"~  c #62564C",
"^  c #65594E",
"/  c #6A5A4C",
"(  c #735C47",
")  c #725E4D",
"_  c #605750",
"`  c #625B55",
"'  c #6A5E54",
"]  c #645E59",
"[  c #695F59",
"{  c #76614F",
"}  c #6C6056",
"|  c #66615C",
" . c #6A625C",
".. c #736355",
"X. c #7E6855",
"o. c #72665B",
"O. c #73685F",
"+. c #796A5D",
"@. c #676360",
"#. c #6B6661",
"$. c #6E6964",
"%. c #6F6B68",
"&. c #706760",
"*. c #716963",
"=. c #706A65",
"-. c #736A64",
";. c #726A65",
":. c #716B66",
">. c #706A67",
",. c #706B67",
"<. c #736C66",
"1. c #726A64",
"2. c #786C62",
"3. c #7C6C60",
"4. c #7A6D62",
"5. c #716C69",
"6. c #726C68",
"7. c #736D69",
"8. c #726D6A",
"9. c #716E6B",
"0. c #726E6B",
"q. c #746D68",
"w. c #746D69",
"e. c #756F6B",
"r. c #726D69",
"t. c #7D7066",
"y. c #77706B",
"u. c #77716C",
"i. c #77726D",
"p. c #76726F",
"a. c #76716D",
"s. c #79736F",
"d. c #7E756E",
"f. c #7A736D",
"g. c #737170",
"h. c #777371",
"j. c #767371",
"k. c #797370",
"l. c #787471",
"z. c #7A7571",
"x. c #797573",
"c. c #7C7571",
"v. c #7B7775",
"b. c #7A7571",
"n. c #7B7977",
"m. c #7D7874",
"M. c #7C7976",
"N. c #7E7975",
"B. c #7F7B79",
"V. c #7D7B79",
"C. c #816A56",
"Z. c #817163",
"A. c #84776C",
"S. c #82766C",
"D. c #807A75",
"F. c #817B77",
"G. c #817A75",
"H. c #827D79",
"J. c #817D7B",
"K. c #847E7A",
"L. c #84817F",
"P. c #87827E",
"I. c #87817D",
"U. c #8A817B",
"Y. c #8B837D",
"T. c #878583",
"R. c #888380",
"E. c #8A8581",
"W. c #8D8884",
"Q. c #8D8883",
"!. c #908984",
"~. c #958F8B",
/* pixels */
"4 , > $ $ X $ $ o > > , 1 > > , > & & > > > * & & , 1 * 2 > , 1 > 1 > & @ X $ & & , , 6 : 3 = : 2 : ; 2 2 4 2 2 4 4 4 2 2 2 4 4 ",
"x.Y j > , , > $ & , 9 q w q q q q 0 q 8 0 8 q 8 5 r 8 5 5 8 8 5 5 2 > > > 4 $ > v |  .^ P ! / I ] R / ] #.R 5.x.e.5. .@.] ] | #.",
"R.P.m.F > > > > j #.n.m.l.B.$.$.g.h.F L H P Y v b c b b v T Y P h n f 2 * $ > v o.4. .] | ] ` ' ] _ X.o.] ;.G.P.J.h. .c.u.*.5.v.",
" .;.W.y.2 > & w @.B.T.U.m.#.u.u. .R T U U P Y H ~ Y K v H Y Y B m N ] b , * 1 ] k.e.<.]  .]  .~  ./ ' ' f.d.A.' 3...o.|  .] #.] ",
"$.#.m.e.q 1 > b 5.m.x.e.J.B.5.$.#.` j U b U F j P b P j b j ] N P H ;.` g 1 q R e.x.#.b ] Y L U J / ( P Y Q ~ 5.! / $. .`  .] ;.",
"` | <.| 0 4 1 U L $.5.| 5.J Y R T F v U G F H v c f g f g b g I v H P.<.G 4 q ] ;.*.T ] T Y ` Y T I ` ` T T _ | { ] ]  . .] ] ` ",
"#._  . .g 1 1 T $.x.#.Y e.| ` U P R G b F H N v v c f g f h v k g H c.<.v 4 w R #.u.J o.o.| $.` ` T T Y Y U T ] ' [ o.] #.;.| | ",
";.;.x.$.q > 1 ` 5.x.Y | J ` 5.#.J b Y G v b v F v h f c b j g b v f ` ;.F 4 q ] u.s.$.| ` ] #._ T '  .T Y P T Y I _ Y ' ] ` ;. .",
"$.u.d. .q 1 1 T $.;.` P H T | T ` Y H P G b k J J b 8 8 G F k F J H L Y v 7 0 T x.5.] ] ` T ] P | T R R | U ] #.] #.' Y R $.] | ",
"#.<.;.#.8 > > @.$.] L P L H P R U j L J U F J j b b q b H b F b N b b ] b 4 q T J.;.$.5.| ] #.L ` E |  .] T | `  .| R $.#.T R  .",
"$.#.c. .0 , > G | #.j b J v J J H b b J J F v b F b J P k F b Y L P ` | k 4 v #.$.a.] Y ]  .#.] T | | ] ] ;.] T #.#.] | #.$. .#.",
"5.F.s.| 5 > > j F T Y J k F b H k b F g v b b c G b J G b b F J Y P Y L k 2 0 #.f.h.] ,.] ] #.Y P H ]  .5.$.] o.| $.;.#.| ] | ] ",
"] | e.` 8 , > L F Y H v U v F b J J g j 8 g G b b J J b J Y Y H L Y I Y G 4 q | #.#.x.$.Y ] | I  .] *.#.` ` Y  .^  .#. .]  .| ] ",
"o.` *._ 8 > , b b v v j f b J L F P v k H v J L H H ] T P L v H G J Y J k 1 q ] x.G.$.$.] _ ~ Y | ] #.#.$.;.#.$.#.$.$.#.@.] #. .",
"H T ] Y 7 < , b b k g H k F P Y F J b b L Y Y P ` J T Y H J P v H _ ] | 8 4 q | e.f.$. .` _ Y o.P |  .$.Y ] ] $.|  .#.| Y J Y H ",
"_ | T Y 7 < * L j F b b k P L P L j k U b J T T Y Y Y Y T Y F v F b _ b q 4 0 #.] 5.;.e.o. .T  .] #.] ` | T | G J T #.` P Y P Y ",
"U | T Y 5 > * g k k v g J b J P J G T H Y H Y Y / P |  .T T Y T N g G _ q 7 0 T #.;.;.;._ #. .Y Y | U `  .T R `  . .Y ] U _ Y Y ",
"v T ` U 5 2 * 8 f J g N g P P F L b L F H Y I _ H P @.] Y T Y Y P L Y F f 4 0 ] | u.u.u.' #._ ] R ] ]  .` |  .$.$.#.] ` Y T Y J ",
"` P ] T 5 * * b B r h l Q Y P Y T Y b T | ` h ^ h.U Y $.] L P b P Y Y J g 4 7 R #.| ] $._ ;.#.Y | #.$.` ` #.R ] R #.|  .` T F L ",
"F P L v 7 4 * 8 f b h r L b K Y ` ` ` #. .;.5.<.| Y | ] | Y N L L h T T g < 7 R T ;.Y ] ] ] $.#.Y Y  .E J T T R Y P Y R R J T Y ",
"J ]  .Y 5 * 3 v L B V M H V T I | ]  .} _ |  .$.a.5. .#.T T L Y H H L Y g 4 8 P ] @.Y *.#.5.] ` _ #.R T ] P P | Y T ] T T U T Y ",
"Y R T ] 8 , * Y _ v h b I T k S ' / Q Y _  .*.%.J.| ' ' R ` I Y Y T Y U f 8 5 T P f. .Y | ] T ` ] ] ] Y ` ` L ] L U P Y Y Y ~ ] ",
"T ] #.#.7 4 * F #.L Y Y Y Y _ ~  .4.~ <.` 4.Y m.#.B.;.J T T V | Y Y T L j * 8 T ] #.J ` | Y Y Y $.Y T ] R Y Y T b P R ` N Y Y T ",
"P Y #. .8 1 > J R i J H U Y Y I ] ` K ^ I u.*.4.S.m.u.#.| ] Y P R Y ` P g 5 7 G ` J _ P H Y R [ | ] Y ] Y T F H G T ` _ T Y Y U ",
"Y ] <.` 8 2 > H h Y J ] Y #.I ^ _ ] ] f.P.f.m.K.] J.;.@.`  .Y Y R ` ] P q 5 7 b J Y ~ J Y L Y ~  .] H Y L Y U J R N P U Y R Y R ",
"] $. .#.5 1 2 H 5.U Y R ` R ` _  .` | e.5.$.G.5.;.T { ] #.R Y ' R #.#.J k 1 2 F ^ L _ Y H U L Y Y ] U B H B P F Y H T T R Y N ] ",
" .#.<.#.5 > * b R ` P Y U T Y Y L } #. .] ] $.~ $.] Y n Y ] ` U Y R R R q > 2 J J ~ _ b F L T P Y P P Y b P U P Y ' R T P P Q Y ",
"B K ` | 1 $ , F I ]  .P R ] Y |  .-.| *.5.#.#.u.m.-. .' c ~ ~ T T P Y T 7 & 5 B L I N T N K J J Y Y Y K F U P Y Y P P T K L ] P ",
"] N / H $ X $ b U #.$.] #.T  .<.o.$.m.#.G.Y #.f.K.m.~ ' / Q n ^ L ] b J 7 $ $ 8 v L L Y b Y Y | _ Y Y P J b b J b L b P ] K P J ",
"H L f * X @ X 4 F T F Y T ` b ;._ S.f.<. .e.] P P  .} Q n B n J F F j g & @ X & 8 b j v P b b ] f Y J H L j c 8 f Y c P g h H Y ",
"8 8 & @ 1 , $ o g b J v P L I P Y J #.] Y L P P b b j I P H m m h k 8 * $ $ 1 @ $ 2 q 7 8 2 8 5 8 5 8 2 5 5 6 8 8 2 5 8 f p f 8 ",
"2 < * $ $ $ & & 1 5 g q j 8 v q q 8 q 8 5 7 q 5 2 5 3 y 5 8 a 8 2 2 * , * * , * * , 1 4 * < , > * & $ @ X X @ @ & & 2 2 2 5 * 4 ",
"q g j h j g 8 0 q j j g j g k 8 r * # X X X X $ * 2 5 f k f r f 8 8 8 8 7 7 7 8 8 0 9 0 q q 0 8 7 4 > # @ * & > 2 0 q 8 f f 8 q ",
"' o.[ ' m.T ] ] ] $.]  . .| | O. .h * + O @ X > v R ] ` Y ^ L T J L H Y Y Y Y `  .] ^ P B ` T ] Y ] F * & & > q G P P H ' Y T  .",
"^ ] #.` ;.] #.;._  .#.u.| $.u.o.4.} g % * . $ h  .4.<.' I Y ] ` Y ` ] ] ] ] | $.[ u.| / ' ]  .] ^  .#.k > > g b T L H T Y T ] t.",
".._ ] Y ' ] T ` T ` $.^ 5.#.;.' ' .. .- 1 & 2 J R 4.} _ U J ] P P J Y T | ] ] ] ~ | _ P  .Y U ] ' ~ ~ Y 7 2 j T ` T b b b Y ^ ' ",
"Y L J J Y b L I V H | ] J $.k.y.K { ' 5   $ q ] T ' ~ _ Y J H _ Y Y Y J Y ` R L n T ` Y L L I ] /  ._ #.j j H ] T Y J b j N ~ ] ",
"_ Y P ] Y R Y H ' | H P  .] ;.' -./ 2.y $ & 0 g P ` F Y ` H P L P Y L H P Y ` P Y N L P B n M K n A Z  .j b J P b L G j b P b P ",
"c U T I A d I ` P ] ` #._ Y | 5.&.+.} 8 $ $ 4 R j F L _ ] L N H P T U P L P G Y b L k c P H z V g B C.#.k j Y U P L U b k F v L ",
"F H P l s B Y U ' R ]  ._ ] ] | *.Z.] 7 $ o 7 G F ~ W P Y b F H ] Y b L T R G P G F L h c s m Y H J K / j q F L Y b P 8 g v v F ",
"H L n Z h Q ~ K Y N T ] | | #.| G.N.P 5 & @ 4 J k ~ B P U h b H b Y T k J Y b P v L J H y p u c r N A P : 8 N H P J U b F F F G ",
"k b N p Q K Y  .A  .#. .#.-.f.L  .t.] 5 @ $ 7 J Y N p Y v h b P J b P F T G Y J H j F 8 g k v f c I K Q v v U Y T P T P b k v F ",
"b N n r h I ~ ^ } K |  .] y.#.;.| | | 8 > @ 2 P v h J K c H h N y h I P k b J J J G b v b q b P P _ o.} y B ` Y G T Y R F H v c ",
"I N C N M V A ' P ' | _ ` $.5.#.<.G.} 7 $ & r ' L U F F H b b c f r y v 8 H K f k F L b J P n Q Y $.4.J y b e.` Y b U b F F P P ",
"^ ' h p V ] Q Q A ..o.,.T f.$.x.5.Q.4.7 $ # 2 b T R L j k P b c c i N b c A n F U L j H J F r P Q 3.o._ g i $. .Y F G Y L Y T Y ",
"| J { n p _ | ( ' / ' ` | f.m.x.m.P.#.8 & & 8 c T N N U f K J L v c n j h B j P F F b J Y U J J I K *.' f b ] #.'  .G ` J Y P I ",
"V ! ~ N |  . .' ] f.| o.]  .s.f. .J.*.8 $ $ 8 P Y J H Y P Y Y T b j c b b j F n L H J Y T k c j b H  .Y f g ..] ..] ] Y P I Y B ",
"n Q _ Y P L _ *.o.+.*.t.u.x.G.G.K.~. .0 @ $ 7 h.| J F P b Y R Y v i N J H b p v H j c U v T P Q c $.] ] y n I Q +.| _ T P B Y A ",
"A P _ Y T ] ` ] ..5.$. .` ] $.f.E.!.e.7 $ @ 8 | ~ T H B H Y J Y k s K H F J J k k J P J b T L ] ~ | ~ ' h r I ) K  .#.Y Y R I ! ",
"n B K Y L ' } m Q #.@.5.#.#.F.<.S.c.x.8 @ # 5 Y L b T L H Q Y U J z b c Y P k H J P b k L G Y Y P ;.` I r i ] Q ! P Y Y _ K V H ",
"c A M n A / Q Q I ~ R Y $.#.u.y.o.f.;.5 O # 8 J ' | Y Y ] L _ Y Y L J P J K B j L P g F F k T T _ ` o.) h K I V Q o.T U K D Y V ",
"Y A d l ~ h n I U N T | ` #.t. .Y. .| 8 , # 8 b Y ` Y Y T ] U Y Y T b Y G n G J c F b v U L J | ' $...! 3 N K | o.Y Y H J Y P K ",
"P u d Z Q V Y L J `  .] | |  .*.s.~ <.7 $ # 0 R u.T Y ] T R I Y ` Y J F J N K P P J P P I T o.| *./ t.A p x +.T ) J P s H J c I ",
"M h n V N K H P U U ' ] ~ K  .| m.K.*.4 & # 0 T | | | T T L Y k Y T U G B G Y P H H N J ! m A | 2.V Q ) e t ..^ A A K F g c k j ",
"b b h K H N L T P Y b #.' Y ` | x.G.d.7 $ $ 0 R #.#.] R Y Y U ` P ` U L R Y H b N B h b p h I Q n ! +.' j f L T ' N P H n h v v ",
"L f Y h B v Y ~ L ` Y ` ] Y  .} *.u.] 5 @ o 0 R #.h.T T P Y H J P U G Q P I ~ P J Q H z M K N h Q Q ' ` 8 p K ] ` Y P P L j v H ",
"p N K L P H B ] ` _ ` F  . .^ A  .y. .0 $ o q ] %. . .R L b Y P Y Y J Y U H P N G J P b N b L I ..Y T ` q g J ` P Y k K v b f p ",
"B U P J N b P R Y T R #.]  .T #.#.#.;.0 o o 0 T k.e.P F H Y P T L T ` R Y L P M Y U Y I J b Q Z n ' ] J 2 y ] ] Y P i K h b n h ",
"H _ V n J P J ' ]  .] Y | ] 5.] #. .] 4 & o q  .R ] R Y J P Y Y Y R ] ] ` ` Y / R T P A V V _ P ` ] P / 6 b J L I #.J K j v V v ",
"k N B P I Q ]  . .T u.5.e. .5.` t.` P > X X 1 F b T  .` F Y Y F Y ' ` ` ] ] ` T H J H I K Y P Y _ _ L V 7 7 P o.~ d.J Y F L Q B ",
"I v b T P Y L Y Y J #.;.|  .x.] | J j & $ X $ g L L Y Y Y b P h P Y #.Y J T J ` Y P Y J ~ n ] Y ~ Q H j $ $ P G.4.P B ` P H J v ",
"L I P J b v b Y L P H Y L H Y Y L j & $ $ @ o & v g F g f 8 8 f j J H L H H j Y ] b v j f B b c L 8 f & . . * p J N b k J v f b ",
"2 2 7 2 2 2 , 5 2 2 7 2 2 2 2 , 2 $ X > 1 4 $ @ $ * 5 < < 5 , * * 2 7 2 8 5 2 7 5 2 2 , - 5 * 2 8 * $ $ $ $ . @ 2 5 8 q 2 2 , 1 ",
"* $ X X X X X X X X . . X @ $ X $ o > 1 , 4 < > & @ @ @ @ @ @ @ X X X X X X   @ @ @ & 4 $ % # * * = > & $ X * & , 4 4 , 4 > > 1 "
};
