/* XPM */
static char *_e6d9d6b219543e4edde533051892f084Z2ysAFWwVAvFr0d[] = {
/* columns rows colors chars-per-pixel */
"64 64 178 2 ",
"   c #371D05",
".  c #391E07",
"X  c #3C2209",
"o  c #3C2613",
"O  c #3F2B16",
"+  c #422706",
"@  c #4E2B07",
"#  c #44280C",
"$  c #4B2D0B",
"%  c #502D07",
"&  c #522F09",
"*  c #52310C",
"=  c #5B350A",
"-  c #432B14",
";  c #4A2F16",
":  c #442E19",
">  c #483016",
",  c #46311A",
"<  c #4B341D",
"1  c #4F381E",
"2  c #533514",
"3  c #5C3B13",
"4  c #52361C",
"5  c #543A1E",
"6  c #5A3D1E",
"7  c #603608",
"8  c #62390C",
"9  c #623C12",
"0  c #4C3621",
"q  c #4E3922",
"w  c #503721",
"e  c #543C23",
"r  c #593E22",
"t  c #533E29",
"y  c #5E401B",
"u  c #654114",
"i  c #694213",
"p  c #63431C",
"a  c #6A461B",
"s  c #6F4A1B",
"d  c #574026",
"f  c #5C4225",
"g  c #564129",
"h  c #5C442A",
"j  c #5E482E",
"k  c #5F4931",
"l  c #634525",
"z  c #684722",
"x  c #674927",
"c  c #6A4A25",
"v  c #62462A",
"b  c #644A2D",
"n  c #6B4D2C",
"m  c #734E25",
"M  c #714E2A",
"N  c #6E502E",
"B  c #7A5324",
"V  c #74522D",
"C  c #79552E",
"Z  c #644D32",
"A  c #694E31",
"S  c #675036",
"D  c #6C5234",
"F  c #665139",
"G  c #6C553A",
"H  c #6F583D",
"J  c #735533",
"K  c #795732",
"L  c #765836",
"P  c #7C5A35",
"I  c #715739",
"U  c #745A3C",
"Y  c #7B5D3B",
"T  c #7E613E",
"R  c #6F5940",
"E  c #745D41",
"W  c #795E41",
"Q  c #776045",
"!  c #7C6243",
"~  c #7D6549",
"^  c #815D36",
"/  c #815F3A",
"(  c #83623C",
")  c #89653E",
"_  c #8F6A3F",
"`  c #836543",
"'  c #896741",
"]  c #866946",
"[  c #8C6A44",
"{  c #816748",
"}  c #856A4A",
"|  c #8B6D4A",
" . c #926D45",
".. c #916F49",
"X. c #8E714E",
"o. c #957047",
"O. c #94724C",
"+. c #9A754C",
"@. c #9E794F",
"#. c #826C50",
"$. c #886F52",
"%. c #8C7252",
"&. c #937653",
"*. c #917551",
"=. c #977652",
"-. c #947754",
";. c #937552",
":. c #997751",
">. c #9A7751",
",. c #987650",
"<. c #937854",
"1. c #957855",
"2. c #977A56",
"3. c #967955",
"4. c #967955",
"5. c #987853",
"6. c #9B7A55",
"7. c #987B57",
"8. c #9B7A54",
"9. c #977B58",
"0. c #987C58",
"q. c #9B7E59",
"w. c #9B7E5A",
"e. c #9C7F5B",
"r. c #9C7F5C",
"t. c #9A7D5A",
"y. c #A17A4F",
"u. c #A17D54",
"i. c #A07F59",
"p. c #9D815D",
"a. c #9F815D",
"s. c #9E825E",
"d. c #9E815D",
"f. c #A4825A",
"g. c #A0815C",
"h. c #A2825D",
"j. c #A5855F",
"k. c #A4865F",
"l. c #A3825C",
"z. c #AA855A",
"x. c #9E8361",
"c. c #A18561",
"v. c #A28561",
"b. c #A38662",
"n. c #A48763",
"m. c #A28662",
"M. c #A48863",
"N. c #A48966",
"B. c #A68A66",
"V. c #A68A65",
"C. c #A68965",
"Z. c #A98963",
"A. c #A98B65",
"S. c #A98C68",
"D. c #AA8D69",
"F. c #AC8F6B",
"G. c #AC8F69",
"H. c #AA8E69",
"J. c #B08C62",
"K. c #AE9069",
"L. c #AD906C",
"P. c #AE916C",
"I. c #B0936F",
"U. c #B2946D",
"Y. c #AC9170",
"T. c #B29570",
"R. c #B39671",
"E. c #B49772",
"W. c #B39671",
"Q. c #B59871",
"!. c #B69972",
"~. c #BA9B74",
"^. c #B69B79",
"/. c #BEA07A",
"(. c #C0A27B",
"). c #C2A57D",
"_. c #C6A880",
"`. c #D2B48B",
/* pixels */
"} | Y ( Y ` I { Q A ! v v h *.j ~ f I G D d D n n b l r ~ ~ { E ~ b b } v A U ` g.} A E v Q } F E ! ` ] n 5.f.,.O.) / ,.-.D U h ",
"A ( O.' ..^ P [ [ | L | Y ( x Z b | P [ [ P C +.V P V o.u.b Y G h I b L J J J | n T L Y ] *.D d D ] l /  .( M P *.E.*.| )  .A D ",
"A Y a.*.1.] X.a.Z.j.7.O.7.P L b ! N j.a.(.e F.| | T.0.0.r ( I E f n b O.| n L V Y Y Y N | I Z ! h I !.[ g.m  .*.X.C.0.X.*.] +.b ",
"Z / v.*.| ` | S.0.v.C.S.| c J U h K 1.*.$.= *.v.v.a.C.n.} J O.e h n U J V [ ..J [ ) c J ( J n G D L <.1.C.M.e.] v.` 0.L.S.Y  .x ",
"Z L 1.F.X.F.` v.a.v.-.7.I.M J 5 b P 1.0.T.^ j ] ] ` 1.a.L Y P r E D | N [ o.( ' C [ ( V x ` D U g ( V K.` 1.1.v.` *.r.r.0.*.@.n ",
"Z f *.*.| ( 1.r.C.7.` [ a.c P U f l U *.) L h [ X.C.*.r.! ` ) 5 A G J n P o.o.) L C P V n Y D Z G / P *.C ` | v.X.%.C.n.L.7.^ x ",
"w I 0.*.*.] 0.1.g.0.*.a.x.r ( D e n V ( r x J x U ] 0.X.L.| ^ U Z ` L V L J L Y D b Y Y | f I Z f P o.) P h a.( *.1.C.v.a.S.[ z ",
"v | X.*.X.| O.7.9.*.0.x.x.Y [ U E n N L J Y J O.r 1.C.r T...+.Z D Y ~.x [ J n n [ x x ` n D D G Z l v f f a.S.*.] X.*.0.0.v. .p ",
"! r ! Z r r f x M J l n Y [ v E U G D f b h n n V x n f x V  .Z D Y ( n J Y ` ] D | D A h ] W G k | / J V : 0.| X.| } 1.-.0.+.z ",
"{ [ J [ v v v A v v v e Z f Y h b U h ! Z h t < w f f D v r A Z t , 3 e Y < t k e q Z H g G Z h E A t h : h - o J l ( / Y L [ A ",
"z & p p a & D D b z L 6 3 V Z A Z j ~ h Z D G F G p a p a 3 p D D b G Z v U f Z H G F E D U b ~ E Q G Z D I D f 3 3 p z p p * * ",
"o. . . .z.5.A.G G U.} G A.Z.D U } b I A D b U h Z q.+...O.[ u.+.u.Y v I z.j.~.Q j O.L D b I | } U Y I ` O.] F v Z U n [ u.z.y. .",
"w [ > v 6 [ I G 0 A Z D < L h [ | Y Y I U I } U Z Y 4 m ) ) ) _ O.( O./ D l L b j P ' [ L Y ,.O.U J +.'  .o.A Z j D ( ! ).~.*.- ",
"S.X.a.| g.T D G G ! ] T Y f | J | L J J J f I Z Z +.E X.0.e.1.1.1.J [ | B g.[ r Z [ !.P V V +. . .J.j.[ 5.c U D G ! Y n 2 C.S.S.",
"` 7.` 0.| L A G h D ` I 5.h Y [ ) P ( [ b b h j G >.I.| *.*.1.1.j 5 l.E.-.J L D b ( S.0.q.) ) K u.>.( ' [ ) b A G b I Y ^ f e.Z.",
"n.Z V n v ( Y Q Q | O.Y | o.( +.) u.Y D ! U U G f I w 5.O.e 0.0.0.a.C.1.-.] K v Z ( -.0.1.I [  .u./ P / ( ( v j q E ] Y  .) ( A ",
"J l P ( Y | Y j h n J U U [ ( L Y Y f Y n Y b Z E N u 7 ~ | 1.e.v.1.C.] 1.] ^ p Z  .-.1.S.1.f.P P ( [ O. .P b Z D ! J L Y [ P [ ",
"l 4 e L ` ` D f D D n ] j Y T A e n ` J L L b G f N %./ L.C.C.S.r.S.g.S.] 7.@.l h [ a.S.0.*.u.u.K ' ' +.) ) Y D U ` Y L T I A : ",
"n L Y 4 Y Y ! d d ` Y N ] ] U ` ! [ I Y D L b G G ] < 1.C.U r.Y a.7.] ] L.I.o.3 U P L.a.C.p...l L M l l x ( f Z Z ! ] Y ` ] J [ ",
"D A U j b Q D A Z I f U U Y D D A ` b A b D D F Z f f > M ^ ^ 5 K  .c x n < @.l A ( ( J v b r b I f ' / Y Y f F G D D Z I D D Z ",
"E Z G F h h G Z G G G f e b f j D G Z D h 0 d E h < , e o w - , - < w e e o , h q w e w < w e ` b Z d : 1 j I A Z U D Z G e G Z ",
"U { U A E D f ~ U b U h G E U Z F h D j Z b H h Z U ~ b I M I e ~ I ! f ! h ! ! D ! v Q Q ! ! D Z I U ! v l n D ~ W Q E ! ! E E ",
"G X.] I J h O./ J ) ` ` [ Y W G Q X.U D D L n n ( / ( _ o.8.+.f [ f.+.^ C ^ y.y. .@.v ` Z ` O.Z g ) ) ^ ^ ( ) ( I @.z.X.*.| { U ",
"G | v ( o...> +.+.+.^ ) - ' [ E v D U D | D V L a.a.L.X.S.A.) $ ( x.a.L.| A.C.F.F.~.P O.( Y D G h J !.g.O.X.X.*.!.I.]  .+.[ D Z ",
"Z f ( ) [ ) ) Y $ z.+. .l J Y E H n b D ( [ J S.-.T *.` S.C. .s Y a.| L.a.] ` a.l.X.l m e.O.b I b ( 7.| ] ` C.v.0.X.] +. .) U U ",
"F J l >./ ) +.+.) c r o.o.) ` E f A } : [ A F.S.1.1.v.p.0.v.a l Y X.` T F.] A.n.| I ( +.K O.U b U n L.S.` ] -.0.| ( A.z./ [ D H ",
"U | n >.C o.[ @.+.) P C D ( D d b } h } O.6.r.-.*.*.1.0.v.S.[ * Y a.a.v.*.C.a.7.X.O.O.O.P O.| f D U X.` ] ` 1.X.| S.S.7.[ V Z G ",
"D D ` u.u. . .u.o.u. .z.V ` v b ! b f v 7.4 a.a.0.*.1.a.U v.) * Y 9.*.( S.C.C.a.` q.O.[ ) ..O.U *.D X.a.n S.X.c.T v.S.a.0.V Y E ",
"Z O...) c o.[ V [ L  .u l n f b b | n h > J U C.L.a.a.x.C.v.^ p L 7.g.a.S.] ( 1.C.` b ( f Y ` 5 ` I 1.` S.*.e.] a.v.C.` 0.I.Y U ",
"g ` ( f f 1 w n J Y ) } J D h Z h ` D b 5 N Y L f - D ! W ).f p Y -.e.X.7.W I *.` L ( ( L L L b I U *.| b } 0.] 0.| -.L.| I.e G ",
"U Y D b D U G b t G Z I v v D G A { Z w f j D A Y Y D A A A v I | J K J L n , A n Z I Z b I -.h 0 ( n b L K M c J l V J n ( n U ",
"t g t t t h g G F j A d e 0 k Z g j E g Z h h , q g t t h b k 3 O 4 - w - < G e F F k q g 0 q E q t e e - # f : - X ;   - , - Q ",
"D I I U I ! I Z G Q E ~ ` Z U ` ! D D J Y ] ] e U ` D Y ` | L Y ( ( L Y N U *.E E D D v D U Z A Q A v b L e | I }  .P ^ u.) | L ",
"' [ ' Y ( D b b ! Q ` D I I ! E b [ ( >.( [ ` G E J +.[  .O.+.[ O.Y -.>.^ P [ Z ! ] n I U | | | J  .v b ) u.( D I U.6.O.Z n.+.) ",
"z.o.K P ) / f h D h ( %.n Y T U Y.s ~.L.).n ] j U n g.a.S.S.C.S.| | | ] *.K J w h b b [  ./ B ' 1.e i o._ Y x f b f Y g.[ e.j.+.",
"P f.5.1.[ / U f G ! D r.L ` A *.v.C.X.v.- < | b v n D C.1.1.X.X.| *.*.] v...J h Z L v X.S.e.A.v.*.b p.1.Y 6 f f b f X.( L [ ..O.",
"P q.] ( b Y A v b } t -.o.J ] x.v.] *.v.I.' U h D N W 0.*.-.X.X.X.X.S.| v.J L D Z J ` ] *.1.T C.( F.` i.J ..W b < b f 8.L K O.q.",
"O.e.] X.0.[ b e U ` A U.r r D G { a.S.v.F.[ e ! U L U v.S.a.g.[ C.C.` ` O.V Y D G J U ] X.0.` X.a.C.e.| ) Y f f h ] l f.[ K q.7.",
"0.] 7.X.-.c n b ! ! #.D J L D r b v.C.v.C.( ` Z A ` ! n.r.v.Z.T 0.a.S.C.C.V | Q G L ` ` S.0.*.a.0.0.-.9 ; N ! f ~ } [ [ u.[ / [ ",
"] S.A.Z b ) b h ] b  .b D I U l D x l p 4 o.| e I D Y b j D b A S.G n.S.!.M n e Z L Y Z d A Z e j C.K.f ..b b f ~ b | x / K Y 1.",
"Y n J 6 b L J h b h v I D I I f j e ` Z ` Y ] U G ` n < J D D r Y I J A J f | e D T f Y 5 I L Y f Y f n Y ! b h h D ] ` J n D r ",
"f b Y I Y D U G e b b b G j { f h h g , A D U e E h Z U D I U Z U I D e I f r f E D A Z I D Y I ! I ] f , f Z R e E U h I h D h ",
"Z y U E f G E U f E f b G h A E Q f Q E f U G h G G G G E E G A H ! Q ! Q ! f b E D H Z H Q H E G U @ % I f D Z f b h ~ E Z b D ",
"Z [ U ! W D ` Y ` v L Y I U b D U ` J | ` ] ` ` I Y } U ! Y ! E ~ | } I U w Y Y J D U D ! ! | f } 5.O.+.O.O.! n I n Y J | T ! Z ",
"` D ) +.z.V +.P [ [ 8 x x v / 5 n K  . .P [ ( ` Y [ X.[ Y Y T U h I | T ( n q I f [ O.J $ J ] E h b /.~.g.^ y.@.P O.J V >./ / h ",
"D x 0.L.B T.a.*.[ O.X.| ! %.[ r n n A.S.!.' M K  ...+. ...` b ! h ! Y Y I. .L L C f 5 z ^.[ l Z ! U F.C.1.n.S.] L.7.Y P [ Y P j ",
"Q ' ~ a.b C.0.v.F.` ] O.( c V 6 b Y v.1.A.-.Z.Z.-.M.5.( : L ` Z G Q ! b K.O.' O.!.~.~ 0.S.J L b I A a.a.a.*.| ` [ | [ g.S.).[ Z ",
"` x } C.A.1.a.C.A.C.S.` L 1.o.A ` } A.C.a.] Y ] L.n | [ K L n E D Q T < . x 1.V r h < 7.A.5.[ n I { 0.| C.] 7.C.S.} 0.*.| | [ Z ",
"G ` D C.A.1.| v.0.a.v.0.2 E.C D b Y S.C.0.S.I.` Y [ e.n.( ( A F H : ] T Y ] | | F.| | J * 5 O.I ! U 0.v.1.C.S.F.a.C.` 0.7.` [ D ",
"w ` O.*.X.g.7.n.*.C.0.v.q.X.) 4 v Y v.0.` | X.0.e.| ] 0.S.J b Z E ! ] L n v *.0.-.5.b a.S.U.` A ] } 0.0.0.| | L.C.*.0.] ` !...G ",
"d [ `.w A 4 Z h Z Z S.E.r (.P D U b e.a.S.0.*.T.C.f b Z Z Y [ ! D U U I D 5 f b } l.- | e e Y D Y U v.1.a.-.| e.0.-.K.0.K.g.l G ",
"| v Y Y U U D D n Y Y n f Y x Z f f J x x D L D l L L x l c ( E D | I D D D e L Y Y , ' v f X.Z Y I D x A n L r x n 6 r J f O.D ",
"Z Z Z Z Z j h A q Z e < h A < Z e h 4 A 4 D Z b j h e q , - - < A q D G j E Z h t - , t e E q F < f f f e e b 4 q q < e Z h j h ",
"A { Q Z U ~ ! Q E U I U ! Q ` n ` } b , l n I h D b v n b f ! W f W b D D E G f Z b A D A Y b v I ! D D V I n 4 Z U U A f ~ b b ",
"x U U Y q -.U Z j ` Y ` ` -.[ [ [ O.K x / P ( e h O.[ ) ^ u.U  .>.) ( ( J ( T b A z.u.P +.) V c q.[ P O. . .+.p h U n I T -.} ] ",
"a.' P @.j | D Z f T L s ) P C P 5.e.| ( e.| x f b J !.J l ` _.Y v.L.e.p.*.|  .h j  .).[ S.] 1.1.1.Q L 0.a.F.< f A | l x O.J J ] ",
"- A %.> b v D Z h I l V I.j L.L.S.S.a.] C.( ) r A M a.P V n ( >.C.a.*.` S.O.+.v j [ 5 | J T Y ~ 7.5.v.a.| -.C f h Y *.C | J V P ",
"0.| a.U.L U D A f n n A D v.` *.| S.S.` 1.e ( f h ( C / ( r ( ( D 1.*.| S.e. .6 , [ L.` x.L.*.a.1.0.1.X.| 0.V 5 f | ` [ u.P O.i ",
"*.} v C r A b f ~ v l D /.| X.-.S.v.` ` ] J n A h P l / ( l g.g.0.v.*.v.a.A.P 6 e Q *.A.a.F.| 1.7.%.X.` X.*.V 2 n ! | r o.+.p ' ",
"U P ( l W I A h D Z b D U S.X.| ` X.] *.*.n V 4 w V 5.j.) 2 -.` [ 0.1.n.a.0.+.3 f G v.n.*.C.1.1.*.O.*.X.*.X.[ * ` U [ x ) f J L ",
" .r Y I n D A h h b I ` 4 I.X.X.| ] | *.1.P ( D d ) X.[ M J Y = *.1.S.0.a.a.o.3 ` Z 0.a.0.v.0.C.p.1.` ` | n.J # N ! *.K V ! ( ' ",
"Z J L b b n b j b G A l U b 5 L 6 l 6 4 x f o.r G V e # K O.' n W S.K.C.] v.@.@ ` U F.-.} } 4 b b - a.*.1./.@.@ L 6 = u x n L U ",
"J L Y b %.D b ! Q D G I G E b l n I x n L Y 5.f w L Y : w b Z ` L L ..+.( [ o.f D Y / r w q q j t w n , $ o : f : ,.| K r e b D ",
"t - < 6 , t h h G k t k < - O g t q g h t t t 5 , , , e G A q A k h e j e O q 3 0 t 1 , g E H h j Z f G f w e x < , e + e e j < "
};
