/* XPM */
static char *_02b0683e28e4b6ecea6fbd56b98564d4JDqXmnkbPass08L[] = {
/* columns rows colors chars-per-pixel */
"64 64 190 2 ",
"   c #665F57",
".  c #6B5E57",
"X  c #6B5F58",
"o  c #6F6156",
"O  c #676158",
"+  c #6C635B",
"@  c #6E685F",
"#  c #706256",
"$  c #72645A",
"%  c #6F6B63",
"&  c #746D63",
"*  c #796D65",
"=  c #767067",
"-  c #7C7166",
";  c #777168",
":  c #7A756C",
">  c #7D786F",
",  c #7E7A71",
"<  c #806E67",
"1  c #836F68",
"2  c #8E7566",
"3  c #81756C",
"4  c #8D776D",
"5  c #83796E",
"6  c #897A6E",
"7  c #957B6D",
"8  c #997E6E",
"9  c #837771",
"0  c #8B7772",
"q  c #837D74",
"w  c #8B7D72",
"e  c #847E79",
"r  c #8C7F78",
"t  c #917C74",
"y  c #997E70",
"u  c #9D816E",
"i  c #858077",
"p  c #898177",
"a  c #868179",
"s  c #8A847B",
"d  c #8D887E",
"f  c #918277",
"g  c #95857D",
"h  c #94897E",
"j  c #98887E",
"k  c #A5836C",
"l  c #A68672",
"z  c #AA8773",
"x  c #A78874",
"c  c #A98975",
"v  c #A6877F",
"b  c #A78B7A",
"n  c #AE8C7A",
"m  c #B28B77",
"M  c #B18E7D",
"N  c #AD907D",
"B  c #B2917E",
"V  c #8D8A82",
"C  c #978780",
"Z  c #988780",
"A  c #958B82",
"S  c #998B82",
"D  c #948F89",
"F  c #959086",
"G  c #9B9186",
"H  c #96918B",
"J  c #9A958F",
"K  c #9A968E",
"L  c #99948D",
"P  c #9C958D",
"I  c #9C948D",
"U  c #9C968D",
"Y  c #9E968C",
"T  c #9F968C",
"R  c #9F978D",
"E  c #9F978C",
"W  c #9C948E",
"Q  c #9C958E",
"!  c #9D958E",
"~  c #9D958F",
"^  c #9C958F",
"/  c #9D968F",
"(  c #9D978F",
")  c #9E968F",
"_  c #9C948B",
"`  c #9D998F",
"'  c #9C988F",
"]  c #989691",
"[  c #9A9792",
"{  c #9B9792",
"}  c #9D9690",
"|  c #9C9791",
" . c #9E9690",
".. c #9E9790",
"X. c #9F9790",
"o. c #9E9791",
"O. c #9F9791",
"+. c #9B9690",
"@. c #9B9893",
"#. c #9F9891",
"$. c #9E9991",
"%. c #9C9893",
"&. c #9F9892",
"*. c #9F9992",
"=. c #9D9994",
"-. c #9C9A95",
";. c #9D9A95",
":. c #9E9B96",
">. c #9E9992",
",. c #A58781",
"<. c #A78982",
"1. c #AA8C85",
"2. c #AC8F88",
"3. c #A19687",
"4. c #A49386",
"5. c #AC9687",
"6. c #A39288",
"7. c #A3948B",
"8. c #A0968B",
"9. c #A0978C",
"0. c #A0978D",
"q. c #A4968D",
"w. c #A5978E",
"e. c #A4948D",
"r. c #AE968A",
"t. c #AD918A",
"y. c #A0988E",
"u. c #A1988E",
"i. c #A1998F",
"p. c #A6988E",
"a. c #A39C8E",
"s. c #A6998E",
"d. c #A8998F",
"f. c #A8988E",
"g. c #AC9C8E",
"h. c #B59180",
"j. c #B09385",
"k. c #B19385",
"l. c #B19486",
"z. c #B29587",
"x. c #B39587",
"c. c #B39482",
"v. c #B69886",
"b. c #B89A87",
"n. c #B49789",
"m. c #B09489",
"M. c #B29B8C",
"N. c #B99B88",
"B. c #A69791",
"V. c #AB9791",
"C. c #A09890",
"Z. c #A09891",
"A. c #A09892",
"S. c #A09992",
"D. c #A19992",
"F. c #A19993",
"G. c #A09A93",
"H. c #A19A93",
"J. c #A09B93",
"K. c #A09A92",
"L. c #A29A93",
"P. c #A39B93",
"I. c #A49B91",
"U. c #A59C93",
"Y. c #A19B94",
"T. c #A19A94",
"R. c #A29A94",
"E. c #A29B94",
"W. c #A39B94",
"Q. c #A19C95",
"!. c #A29C95",
"~. c #A19C96",
"^. c #A59D94",
"/. c #A59C95",
"(. c #AA9B91",
"). c #AA9B92",
"_. c #AA9C93",
"`. c #AB9C92",
"'. c #A59F98",
"]. c #B19B90",
"[. c #B09F91",
"{. c #A6A097",
"}. c #AEA093",
"|. c #A7A39C",
" X c #A6A099",
".X c #A9A39B",
"XX c #B1A193",
"oX c #B0A89D",
"OX c #ACA7A0",
"+X c #ADA8A1",
/* pixels */
"H F F F A F F A A A _ H a.` s a s D F F A A A F A A D D F A V ~.L L ~.C.>.C.~.~.W.C.W.W.~.|.Y C.C.Y >.>.F L F F F F A F A d A L ",
"i.0.Y Y Y Y Y Y Y Y Y Y Y Y Y Y _ Y Y H G G Y Y Y Y H Y Y d U.C.O.O.C.H L Y O.Y O.O.O.Y O.C.Y Y C.Y Y Y L O.O.C.O.L L O.O.F V ^.",
"Y Y Y Y Y Y G 0.Y G _ Y Y Y 0.Y Y G Y Y G Y Y H Y _ Y Y 3.q O.C.O.O.O.D Y >.>.Y >.Y O.O.O.O.C.O.W.Y Y O.O.>.O.C.O.O.O.Y >.s a i.",
"Y Y Y H Y 0.Y 0._ G _ _ Y Y Y 0.Y 0.Y G _ Y Y Y Y H Y Y G > O.Y O.>.Y Y Y Y Y O.C.O.O.O.C.>.O._ >.>.>.O.>.C.C.O.U.C.O.Y C.d a i.",
"0.Y _ Y Y 0.i.Y Y Y Y _ H Y Y Y Y Y Y G Y G _ Y Y Y _ Y G q O.Y C.>.C.Y Y O.Y C.C.O.Y C.C.C.O.H O.O.O.Y O.O.W.O.>.Y Y Y >.d s 0.",
"Y Y Y _ Y Y 0.Y Y 0.Y Y _ _ 0.Y Y H Y 8._ G Y Y Y Y Y Y G > Y O.>.C.C.C.Y O.H C.Y O.C.O.O.O.Y Y O.>.C.C.O.>.C.O.Y C.O.Y >.L A i.",
"Y Y Y Y Y Y 0.Y 0.Y Y Y Y Y Y Y Y Y Y Y 8.G Y _ H Y Y G _ 9 Y O.C.Y Y Y Y >.>.O.C.C.Y L Y O.O.Y >.>.C.C.C.>.C.>.L Y Y Y >.F A Y ",
"Y Y Y Y Y Y Y Y Y _ Y Y Y Y Y Y Y Y _ H Y G Y Y _ Y Y _ Y i O.C.W.O.O.Y O.O.>.C.C.C.O.Y O.O.Y C.C.>.W.>.O.C.C.C.O.Y Y O.Y D A 0.",
"i.Y Y Y Y Y Y Y Y Y Y Y Y Y Y Y Y Y _ Y Y H H Y Y Y Y _ Y q Y C.W.C.W.H Y >.C.W.U.C.C.O.C.O.O.O.W.>.C.Y Y >.Y Y Y Y Y Y O.s A I.",
"i.Y i.Y Y Y Y Y Y Y Y Y Y Y Y Y Y G Y Y _ _ _ Y Y Y _ G q > 9 O.>.>.C.O.O.Y O.W.W.>.C.W.O.O.O.C.W.O.O.O.C.O.Y Y Y Y Y Y @ & q i.",
"p q p p q p p p p p p p > @ & q p q p p p q q ; & : : : : d & > : > q s d s p s s s s s q : q , , 9 , > : , , , : : : : _ A A s ",
"n.k.x.x.x.k.k.k.x.x.x.x.6.p V @.@.L :.[ [ [ [ [ :.[ [ L [ :.L :.-.-.[ D L L F L L L L L A H r.].g.s.e.g.e._.).).I.e.0.e.M m h.h.",
"M M B M M M M M n M M M n A a L L F L L L D D F D F F D F F F L D L L F L L F L L L L L a : B M n M c.M M c.B h.M M n n M M h.h.",
"M M M M M M n n n M M n M p e L L F L F F L L F F D D D L F F L L L L L L L D L L L F F a q M M M c.M c.h.h.M c.M c.M M M M M M ",
"n B M M M M M M n n n n n s e L L F F L D L L D H L D F L F L L L L L L L L L L L L L L a i M M M h.M M h.B M M M B M m M M M M ",
"M h.M M M M M M M M M M M p , L L D F F F F L L F F F D L L L L L L L L L L L L [ [ L L a a M n M M M c.M M c.M M B M M n M n n ",
"M M B n M M B M M M m m n i , L L D F L F L F L L D D D F L L L F L L L F L L L L L L F a i M n M c M h.M M M M M h.M M M M h.B ",
"M M M B M M M h.h.M c m m p e F F L D L F D D L D F D H L L L L F L L L L L L L L L L L a a M B B m h.c.M B h.c.M M M M M M M M ",
"M c.M M M n B h.M n n m m V V F F L L F F F L F L L L L L L L L F L L F L [ L L L L L L a a n n M n B c.c.h.c.M M M M M M M h.M ",
"M M M M M M M B M c m m z a F F F F F F D L L L L D F L L L H F D L L L L L [ [ L L L D q i x n M n M M h.M M M c.B M n M M M B ",
"M h.M B M M M M M M z z 2 > , F F L L L L L L L & : : : & @ & @ @ % > > : : , , : ; % & : d - 7 7 8 8 y y 8 y y y 4 $ o $ + o $ ",
": > > ; q s d s s s & & : s : : > : : : q s p s 4.7.7.S h A h 7.5.g.s.s.s.I._.)._.s.7.5.5.g.M.r.M.M.r.g.[.g.r.[.XX`.` G F A F H ",
"8.8.6.7.N x x n x x b S 8.6.8.6.8.6.8.7.n x z x x x l k 6 a n c.c.c.M c.c.c.v.c.c.v.v.B B B v.c.c.c.c.v.v.v.v.v.c.c.c.c.g.A <.x ",
"x x x x x n x x x k l x l x x x l x x l l x x x x x z x 6 a B c.c.c.c.c.c.x.v.v.c.x.B n M B c.c.c.c.c.c.c.B c.v.v.c.c.c.c., l x ",
"x x z l x x x x z z k x x x x l l x z z x x x x x l x x w i c.c.B c.v.v.v.v.v.v.v.v.B B B M B c.v.v.v.c.v.B c.c.c.c.c.c.v.V x l ",
"x l x x l x x x x x l x x x x x l l z n x x x x z z l z w a c.c.c.c.v.v.N.N.N.v.v.c.c.B n B B c.c.c.c.c.c.B v.c.v.c.B c.c.s n x ",
"x x l x x x x x x z k x x x x x l l l x n x x x x x l l w i c.c.c.c.v.v.v.v.v.c.c.c.B c.B B B c.v.v.c.c.v.v.v.c.c.c.N c.c.a x x ",
"x x x z l x z l x x x c l c x z l l z x x x x n x l x l 6 q c.c.c.c.v.B c.N.c.B c.v.c.c.c.c.c.c.c.c.c.B c.c.c.c.c.B c.c.c.a x l ",
"x x x l l l l x c x z c n x x z x l x x x x x x x l l x 6 a c.c.B c.v.c.B c.c.B v.c.c.c.B c.c.c.c.c.v.c.c.c.c.c.c.c.c.c.c.a z l ",
"x n x l l l l l x x x z n x z x x x x x x c n c x l l l 6 q c.B c.c.c.c.c.v.c.c.v.v.c.c.c.c.c.c.c.c.B c.c.c.c.c.c.c.c.c.N > x l ",
"x n x l l l l l l z x x c x z l z x x x x x c x x x z 8 : > 3 B c.c.c.v.c.v.v.c.c.v.c.v.v.v.c.B c.c.B c.v.v.c.c.v.c.c.b 3 q x x ",
"l l l l l l l l x l z x x z l l z x x x x x u # : ; : : q d > > : > > , , q , > , > : & ; q i : ; > : > , > : : : : : > s s - 4 ",
"s a p s a a a a s s i ; , q a q s s s s a s A _ F F A A >.>.L A F L L L O.O.L L [ F L d V A Y L L F H >.>.>.>.O.O.>.L L L >.Y _ ",
"A A S A h A h h A S D d e e.e.B.I.B.B.)._.I.B.B.B.B.B.B.B.B.B.B.).).I.I._._._._._._.C.F s g A A h h A h A S S A A A h A A S S S ",
"A A h S S A h A A A A s a e.B.B.I.B.e.).).).B.B.I.B.I.).B.B.B.I.B.).B.I._._._._.I.I.I.i q S A G h S S h f g A A A h g h h S A A ",
"S A A A A A h h A S h s e B.e.B.e.B.B.).).I.B.B.B.e.B.).B.B.B.e.I.).B._._._._._.B.I.I.s , A S S S A A h h h S A A A h h h h h h ",
"h A h A h h A h A h h d e B.e.B.e.B.B.B.B.B.B.e.B.0.B.B.).e.B.).I.I.B.).B._._._.B.I.I.5 , A S A A S S h S A S A A h g h h A h h ",
"h G h h h A S A h h h a e e.e.e.B.B.e.B.B.B.e.e.B.B.e.B.).B.B.e.I.I.e.B.B._._._.I._.).s q S h h h S G S S A A g h h h h h h h h ",
"h g g A h A A A A g h a q B.e.e.B.B.e.0.B.I.B.e.B.e.B.).I.B.).e.e.e.B.I.e._._._._.I.B.s , f h f h h h h A A A h h h A A A h h g ",
"h h h h h A h A h h A a q e.0.e.e.B.e.e.B.e.I.B._.B.B.e.).).).e.e.e.B._.).I.I.)._.).I.s q A h g A A h A A A A h A S A S A h A h ",
"A g h h h A A h h h A p e B.e.e.e.B.B.B.B.B.6.B.).B.0.e.e.).B.S e.e.e.B.).I._._._._._.s q S A h S A S A S S A h h h h S A h A A ",
"h g h h A A A A A h g q q ).B.B.e.e.e.e.e.B.I.6.e.B.B.e.B.B.e.6.e.e.e.6.).I.B.B._._.0.s : p A S + + + + + + +   O O & A S h h h ",
"; 5 3 5 9 9 9 q 9 3 ; s > 9 r r w r s s s s s s w g s s s s q * q r r s s s g g s s 9 V p ; > , H D F D F _ A A F F A s s a a ; ",
":..X|.|.|..X|..X.X.X|.'.|.~.^.~.~.^.|.|.|..X|.|..XOX|..X.X+X>.s D S S G S _ _ G _ _ 0.C.L D Y O.C h h Z h h g f g h h h h h A V ",
".X^.|.|..X^.|.|.^.|.'.^.|.'.|.|..X|.|.|..X.X.X.X.X|..X.X.X.XV s g t h h f g h h h C Z h h t h h h h C h Z h h f h h h Z h g h e ",
"|.^.|..X.X^.^..X^.^.{.^..X.X.X|.|..X.X{.|.|.|..X.X.X|.|..X.Xs i Z f h h g h h h g h Z h h f h h j h Z h h C Z h h h h Z h g f q ",
"|.|.|..X|..X|.|.^.^.{.^..X|.|.|.^..X|.|..X.X.X.X.X.X.X.X|.|.s a g h h h f h h h h C h C h t Z h g h h h C Z Z g g g h C h h f q ",
"^..X.X.X.X.X'.|.|..X|.^.^..X^.|.^..X^.^..X.X.X'.|.|.|..X'.|.s a g g h C g h Z h h Z h C g f h h h h h h C h h h h h g h h h h q ",
"^.|..X.X.X|.|.^.|..X~.^..X.X.X^.|.|.{.^.^.|.|.|.|..X.X|.^.'.s q h g g C g h C h h h f h f Z C h C Z h h h h C h h h h g h g h a ",
"^.|.|.^..X'.^.^.|.^.^.|.|.|.|.^.'.|.^.^.|.^.^..X.X|.|.^.|.|.s a h h g h g h Z Z h h h A h h Z h h h h Z Z h j h h h h h h h Z q ",
"^.^.'.|..X^.^.^.~.^.^.^.^.^.^.^.|.|.|.^.|.|.^.^.|.|.^.|.|.^.s a h g f h h C Z Z C Z Z C Z Z Z h h h h C C j h h Z h h f h h h q ",
"^.{.|.|..X^.^.^.^.^.~.^.'.'.{.|..X|.^.'.{.^.^.|.^..X|.|.|.|.h a h g h Z Z Z h h Z Z A C A Z Z h Z h h h h h h h Z Z f g h w t > ",
"L |.|.^.|..X^.^.^.|.^.|.^.|.^.~.^.^.^.|.|.oX|.|..X.X.X|..X|.q s q Z C Z h Z C f + + + + + + @ + > > > : , ; & @ & q 3 3 5 - & : ",
"a q a q q a a e q a a p q = q a ; = a : ; ; q a a a s s p s A F d p q s s s s V Y L F L F F L L .X{.|.^.^.C.C.'.}.}.}._._.q.s.U.",
"g.g.g.g.g.g.g.g.g.g.`.g.`.a 1.<.6.6.1.f.B.e.1.1.1.1.1.1.<.1.1.1.1.1.2.2.2.1.1.1.2.2.2.t.).A _.}.XXXXXX[.XXg.g.g.XXg.`.`.g.g.g.g.",
"g.g.g.g.g.g.g.g.g.g.g.g.g.q <.v <.<.1.2.1.1.1.1.1.1.1.1.1.<.1.1.2.1.2.2.t.1.2.2.t.2.2.t.2.a XXXXXXXXXXXX[.`.g.`.XXg.g.`.`.g.`.g.",
"g.g.`.g.[.[.g.g.g.g.g.g.g.q 0 ,.,.1.<.1.1.1.1.2.<.1.2.2.1.<.1.2.2.t.2.2.2.1.2.t.t.2.2.t.1.a XXXXXX}.XX}.`.`.g.[.XX[.`.XXg.g.g.g.",
"g.g.g.`.XXg.`.g.g.`.`.g.`.a 9 1.<.<.1.1.1.1.<.1.1.1.1.1.<.<.1.m.1.2.t.1.1.1.1.1.t.t.2.2.2.i XXXXXX`.XX`.`.XXXX`.g.XX`.XX`.g.g.XX",
"g.g.`.`.g.g.g.g.g.[.g.g.g.a w 1.1.1.<.1.1.1.<.<.1.1.1.1.<.<.1.1.t.1.2.1.1.1.1.1.2.1.2.t.2.a XXXXXXg.XX}.`.g.g.g.g.g.`.g.[.`.`.g.",
"g.g.g.g.g.g.`.XX[.g.XX[.g.q q 2.1.<.v <.<.<.1.1.1.<.1.1.<.<.1.1.t.2.1.1.2.2.1.2.2.1.2.2.1.s XX}.XXXX`.`.g.`.g.g.g.g.XXXX[.g.g.g.",
"g.g.g.`.g.g.g.g.g.g.g.`.g.q 9 1.1.<.<.<.,.<.1.1.1.1.1.2.<.1.1.2.2.1.1.1.2.1.1.1.1.1.1.2.1.a XXXXXXXXg.`.}.`.g.g.g.g.g.[.g.XXg.g.",
"g.g.XX`.g.g.g.g.g.g.g.g.g.i q 1.<.1.<.<.<.1.1.1.<.1.2.2.2.2.1.2.t.2.1.1.1.1.1.1.1.1.1.2.1.a g.}.XX`.`.XXXXXXg.XXg.g.g.g.g.g.g.g.",
"g.g.`.XXg.g.g.g.g.g.g.`.7.i 9 <.<.1.<.<.1.k.1.1.<.1.1.1.2.2.2.2.1.2.1.1.1.2.t.t.2.1.1.t.2.q g.XXXXg.g.g.`.XX`.g.`.XX`.g.g.g.g.g.",
"+ $ @ @ @ @ @ + + + + @ & q > 1.1.1 . X X . + X X + X + + X $ < & & 4 t t t t t t t t t 3 q - g s i a i = : > : > > : : = @ & : "
};
