/* XPM */
static char *a0d3e92716b749b180c422e872584d96QlknzqAGNqW2waJC[] = {
/* columns rows colors chars-per-pixel */
"128 128 65 1 ",
"  c #311F0D",
". c #35220E",
"X c #38240F",
"o c #372410",
"O c #3A2611",
"+ c #3E2914",
"@ c #412C16",
"# c #442E19",
"$ c #46311A",
"% c #4B351D",
"& c #4F381F",
"* c #50371F",
"= c #50381F",
"- c #4E3720",
"; c #4F3820",
": c #503721",
"> c #543C23",
", c #583F26",
"< c #583F28",
"1 c #574026",
"2 c #5A4127",
"3 c #5D4329",
"4 c #61462B",
"5 c #64492E",
"6 c #684B2F",
"7 c #684C2E",
"8 c #674B30",
"9 c #674C30",
"0 c #6B4F31",
"q c #6C4F33",
"w c #6B5032",
"e c #6C5033",
"r c #6C5134",
"t c #6E5336",
"y c #705334",
"u c #705436",
"i c #735536",
"p c #735637",
"a c #745636",
"s c #755837",
"d c #745738",
"f c #765838",
"g c #74583A",
"h c #765A3C",
"j c #795B3A",
"k c #795B3B",
"l c #7B5C3B",
"z c #795D3D",
"x c #7E5F3F",
"c c #7F603F",
"v c #7C5F40",
"b c #7E6141",
"n c #805F3E",
"m c #81613F",
"M c #816343",
"N c #836442",
"B c #856441",
"V c #856645",
"C c #886744",
"Z c #896744",
"A c #8B6945",
"S c #886846",
"D c #866748",
"F c #876848",
"G c #8B6B4A",
/* pixels */
"22>55342$%O$%3>>%#$#%28%o$4>$3>54$%%0a5x642%rlfju2>>543>f0e>2qSzum;>3e5>42%%#$%%>>>45>>23v093>%0xu4,%=@#3a4%,453jhjS&%4j3>>04842",
"2<>55343#%+#%4>%%#$#%%0$o#7#$2>40--%jf9V03>>rmfjd2>>433>a07>>0SzuN3>3q3>42%>#%%%2>>5u2>>4z043>%rzu22%$#%4f0%2304ubfS%%4a4>>04442",
"2>-50233$$##>4>%%@$+%$e$+$,#=>>40%%%4u9M62>>ucuru5>>4342u0e3>5fzfn4>373>4>%%#%;%3>>5u%>>uM795>&0zr,2>>$>5f0+>343uveS%>5d4>,33433",
"2>-55223%>%$$3>>%#$$%%q%#$,#%%235%>%5u0M43>>rl5ff5>>3433rru3>7ufsl42254;42%>+#%%22;5a%->ah005%%5ju33>>$>3j0+>34>ehuf%$6q4>>33352",
"23>5554,%>&$$4>$%#$$%>e%@#4#+2,34$>;00wV49,>rj4fr8;>4543euu3>7rzsx;%275>33%>$#>%2220q->>zhe53$%5ld44:2%,2M0$>45>uruj%$8u4>>34333",
">3>5552>$%%$#4>$%#$$%%e%#+3@#3,45#>>5u6V64>>rx5uu9>,2543uq0,,7uham>%35f222%>#+>%>2>0r;-2lf055$$4ju32>2=22j0>>491dful>>8u6;>>4533",
">4255>2>%%$%+>>##$$$%%0%#+2>#2259%>>5jwb44>>uj4ru52>2954uru>270zeN>%45j222%2#+>%22>5r&>2xh5r5%%4fr,323>>4f02>36>fuul>>5j5>>,4542",
">4244223>>$%+2>%$$%$%>0%@#>=#3259%>%0eeb44,>da45l4;-3644auu>>5Mf0x>%254>22%,#+>%23>7r>22che99%%4y03225%>3e0>>46>rr4m>>5a5224953<",
",4,44333%%#$+3>%%#%%%>4%@@3%%34rr$>%u52M44,>uj49f4>>4323uru>>5uu0N>%350>3>%2##>%23250&22xhq05%%9yq4325>32u02346>ez5n>%4a524,983>",
"23,54523%>%$O33%&$%%%>4%X#3$%450r$2%au>V23>3um9re4>>44420uu,>4rfeM-%355>3#$,##3#24>59@>2lf7r5>>8fe3223>3>f4>39w20zex>%4a5%328042",
"23,44543;%$#o43%%$$$%>4%O+>%%4,5r$2&uu4b23,3uc90e9>%333>eue,%5rueM>%305>3#%>$#3$34204+>2cr0r2>>5ue4333,4,d4>,5u2dzeN>%404%325043",
">3253533%>$$o43%%$$%%>4%#+>$%3>50%>>e04b33>3um00r0>%444>ufu2$7rr0x4#357>3,%2$#>$>3205#2>mf5r2$>8eu4342>45f4>24f2ffrZ>$4e3>3<8844",
">3,7,3>3$>$#+34%;$$%$>6#$+3%%>>5e%>%l04z>2;3dM30e8>>5343ufu3$5uuej,-374>3>%>##2$33275%>>xz504*%8uf4,4>243e32>6f2ufMz>#4u4;,,3854",
"23,03>>>$>%$O24%>#%%#>5%#$3$%>,50%>%ae3f32;4fj40u5>>4342ufu>$4uzej,%404>3>%>#$>#33275%,%jbe44%>5qz4>33423r3>-5f2uzmj>>4u0;,>4884",
",4,0>3>>%>$#O>5%&$%%#>5%+#3#%334u%>&js3h22%2ux40l5>>5152aju2$3udsj2%445>3>%3%%>$33>55%2%jz045%>4qc3>24343u32%5z%Vhmx>%0e7-3>4504",
">3>3>2>>%;##+>5#%%=%$>3%@+4#$2>4r+>%jjrh3>;,uM40x0>%44635je>$3udax4>2352,;$2%%>%53>55%>%jhu90%>50j2>,5455f3>;4c%SfNl>%8e7>324444",
">2>2>>>>>%$##>5$%$%%%>2$#@2%%>>0r#;$xjfz3>%45z40fr>%45626ue>#4uuez3>4452>>>2%%%%43>45%>$juu45%>5qj8>>3430u2>>1r>SuSf>%4e5>325343",
">2>2>>>2>%%%#30%%$$$%>3#$+2$>2,5r#-%luff32%50z44j0>#6503ueu&%4uuyx3>25723>>>>%%%4,235$>$uuu40%>40c4,>>44wf>>>1w>zhaf-%5u0>3>5383",
">3>5,233>%%$#34%%$%%$>4@#O2$%2,0r#-$jeuz,4>0jf34M02%43520fa>%3uz0u>>>55322>>%$>$23>55%>&ahr49%>30m52>>33ru%>330&xuue;$0u4>>>3353",
"32>5>32,>>%$$24>%%%$%>3#+.,%%2>5u%>%xerz>4-8zr30M0>%64426uu>%4rfuu>2>0e223%>;$>%>3>60%%>xze45%>>dx42,>32ru%2236%xfu0;>0e5>>>2443",
",>,5>322>>,$$,4>%%>%&>,$#o3%%>,3u%>$Nurx>4%3du30z0>#32437eu2%4ruau>2>4022>>>>%>%24>ur%$>mze40%>3dM443:33rf>3220>bfu0%>870>>>>943",
"2,,4>>02%%%$+-4>>$>%>>>$%#,%%%>2r$-$merz22;4zu94a0>%44940eu2=40fex32230>4%;>2$>%4>2ur;>;xfeq0#;30j422>33uu>4>>e>xh00>>879;3,285>",
"3235%>0>>%>++-02>%%%>>>%%+>%>%>30$-$xurf>>>5xf20ar>%0r63uau2>40ffe>2>3e>3>%>2%>%2>>5r%>$xue40#;,uN5,2>339x29225,xz0e;>0u4->,384>",
",245>&5>>%>+@,02>>$%>22%%O,$>%>45;>%xfrr3>>0ju25ur>%6rw3euu>24rxj4>;>7q>3>%>2;>$2,;56%>$xue05$>20N42>3449f>2434>buar>%0u5>3>888>",
">444>&3>>%>@$%52;&%%>22$%O2%>%>4r;-%mf6r3>>rcr23ar>%0wu4uee>>,rxu4>%250>3>%%>>>$>2;53>>%xu045$>40M3,3>53rr>>330>Muur>>ru7>2>884>",
",443%&32>$%O+%43>=%$2>2#$+,>>>>3u;-&Nj9u33>0m029z4%%w9f3ee52=3dzf7>>25u22>>%>>>$>2>54%>&xr035$>3uM434>4,00>,335>Vf50>>rq0>2>543>",
"2445%>22>%>o+%33>%%$>>>$#O>$%6,3r;;>Mmrz>4>4jr23z4%%52r3rrj>>>fu75;>35u22>>>2%>$>>>u4%;>lue45#>3ul334,4>90>2335>Sfe3>&5u0>2244>2",
"2>34&>3>;%>O#%44>$%>-;2>#O%>%024r>>%MMuu>4>8fr>5N4%%42r3uu03,3fu70>;20622->>>>>$>>;44%->jfu35$>3dj282,23u4%>430>ffr3>%4e022444>,",
">324%>3>>%>@#%55>$>%;;53#.$>2>34r#>>Mrux>3>9ju25N5%%3204d00233Nf3e>$34524->>>>>$>2>43%%>jfd95#>2uM245333r4%;536>ufa4>%9q0>3244>>",
",433%;3>>%>+$$00%#%%;>42#.$>2>240#->meuz>3>0m043a0%%5>e7u0e>34ff4S>%254>3>2>;>>$>2>43%%&ahu55$>,ux5r994304%>536>xhe4>%rq0>,345>>",
">442%>3$;%>+#%9u%#%%,%42#.2>>>23r#>>m0uj>2>0m934ur%%0>e5xru>>4rfle>>24e24>,>;%%$2,>45$-;ffu94%>,rl05q833r3%>634,Vue5%+ru9>>443>2",
"2433&>>%>%>+$>3q%$>>>233#+2>>>35u>>>Muuj12;0x029ur#$02w5cua3>4ruuu3>>4a32>>>>#>$>>>50%-%effw5%>2df02803,e3>>534>zuu6>#ru0>2453>3",
",433;%>%>%>O#>40%&>#>232+#>>,>250%%>Suru>3>5x930u0$$01e4cff3>4Nulr>>>0u32>2,&>>#22>50%>%efaw4%22ux0<442>r3>>534>juf4>#re023083>3",
",5,>;%2>>$>O@-50>>>#>>2>$O>>,>259%>>jufu>4>rzr>5e0%#4>e4cf73>3Nfj5;>>eu32>2>$&>#22>ur$>%urur4%>,dj5<38>302>>5342ffu5>$r00>3502>2",
"33>>%%2>>%>O#>44%>>$>>>>#.>>>>>20>>%jefu>4>uj9>0j8>$4>r5xf03,4Nfj5>>>e542332$%>$>2>u5%->auer5%>>rcr3>83,05%>5342Mhd3>>r7r>>5432>",
">>3>$>,2%>>+#>30%&>%2>,>$X>>>>>28>>>f0fu24>0d435M4>%01w7j0u2>5Vwrx3>>0042>3>$%>%>2>u0%%%afer5%>>rcr3>4>3r0;>5342fff4>>8u5>>8342-",
">83>%;22$=>O+>,0>>>$2%3>#X>>%>,35>>2xefu35>ez434N92$5294M0a2>5Grdx2>>0e>2>>,#$,%>,>50%-;uzu65#2>dur233>35w->5342uhf4>>rq5>2833,2",
">833%%3>;>>+#>25>>>$>%>>#.,%%>330>>>ferj34>rx430z42#53r4j0u325b0fj>>>0e>4>22#$,%>,;5r%-&azuw5$e>du5,32>350--5232ufd5-%0q034032>2",
">823>>22%>%@+>23,%&#>%>>#X>$%532r;>>x6uf34>uf429u5>#03w4f7a327x0as>>;5u>4>22+$3%6>>4r%>>afdu4$5,fjr232>208;-0>2>Vfj4>>8q034542>>",
">3,3%>42%%%O#>>33%#$>%;;+O>%$>>>5;2>xefj43;4f424j42#03w5f5a4>5j0ja>>%0u43>>>O#3%62>4r>-&rheu4$4>fx03>3>,re>%433>Vfj3>-9y03333<2>",
">322%>32>$%+$2243>$%>%>>++>2%,->4>>>l0fS44;5uw33l42>64w4u4u4,5f9u3;>;7u>4>>>O#3%63244%>>ehqu5%4>uz03>3,3ur>%534>Vrf3,%9y42443,3>",
"-3>2%&22>%%@+-,42>%%>$2>++%2%;>24>>>z0hj33;0ar39a52$0305uuq227f4r7->%0a>3>>>##2%68%u5%>>ehuu5%%%ux03>4,30f>%525>ffu2>-4e53385>>>",
">4,>%%>>>%%#+>>33>>%>$,>#O%>=>-35>>>lrhb23>0ar40u4>%030uba7,,7z4j7%>%0a>4;>>##3>08>r5$>>rf0u5$>%fc53>4>38u>%5>3=rfu4>>3y52335>>3",
">3>>%%>2%%%#+>,32;>%>#2>#+>>>>>35>>3Nffz33%rdr4we42%620exa72,5b4j0>>-uf44%>4%+5%00>r4#>>ufeu4$%$fc54343>rr;$439>ruf3;>9e0>2332;2",
">3>>%%>%$>%O#>,53%%%>#3>#+>>>>>342>3Nffj33>0f92ru4>>6254xu7,37v3j5>>%rf43%>5$+,=2>245#>>uh0a4%%%fc0424,>re%%430>rfj2;>8q0>>5<2>>",
">4,>%%>>#>%##>2r5&%%>%3,$O,>>>>332>3Nufx24>4l9,ru2>>63e3ru745qb9j5>>%9j33>>0%+,=32325%2>uu0r4%->uj03>52390>&340>fff2>>474>>53>>>",
">42>%%2>$+%++>,er3%$;%3,#O>%%2>33>23Surx>4>5x03uu,>>55e30u545eM4ue>>#0j4>#>e%+2%2,334$2>uuuw5%4>dj0423235r;>330>ffe2>%5a3-284>22",
">332%;32%+%@+%,rr2&%%>3>@O%%>2>34>2>Serj3425ju3ua>>>56r3ue5455b4uu>>#ej33%,0$$2#e>350%2&urur4%;>djr422224u>%444>fue2>%0a,>384,23",
"-322%>2%%#%@+%>05#>$%%3>#.>%>>>43>22Seux33>rzu4ed,2>44u4u553e7j0ar>>%ef23>>>%$>#5>350$->ffu05%>>uu0032228r>%3302frf4>%0u2>2522>2",
"-,22#>2%$$%O+%>09$$=%%3>#O2%>3235>32jeuS34>0xr3uf3;>44r4w74,yej0ue>>%5d23>>;%$2#3>;40#->uhu95%>2fd082<,20u2-3>r>frd4>-0u2;>42>2>",
"-,>,#%2;#2%o#%,00%%>#%%,%+5%>3,34>22frwS3524au2fu32>04w50e23qeM4ur,0%0j%22%>%$5$3,&06$->efu03%3,ff0332>34z>%2>e%hrf52>9a3>>42>2>",
">2>,%%2>#>%+#%>55%$%#%%2$+,>%43u4>2,x0rS3305lr4eu2>>66u4u032feV4u0,0%0j>>3%;$%4>r3>04%;>xur04%4,fj0>03>,3j,>33u>hhu4->0j4>>4>23>",
">3>>>%2>#>%@+%,33$%%$%2>$+,&$4>u422>G5ux33>0Zr>rd3>>55940e45urM4f02>%ej>,>%%%$>$w2>04%>>lfe55%>>dj0392>>4x>,42r>uhf6>>4j4>>2>22>",
">3>,%%4>#>%@@%>33%%%%%>>%+2$$3>uu%23fewz34%4Sd>uu4>>4353ea35eev9u02>$0f%23%-%%>$r3309+2>jfr44%>>uj0343>>4x>>32f%uff0>>0x4>$3>,2>",
">5>,%%23#%2#@$>35#%%%#2>%O2%$33592>3x0rz>4>0xx3uu2>%04024y,5eaz0f0>>#0f;33%>$%>$34>50+2>az745%>>rj4452,>4f>>33f2Vfa5>%0j42$3,>,>",
">4>,;%>3$%%+O%>24%%%$#3>$+>=$3,04>23fe0z34>0zzrjr>2>04r>5u37eau0e0>>#0u>3>>>%$>+44>57%,2uh745%>>uj0243>>4l->44f>fzuu>%0a3>>2>22-",
">3>2>>33%$%+O%>,0%#%%$3>$O3>$2>03%22du5u44>0ccrxu3>>54u27e37euu0e0>>#0u>5-%>$$>$34>5u%>2yfq49%>>uu9>33234u>>434>urua>;ru3>><>22%",
">3,2>;2>#2$#o$>25%$%#$3>$O3%%2>04%2>je5S40>4jMrMu2;>54r4je,77uj570>2%0e>4>%>$$%%3335u%>2lhu95%2>ux4,323,50>>329%ur5j>>0a22>>>>2-",
">3>2$>3>$2$#O$2>5%$%$%3>$+,$$2>e9>2>xe0M24>2jxrlu2->54u3u0375dz457>2%0e>4>%>%#;%4,325+>=4jr55%>>rx43>3,38f>>2>0>ff7x-%9y423>>>>-",
">4>2%%42%>$@X%,>4%#%%$3>#@3%%>>e5%2>xewz>4>,ecufu2>>94M,y745ujv45j%>%0u>52>%%@>%3>>40+,3czr93%2>rf3>>,338z4>2>4$hzre>>0e424>>->%",
"34>2%$33%>%#o%2>4%#%%%2>#+4$%>,e5%>>Mrrj25%>axrxr>>>645>5545afv53j->%0a>,%%%%#>#3>,47#>3fzu43%3,rj3>>>>34z4622r2uu0e>;004>42>32>",
">3>2%%33%%%#.%>>5%$%>==>#@4$%>,e4>>2jfrj34%2ujux0>>>550>4335uub5e7-2%ea>42&$%%%#2>245$>2jzr04%3>uc4>>3443f4423r2df0e>%443>3,2322",
">322;%>3$>%$ %2>5%%%>%>;+#4$%>>r4>2>aurz33%3rjuMu>>>33e%243qeaM0q5>;%ra233$#%%>#>3257%>2jfar5%2>rM52>2553u0523w2uue5>$54>3822322",
"2332;%22#>%# $224%$$=%*>@#2$%>>u3>>2xf6z34%>euxxr%%241r>33,yeeV0a5>>%ru>44%$>=%#>324q>>4juur3%>>uz52>543>u0w234>dfe5>$453403233,",
"242>%%,3$%%+.$>20%$#%=>%+#2$%2>u4%>2Zu4u44%>umxaw>>341r&3,,ee7Vrj5>>;rf>44%#>=%$,4>40;>5xuur4%>2rl32,4332e52>302fflx>$47%553323,",
"234>%%34%%%#.#>20%##$=>>+@3$$,>u0#>>Ne9u34>>uVNx0>;>40r&4>20euVrj5>>;ua>43%$>%$$34>50%>4juuw5%>2qx4233324u52-2w2zulz2%4u%5833232",
"2422$$34$>$#o#228%###%2>#$2$$>>u5#>>x09r34;%rcMj8>>,43u%34>qezV0j7>;%qf33,$%>%%%r5240>>2au764%>>0x8,53324f4>>393fzMc>%4u>5432222",
"2322%%24$>#+O#>>3>$##%2>$$3$$>,u4$>%l59x24>%rSVu9>>,03u%,3>5exV5l0,%%0u232%%>%%%>4240->2fuq63%>>um4354323f4>>363dvSz>$4q>042>22>",
"342>%%23$>$+o#>>9>$@#%>>##2%$32e4%;>ju4b42--rNMf4>>204u%,3>7efD4a5>$>0f333%%2>%%>,,35%>4juu6>%>>rf43543>2x4>>593uvml-%5x3e4>>222",
"23>,>&43%>%O+#>>0>$+#%,>##,%#2>u3%>;au5M4>%2fNlar>4454z%232q0dF3u5>>>0a333,%3,%%>4234%>4fzu5>>2>fM4042>>2f0>>452uzMz%%5a,;322322",
">33>>>3>=$%@#$>25>+###2>#$,%#3%ar$->me6b42>2wMjur=4,44z%>2205zF4u7--;ua233%$4>$%24230;>4uzu42>3>uf3342,4>u5>%442uz4f;-4a>>922322",
">33,>&22%$%@#+224>+#$+2>##,%+,2jr+>=M00b42>20xjyu%4,44b>2347exM9u5;%%ee>43>%3>$%>4220%>3azqw4>3>eu,33433>0r>%544uj0f3%ra>>>2>223",
"333>>%,2>$%@@#,35=#@#$3>##,%$>2u4%>%Na6M4>>>5flau#5344j>23305xv9x5-$%5e254>$22$#,423e>>%eee04>2,ru,22053>wf>%546qv0u3%ra32>>>233",
"3332>;>4%$%###>34>+++%4>#$3%$>3u3$>>Mu0M4>%>ruzjr#6344j>>,400jv2l7;%%4u>54%#32$%>3>>u>>25ruw3>>,ee333352;rf>;995uz5a>$0c>5>22>3>",
"233>;>>4=%$###,34>$#$%4>#%5%$;3e3$-%ferV42>$0jcx9$4294j2=3300jV3j0%%;3a>53%$53%$>>2>u>>25ua02>;,fu43544>>uf>$04>Mb3u>>4a33222>3>",
"343>#,34*%$@%$>45%$+$%4>#$4%%;3f2%-%l0rS62>>jfMx9>3>45f2=3,7rzj4fe$%%5a>52%#53%%22>>u%>20use1>-,df,>733>>rr>%453Mj5x%;9a,232,,2>",
"243>%>>3>%=$#$-40%$@$$23$%5+>>3ar%;%jerV43>;0uNj4>3,36u2%337azv5fu-%;0a>52%+5>%$33>2d%2>efew2>42au2>3,2>25u>&044dV7m$$0a>232>,->",
"242>>2>2$%%+#%>,0%$#%$3%@%4#&2>s0#>&f3rb59>%5rNa9%3353z3>44afSFrue>%;0a>43%#32%%54>2u%>4uzu01>4>e0>4>>,>20u>%013ah5N$%fm>232>2%>",
"34>2>,32$$%+#%>30%$#%#,$#%3%%>>f0%>>f4rj59>%4amj5%3343z4>44jfSFrfu>2>0a-33%#,3$%23>4e%>2rfu02>;%00>43,2>20r>$524uj3m%$0u>>32>2;,",
"24>3>332>%$#$>>45%%###,$#%3%&>2d0>>>x3ub49>%0uca4%>244j4=44uuMbruf>,40u>43=#,3+%>3>4e%>>ufe53>%%5e242>>>40u--444dj3x;#0a>24>>3>2",
"3333>332>>$%%>>45>%$$#,$+%2%>>2d5>>>x32z49>>9umy5%>>34u6&23uuxbrax2%>0u>52>#44+$>3%3e>>,ur5w2>>%4u44>>%%55f>>346ab4N%&5a223>>3>2",
"3324223>>>$%>->r0$%$$$2%+%2%%>3u9%>&c0uz03>>95Na8%;344u6=,3fuxbrfx>%>07>53>#43$$>324u%>3e94r2%>>4u23%%%%45u>>535ab5m%>4a2>22>,>>",
"332424>>%>$%2%,00#>$%$,,+=3%%>3f9%>%zruu53>>9ulx4%>234u4>,2frzM0jl>%>55>53>#53%%>30%u;>%au5w3%2,5u3>%%%%45u>2423ajwx-%3u>2>2>>,>",
"232437>2$#%#>>,r3>%%%$,,#%,>%24f0>>%aurv05>>4ujf3&->34u3=,2arzV9fz>%>5q>4,,>53%$>37%y;;=yc5r4>>,0e3,#&%%35u,2424uurx;%4u-2432>>>",
"<325472>%$=#>2,43%%%&%3>#%3-%25f0>>;ed0h69>29rlu2%>-26f5%,3aeMV4u0%$>5q242,$53%$22>%f;>4rz5r4>>20d3>#$%$44e23433aSrm;>5q>>22>>>>",
"233547,>%%%#2,>4>%%$>$5>+%2>%23a4%>>euef39223rmu4$>>2ru4%2,ufNV0e7%>>5q233>#52%$>>22u2>57f5r2>>4er2>##$$34u>2433aSrx>>4e223,;>>2",
"333035>>$%$#,>>42%$#>$4>@%4>>23e5$>>eruh442>30xa4%2>34ue%4>yfMVraa%2>0y2,4%+43$$3-22r2>50z5u1,>4f04>$$##32f3>3>2eA0x>$4x2,3,>,2>",
"3>2534>>$>$#,>>52%%#>$,$+%3;>3305#>>0aef43>>2eau3%>244zw=42uuNVuyj>%30e333%#45=$4>>2q3>,ef462,22a94%$$$#,9x4,313ebuz;-3e2>3>>2>2",
"33,343>,%>##,>>5>%>#%%>#@%3%>>409$>>0e0u34>>4ufe4$>244fe$3>yambrex>$20e343%%33&%40>2u3>2dj292>22x04%%###>3a2>32cuzrj>>4y>>4>>2>2",
"332354,2%>#+>%>0>>%#%$2##%3%>>258$>20mfu24>$4ffa2%2,33f4%>>qeff4uj>$>00344%$54>%42>3a>>3dv2w321,fe4%%#@#2>j2>42cfzrf>>4y>24>>>22",
"452505>2%,%#-%>4>#%+%+3$#&2%>3370$>>6xjb242-5uju3%>>44z5>2>e7Mz4uj>%200353%#33%%32>3l4>4uj303,>3m02%%$$$3,u3>512uG0f>>3e224>>>23",
"333005>>%>%+>>>3>%%+%#3+#=>%>32d0#%>4lub34>%40ju4%,>44z4>33qeSf3ej>$400>52%#3>&#22>3l2>3uj394>>3j02$%%%$3,a3>5>3sG6a>>30>34>>>2<",
">334503>%>%O>>,4-%>+%$2@#%>>>32u0%;>3jfv24>>3ruu4%2>44j2>437uMh40M>%2q0>44>#32>%>2>3l2>3ah455>23fw3$>>=%34z4>533jGeu>>9j>3422>32",
"2324553;>=%+3>35>#%+%$3##%>;>22u0$%>4jjz>2>>3rre4%,>34j2>4,7eVh07M>%25a>44=#34%%>4>2l>>4af4w5%24ur>%%>>%33f4;423aGwf>%35244>;>23",
"3435543>>%%#3>30>###>$3##=>>>23a0$;>4xxh22>>3rfa9$3>>4z32437rVfueN>%25u242>$34%>>322e>%5uz403%>4u0>%%&%%>4x9%4>3ezua>;57>>4>><>4",
"33435523>%%#3234>#$#%$3$#%,>>42a5+%>4M0f34,;2fja9$2>23z2>34quVhzeM-%35u>4>%#23%>>3>2u>%5ah50>%>4ue,$#%$$>3f5;4124ful>>97>>33>2>3",
"2>22350r>%%#5345>$$#$$3$#%,>>32ar$%>5mex43,%2jfa9%2>23z>%54jrMjh0M-%30e>52>%43>&,3>2q3%4au402%>5ur,%$%$%>2l055225z0l>287>>33,3>3",
"3>233323>>%#3344;#>##$4$#%,>>44ar$%>3MuV43,>3wxj8%3>4>j1>57jaVMu0N;>>55>52%%53>&>>3373%3au443%23e03%%%%%>>j5;5235z7l;%352>2>23>2",
"22>425>3>,$#,494;%%#$#2$#%,>>44ur+%>4CMM422,30xj0>3>42z>255faMMryN--25a25,%%4>+%,>2303%4rb333>2>e0>$>%%%>>j4>4234brl%%403>2-2423",
"23,035,>,>$#>555&%%@%+3##%>>>33e0#%>5NNM222>3rlz4>3,44f>357aaNbf0x%%>40>53%%>3@%,3>4q2%4yV343;22u82%2%&%>2x4>2234z6l>%4u2>>>34>4",
"23>5342>>>+#>533>$%#$@3##%=>>23qe$%;7NZM>3,>,rju9&4234b%374uyNhj7j>;>2e>34%$23#%>324u>%5uV344>>4u43$2%$%>3d4>2235z0z>%5y322,34<4",
">3>53322,>##>835>%>$$+4##$>>&>4qr%->5SSM43>;>uxx0>2232b>374aeMff0a3225a>44%%>4>$>>>4u>>4fu245%>rx43%>%$%>2u4;3>20vrl>%2e32322833",
",3>544>3%>##>083%#>$$#3$@%2>>>4ue;;>5SNM232>>0xcr&4223z=,e5eemfuux3>45a24,%%%3,%>->3u2;3uh2w4=>0f43%>%$%>3j4%333eV0x>%>0328,2834",
">4>444>2%>#$484>##>###3#@%2>>2,f0>;>5SNM222>>rfl0;4223w>45euexduac>>35u55,%&>3>%>->5u>52ah4w5=>9x33%2%#%>,l5>3234F7x>%>5254>2844",
"242444>3%>##e442#$>##$3##%2>>>4f0;;>4SmM2>,2>rjf9>3>4>0>4uulezduuN>%25q45,$%>3>&2>2402>3jz4r5%>4u43$2$%%24S5>3247brj>%2a>5822384",
",3255332$>+#r253%#%##%4$#%,>>>4uu>;>4CmM3>2>>rxf5>2%32w>5yufeuduum>;37u543$$%3%%2>255>>>jh455%;4a32$2$&%>4S0>4355zwf>&352402>284",
">3,55,23=>$$r402%#%##%4$#%>>>>4ee>%>3NMM42,>30ma5>2>33u$5aeuquzruN>,20f544$+%,%%2>>45>>2uh>54%%4j4>#2%&%>4N0,4250bef>>442>4<>354",
">>,45,33=>##050>%#%$#=3$@%,>>>4r0%%>4NMV4>2>40mxr%2,34u>5auu5uMuuM>>>0f>33%%$>>%2>>3q>>3fh259%%3a3>+2$%$%2N025355Mef>%45>>322444",
">>>452,>>,##358>%$>$$%2$.&2>>>4qr%-;3Nmb32>>4rlmr%>245w>5auudrurum->25a;33$=%>%$>2>40>>2ub354%%8u>3$2$%%>4z6>4445b0f>%3q32322424",
">3>25,23>,#@354>$$>#+%,#.%>>>-4e5%%>>mez32,>4exc0$>,450>4fyua0urax%>>4u;33$>$$%$>2>47>>>fb454%%0u>4%2%$%24l424457v0d#%3j%>32>3>8",
">3,25>>3,,##242>%$>@+%2#.>,>>;4u0>%>2xuz3>>23uzx0$%>444>4auel0zzeM%%33u>34$>#$%$>3>4y>%,jv5r3%$0j44#3#%%23z52534qb0f$;20%>4>>3<4",
",4,23>>>>,#$,5,>%$>++%2O.25>$>>a8%%>2xuz33>>3dzl0$&>430%5sf4u7xjem%%34u423%%#$>#>2>4u>%3fv503-%rj43$>$%%33l4>434uv0f%>>03342>443",
"24,23>3r,>#$,5>%$$>++%>%.,,>>>>a9>;44luf43>>3ujz9%%>445%4af5ueMz0m%>34r>34$%#$&$>3>4u>>4fz209>;0z53$;$%%33u3>534eb0f>>>u3>>3>393",
"2>>43330>>##>5>%%$%##>,$+>3>>3&a0>%>4n0u33>>>rMSj%>>445%5ey37uMzeN%>30f>34$$##&$,3>4u254jz305>%0x42$>$%%04d3;523rb0N>;2u3>>2,408",
"2>>45,80>>##,5>%%$%@#>,#+=>>>3>er;>>3mmz21>>,ucMf%&>344>q5u4eeMueN%>37a>34$%##%%22>4y,4=yv405%>0x52$>%%%54u2>433ev6N%%>u3224,355",
">3>44,50%%@#>0%%%$$##>3#+=,>%22er%->2Nmf>>>23uNxr>>23433y0q35ubueM%;,7u%,4&$$$$%>,>5y24>uF545%>0x82#$%%$50z>>333eueu>%2e2240>344",
">4>45240%$##>5>>%$$#$>4$+>3%%>3ue%%>2Vuh32>28ujcw>>214330qq34axreM;;20a;42=%$$&$22>4e2;2xF745%>rN4>##%%%40j>>412eu0r%>9j23442344",
"2424524>$$#+>4>>$$%$%>5$O%3;%>3ae$%>4Nej43>25rxM9&2232430e745ufruM;>37f233>>$%>%23>5y2;2xb3w9->rN4>$#>%%24f>>4>3ufwu%;3e33432444",
">3>4424>$$##>4>%%#%$%>3$O>3-%>3f5$%>4Muh33,>50zcw>1>4>420q744jSulN>;30u2>2=>#&>%33>4a2;2lv3w9->rV83=&>%$>4z>>323uzrN%>4u22>43884",
",>>43>3>$$##>4%%%$$$#>2%O>3>;>3f5%>>4N0z32,%55jcu>2>424250545uSrlN>>3qe224%>#%e%%3;4u>>2xv>04>%0x8,%%$%$29u>,333ffeu$>8y3>>43448",
"2>>43>32$%@#,4%%%$$%$>3$+>5>%>2a4#>-5x7z33,%50fcr,2>424240732ebulM>>3073>4%>%%0%%3;4e>>>jv,w9>;5x03#$#%$,00>>332uf0u%29y2>>43449",
"3>>45%34$%##,5%%&$$%>%4#O%5>%>>u4+>%5m0j45>$30zM5>2>4252q77>3ujfam>>3003>4%%%%>%23>4q>>2fh,w9>&4j43#>#=$455>>342uhwu>%5f4>>4>848",
"32>43>23%%$#>0%-%$$>>#4XO%7>%>>f4+>%5Z7d56,%90xxu32>44>>eeq>,ezfex>>2e73>4$-$$>%,2>3q;>2fh404>%4j33%%$>$4uu,>252dvua>%4j3>24>848",
"24>44,3,=%%O25%>%#$>>$4XO$5>$>2e5+>-5N7u49>>0adxr,2,4453qee>37Nu0x>%2e52>>$>##>%>,>40>>>jf403-&5l42=$$%$3rf2>343xjed>%4j3>>8>5<4",
"24>54243>>%+,4$>%@$>>;5$O=4>%>205#>>0x0f35%>rjuxr2>,2352eeu435Mruj>>2q42,3$>@#>>>>>5u;>>ff003%%4a55%##%#2uu>>333fuuf;>4f32>525>4",
">4>55342%>#+>4%>%##%%>4#.=3>%>>e0%>>5xjj22%>rculu2>>2432fua43euuuj>%,e4,23$2#$>>>,>5q;%2ffe03-%4l50>$$$#2fd%,444jbej&>9u>2>838>8",
">4>55343$>@#%4%;=$#%&>3#O%3,%>&e0#>>5lfz23>>0xfxu,%>242,jua,2fufux>%2e5>22%2$%%%>2>54>%>jh594>%5z032#>@%>ur->426lzej>,0l>2>83534",
"23>55342$>+#-4%>%##$%>0%O$>>&2>e5#%>4j4j54,%5xfju2>>442>a7a>3eezeN%>305>42%>$%%%2>>44>;>aze54%>5j53>$%+%>u5%>447dhuj>;0j>>>84444"
};
