/* XPM */
static char *_b4b648c433e406aec1b9f4210b23b67aapeLfuutpmVItwn[] = {
/* columns rows colors chars-per-pixel */
"128 128 56 1 ",
"  c #74755E",
". c #7D7D65",
"X c #7F7F68",
"o c #7F8066",
"O c #7F8068",
"+ c #808067",
"@ c #84856C",
"# c #87886E",
"$ c #88896F",
"% c #878770",
"& c #878870",
"* c #8C8C74",
"= c #8F8F78",
"- c #8F9076",
"; c #8F9078",
": c #909177",
"> c #94947C",
", c #97987E",
"< c #969780",
"1 c #979881",
"2 c #999981",
"3 c #9B9C81",
"4 c #9C9C83",
"5 c #989984",
"6 c #9B9B84",
"7 c #9B9C85",
"8 c #9B9C87",
"9 c #9C9C87",
"0 c #9E9E89",
"q c #9E9F8A",
"w c #9FA087",
"e c #9FA089",
"r c #A0A186",
"t c #A0A089",
"y c #A3A489",
"u c #A4A58B",
"i c #A3A38D",
"p c #A3A48C",
"a c #A4A48D",
"s c #A7A88F",
"d c #A8A88F",
"f c #A7A790",
"g c #A6A691",
"h c #A7A890",
"j c #AAAB91",
"k c #A8A892",
"l c #ABAC93",
"z c #ABAB94",
"x c #ACAC94",
"c c #ACAD94",
"v c #AEAF98",
"b c #AFB096",
"n c #AFB099",
"m c #B0B097",
"M c #B0B099",
"N c #B1B19A",
/* pixels */
":,>>>7d9d>0t*,Nr>,29*.,>,,,:>>>2>4**2***>>>0faz,j029>29>@,>19a2>te0,40j6tt2660>2y9ywwt,,2t21ht>*>,,>;>tc2,u,2f9>23at7,,2,>*&a>2,",
"*>>>,9a6a,0t*,Nt7>,2*#>>,,>*>>,>,4**2*#>,2>,apa,t64t*29>*,>>ta2>tt9396i0et2190,4yru34t,>2t21ta=*,>>;*1ja,tt>9tt*,9ct91>,,>#*a,,>",
">,,>,6j6a,0t*,jw6*>9*>>*,>>,>>,>:2**i:*-226<ai9,973f>272#:>69a,*ta7992,t49979t>292u3ry,>2y21tj;-*-;;=9c9,d4,6tt=,9va>1;>,9##t2>>",
">>,>-1j6a269*,a37=;,*,>>>>,,,,4,:1**9#:*,000aj,>929y>>>2#>*1eh2*ta09961tt9060t>,,49yua,,2r210j>*>=*,2tc2ay,>t9a*,9vy>6>=>2@*22=*",
",>,>>1j0a,19>,ua71>2*t*>>>,,>>2,,2*>2*>>:601wj>>t29c,>>1#,*6yj,*tti9e099,2e79i,,9rwjtu,,2r2,tc1=>>*>0jt2tw,>e99>>2jj>6>264@#,9**",
",>2,>1cih,09*,sa6,>2,9;>,,,>*>3,,,**,**:,*00aa>,a,ta,>,2#2>6aj>*9wa69t93,>990t,2wtaaau,>2a2>0c9*>*;7tc91r,,2i99,*,jj,7>>>9@*>e**",
">>,,,>Naa,09>,fw1>,>*9=>,,,;*>4,2>$*,***>,6tj9>2t269>,>,*9>6wa>>9aa16w9,>:9109>39rujdt>,,u2,7ct170,tct2t2>39t32>>9zt10>1>t#$#9*#",
">:,>,*j69>09>,j91*,>*2*>,2,**>2>,=*==>*>,>9tj9>194162,>,*,>6tp>12tt199,-*-,>1t*93ttjsr:>,a220aaiee9adi9j,,96a9*>*9aa6e=2,t#**7%>",
"*:,>,>j6t,99,,c26>2*#9*>>2,**>,9,**>***,**eaj2>,t,01>>>,**,6ai,77ti60,>>>:220t*94asjaw::,uy9>tcarw9ct6a9,t1ita>,>waa10;2>2#*#9*>",
"2:,>>*stt,99>,z99>2#*9*>,2>>*>>4,>;,=**2**6jj,:,94t,,:>2*>1>je>22ti674>>>*,269*9uujsr4:>>9u2>9jNcjad96t>461j2a>>,tzp60>>,2***9**",
",,1>>=jaa,t2-2j96>2*#,**,3,>-,,,,>22*,>2,12aj,*t9wt>,>,,*,,>a9>zejj102>,>>>124,yauar,,>>:,uy1iajcmby192,99aa23,>>aca69>;19*$#0**",
",22>-;aaa,e9>,c96=,*.,>=,,,->>>,>,29*t#,1,6ay,*ai9t>>:2>*>,ia9>j9jj2i,,,>,>19,,rss932w:>>3dj,e2twatt2a>9ejat9>>,>jja66,*19>@#9**",
"9,>>->tpi>99-,c96>,*>>*>1,,;*:>>,>22%t@>2,6at,*t1yd>,>>>*,>0s,>ataa69>>>>,>22,,wuatuwr>>>,4a27tiitt69y>6aaw9a;-,,zat626>,2,@@t>2",
"9:2>:>9ap>ee>,z61,2#>**-2,,>-*,,,*,**9@2119aw:*t6jb->,*>*>;1h,>j9ap19>>>>>>49>,wrytyy9,->,2a2,ii0i0>a2,itt9t,=>>2vt9610,,,,@Xw>9",
">>1,>;2a9>09>,j6,,,$2*>>93,**-,2>*>**9#3>6ez9>>wiaN>,>6;*>*7j>>ftti19,,,,,>4,:3t4t3wtt>*:>4a9,72>11>a>9at99t>>,>wcet71i,,,2@#3>>",
"**,,,*2a9,aw>3a6,,>*t*:>94>>->,2,*>>*2&,>19z2>:9,9t>>:*,**=0j2>hait1,>9,32>,,-9www2,tu>>:,ra92,26229u>et99a>*>,>ajt96>i>,>>#*a>*",
"*-,,,*2a9,ut>2s,1,**a2,*9r,,>,2>,:,6*2$*120z3,>9,2a>9**:->=6a2>eap612>9att,>:>tww92>wt>>>,rut22,,,2a9,i99h,**>,,jaa96>t>,>,**t,>",
"*:2,,*4aatt9>9y1,1**2>,*92,>>>4>,>>2&a#2,z9z4,>p29a,,1>-,,=1a2>tpa2t,>9yau,-->tw,t>>3t>>>>tt4,,3aajw>>f2fa**2,,,cta96,e,>;,*>9,6",
",-,,,*a9j492,aj1>9#*>>1*2,9,229,1>>**a*,11pj3>>t29a>2,=*21>1a2>eti69>,wrrr,,*29442>>,t:>>,9t42,aytr,:2tt9>=,>,,9N9ut6>e>,>2*:,,6",
"2>,2,*t7rt2>,at9,,*>*>122,,>,92,1*>**t-221ta,>2p,9a,2,*@2>=is>>9ti7,>3yass,,>wur92,>,3-->,ttaauaw92>>i9t*>>>9>2tv9ut0,i,6,9**,,6",
",2,2>>a9y09:>aa0>,#9*,**,>>4>4,:,*1*>-*,>6ej3,2a,3t,,>>@2,,0a>*2t9t,,tdjst9,9yurr2,:,3::>>t4yasrw4>>2t9w*,>9:22sN9api>0;2,2-*>,9",
">,>3>>s0t9t>,st6>,#t>,*:>>>2,3>>>*,*>**>*7tj2>7i,99,,*,*,,27j>*2t2t,>aduart3tj9uu2>,,3-->:t,yaur2,>,1at,,2>>1,4cjtap0>0*1tr>*,,*",
"*9,9>1d2,69>2aui>,*9>1>*,,>942:,>>,*=;->*0ta2,2i,t9,,>t*,222j,*3t29,,tasaju9yr,tu,,,,>*-,2t4tdw4,>216th>,,,22,3nja3p0>6*,tt,$>,*",
":03,>>a2>i9,7hp1>**>>>>>>,,,,3>,*=9*>**>>0ta>,w0,0a,,>i,,267c,>ti62,9dua>aura212u>,,>:>:,9yrtry,,>t>i2w*,2,,129njata917*2>2>*>**",
">,,>>2a,>0t,2ha1>*>****1*,3223,1*=,*>#:>,,ta,,9930a,,*,*3660c>>tt0,:rat,2,tra61,s3>>>>,,>tyrr4w>>219t29->,2,2,unjhus910*1>9>#>;*",
"*>2,;2t4,9t>2jt6>*2*>>>,*>4>2,22:>,*2*->>0ta,>2920a>>>,*210ic>,ttt,*4a4>,,aa9,1,a,*:>,,,3urwr42,,99t992,>,7>62anjhtj2>0=1,9>#>=*",
"*2,>*t09,aw-,zt6>*2>>:2>*2,,>,91:,2=,*>>=0tj,>9939a>,>2$210ez>,at02-ra22,1as2>,2s>->>>,,wrrrt9>,>7i92t;2>22>,4jNcsta2>6*2>9>$>**",
">44>=f6t2at>2zi>*:a>,:9>>,29>>27>,2;1#31>0tz2>2939t>,2a#,,6ez>,t904,ta20>2wa2,>2s,>>>,>,w4tryw,>,0t2tj>>,22,>rjNjauj916*,,9**2;>",
",42*;j9t2t9>9j0,9>i*,:1>>>*,,3,2>=,=9#42>69a2>,9,0u,,2f@t,1tj,>at02-aa,2>24t2,*2a9>2>,,,94rry,,>3a92j>*>2>,,:tjjtaaa060>,tt**2*,",
",>2*,j237e,,4j>>9:2*,>,,>1>,22,,>22*j>9>;2es,>,t,td,22a*>,7pj2*ja09>au,1>,9t,112y3,2,>,,9rywt,>>2h2a,=>:,,,1,rjctjua966;,62**9*1",
",>,*1j2,09,:ta112@1*1,>,,12>>,1*:>>*t>,>>7ta2,,t20a,,2a*:>6pj2*jt07>jt61,>9t2979u,,4>>,>rrtwr>,*ettt**>>,,>27tjNtjra916>,6,*#9*,",
",:,>2jt,t9-:ha12,$1*1,>2,16>*>0>>,**,-2>*2ta2,,9>6j>,2f*>12ph,>c9922t99,1>2t922su>,,,>>,9rwr3>>>7fh>*,>>>2>,2wjNhjut0,2,6,2*#9*-",
",,>-1a22it*>aa>2t*>*,>24,,62,22:>2**,#,,>10a2,29,,b,29j*,,6eh*,j362,a4>>1,,u4,au4>>,,,>2trwt2,>,f9j*>,>>:2,,29fNjht96>7>214**0*>",
"2,-=t992tt>2at6>9*,>>:2,>,1i92,:>9**3*,,>1ta9,tj39t>2*2@1110z>>29t72a9>22>2t4,ay9>:>,,>4ywwse,>4j92*>>>>>2,,29jNjstt610,2,9#X1*:",
"22,>s9r209>,jt6,>*,>,,22>>>20>>212**4*21,66ta:29,at;>:,#,>16a2>2ti2,a2,96>2,2>stt>*>,>:3urrt3>>tf,2#,>:>921,,,jvzay0616>2,2*:>*:",
"9,,2j992t2>2zt6>-*,*2:>22>>>2::>>2**>*2>>06ja>1t,jw*2>>#2,60j3:,tf9>y2>90>2>,2aya,**->:3wwrr>,>eat>-,,:>2>29,,anzsy9i62>>>,*>**,",
",,>2c2>999>3jt1>**>*6*,,2***>*>*>*=*>*2>,00dy,,99au>,>,*9>60a3>>,p9,a3,66>6>,2uat9,>*>>93r93>,,9a9>>>,:>,2>2,>tvjau6e61>>-2#,*2:",
">,>9j9>09>>9j066**,*,>,*6>***#>;,*,=,#2>2z0dj>>t9ja*2:,#9,69j9,>,a2>ut,,1=6>>2suwy,>:>:wrw3w>,>6f4**>,>>,,,>,>sjjty9e01>*>,*,*9>",
">>*ay9>9t:,te711>$2&,>>,6>***>:,7*>,:@22279tj:-923j*,>,#9160ae,;tt6>r9,,1,6,>9aart2,,,>yw439>,,6a9**>>>,2>>>2,jNctr0601,>>>*2;,>",
",>*at9,t2>2aa1,1>@1*2,*01*::*,:12**6##,2279tj,>223a*2,*@,>66ra2>tt2>92,,,26>29jjdtt,>>,4rt39>>,0tt-*>>,,>,>>2,tncyw960;>>*-#9*>;",
">>1d6a,e,>,ty61>>*6*2>>7,*>,::>2***9*#,2>00wj2>92tj>2,*#,,06ah,*tj2,t,12112,2arjawt2>>wyydrr>,,90a>*>>>,*,,,>2tcvtrti0,>=,*@2*,>",
">>,d6w0w>-,jt2>*,*9*,>*,>,>>,**,#>*9##,7>10tz,>9,ta;32*$,,62tj2>aji,a9>92>2,2u9dutr4,,yjsauw:>,2tt:**,,>>*,,>19jvtuti0;2>,*#2*-9",
">-1j22i9-,,zw7,*2*9>*,:->,:*::>>*>>9@o22>7etv,>r>3a>,,**>,16tz2,tt2>t0>2>>>2au9attr4>,tautdr>>,0a92**,,>>**,>2,zcaaeii>21,*#1,*,",
",>9j6,0e>,,cj1>*,#t*#,>*>:***>>>>#,3##9>>16av2*a;9j,,>**,712tj2>j92,t012>>,,ua9atyy3>,ssatjp>,>ti9j**,>>2>*>>2,jNattii>,>,*:>>*,",
",>tt9>tt>,6cs>**,+9*-,>,>*>**>,**%9>**2>>66ac1>t>9a,,,**>,>6tj,>7t2>r6>9>>>2aj2a2tt3>>ra2,at2,,9i9j,*>*-aj*>,22aNataef>6>,**>>>>",
",;tat2aj>,1ct6>,,*,>>>,***>,,,,*#>9@**22,76ac9,p>4t,,*>**>,70j,,2t3>r2,7>>>,2a22,tu,,3wt,,ttt,>909ty>*;2ta,;,>2yNjut6f*0>2*>*t,,",
",>a992t9-,,cw0*,>#>1#>2**=,>,2**&69X*>,1>fisj9,i2tt1,>***,,zia2>2i9,t>>6,,>22a,,,2r2,ert773ur3,,6t2tj-*t>3a>>>,aNjat10;>>,#2*>>2",
"-*att3p9-2,za7;>>$*t#>1=>>>>1>**>i9#$,>,>pftse*9tyt7,>;,*,170t0>>a2,a,>1,09t4t,,62t2,9y91,1ar2>>2at2tta21292,2,rvaai10>>>2+2*:>>",
">>pta2a9>32jt6>>2*@9>>,,,>>21#,*2p,#*,21>60ajt>90tt2,>*2*2,,64a>,p,*u,,,,99p9t,029u,>wy2>>>uaw2>>ia2,9t3rw29,22wjjya10>,>>#,*>,:",
":1ria4i7:,2jp1>>p#*,,**11>,9>>**ea>@*,22*20rha,2tw993>>,#22>1tj>,02:t,16,29at426>jr,,wa211,2atw,:6i9992tjj9t,,22acaj60>,,-*9*>2>",
",1w0ttt2,2,aa7*,t#**a**,1>22*,&>p,:%*,,2*76wst,>t9292>>9#,,>6tz>2a,>a6906>tat2,62uy,29t,96799duw,29ftytf0f9t,>22tNtj00*22;#t*,24",
">>cittp:>,2tt0*1t>#$a**2,26>=*&2t:##*2>9>j0way>>i979,,,2>,>>1tj,2t0>j01221aai,2>9tw2r3t6iti>0jtw9,6itaa069tt*>,7,Naa70>22#*>>:4,",
"-6l6rta,,23jt7*22,#*t>>,2,>*>*;99#.:>2>1>z0aaj,2i42a,,22#21>60z>,97>a166,2292,1-wt92y4t10ti2>2,at,96162e90jw>>>,,jha69,,>@*>*>,2",
"*2j6w999>22zp0,,,2-*,2*>,>*>*>6t,@%**9*2*j0tat,2i,,t>,>,@22>26j,*96,t206>6>2,62>tuw24dt299tt6,1,t9>23422>2j9*>422tha11,>,@*>>>,,",
"=7c,t292>2tzj,1,,2,$*9*#*&>,&1a2*X#$,2=2,i6taj,29,2t-2>>$2,,>1j3*9i,y2t9,,,>,69,du239l499dcyt07>1a,,>:>>,2e,,>,,2wcy66>>,#>>,*,,",
"=9c0t,t1,2hha>>11>4*#t**#*1**i9,@@##2196,06esa,2t,ta>,>>>*21>6y9>ta33,i92>,2,69,sy,,wd20ucNNutii19ttw,,>2,9tt*22,2ca60*>2*2=>-,,",
">tc99:i2,2jta>;,7>9##9&2,6**6ww>X#*@,292>76isa,,0>6t>>t%**2>>0at,ar9,t766>192072j332ts2ejcNjjjat9>tjarrtr>6fj>,:,2cs60>;,*9*>*,,",
"*tj99>t222cai6,>2,2-*,****@*t2:$X*:@2>0,>76taj,1t,9a>22*,*2,,6yj,*99>t226>1,2622arw,tt0icatptcNnct,122asa29a2j>>,1ju60>,,#t;**,,",
"*9d941t22>jsp61>>2,>*>>*@%@>t># #***4*t1>01ija>2i,aj>21*>*2,>1aj>*ti,t>161=>2,,2ju92r219ct920twtcjt0,1,9t9,0p,-,,2aa00>1>#t*>>2,",
"*1d092922,zat66,>2,,**2,***6t* @*$**9*i2;7>aap,,i,aa*3,*9#3,>19f,>3i>t,,70>>2,,9a43,r219c9>*>2t9tjdr9012,a>2f93>>,zj09>1$*p*>>,,",
"*9x949p>,2caa10>>>>2*@p,,,,t,@.##*#*t>t2>0>tjy,2t2jt>2>*f:,>>69z,>2t,u2167,>9,,9uw,,t31tj9=*==*>>6tjNj90>t>3et9*,,aj61,>*#t**>,,",
"*2N09292,2cat>0>,>29*#49e22t*X*@#*#>t>2,*7>7jj,2t,yi12**2**21>0a2>>a,9960i112,4tat2>u,1da,*&*****;*09ajti29,9it>,,jd60>,*#9**>,,",
">1c6t1t2>2cai17*2122:#*w0it9.%@*#$#>2>,,>660ta>2t6ri1,*>=*#22,1t,>>9,,96000>,2aaat,>a,1je,***;*;-*==,0jcp1y>3999>2e970>>:$9*;>,,",
",2jij9i2>,cai07*,2>,,$@,att,#@#:##$,,-21=6662j>>3tti2>>**>#3,*2tt>*t,>91i6e>,ttaat>:y26dt>*>*:*,,,>**>9zc9t2:2pz,>aa70,>>*j***,,",
",>wis,p3*2aup0j>22>,>@#*,au*#@$:#$#,,*1,*2004a,*ei,01-,,*2*2*26ya2>96,t>09i1,ytatr,>y>7jt>>,,>,224,::*>tNt2w,,pf>,as00,,>#t***2,",
",>a6a>jj,39ut7t>,2,>>@*@*,t#*#*:*$#>,>>,>107yj,*tt,22>,>*0*:,,6th,>96,s>iti>,uaaww>2u>9N0>>2,,,932>>,>*9aj2a9:it>>tu09,,-#t=>>2,",
",>i2t2pt*23ta6e>*1,>,@:#X>>@***>**#,,>,,>6e7yj>-ti429,>>*9**,,7ta,,,e>y2iti>>aaty4,2u2pb0=>2>>:>,2,,3,>>9l23t:i,>,tt60,,>#9*>>2>",
"2*90a>iw*22yt1e>=,,>2#@*X#:@*::-:*@>,>,2,*i1tc>>9t,ta,2>;,$*,191y2,2i,t079i1,ajuyt,wa2aa1*,2>>,,9-,,,3>>>j9,a,tt,,2s71,,**3**>6>",
",*9pw>9w*,9yp1i1*,1>9*X:*.@@*::$-*#*3,>27>e6ta,,2a2ta>2>>>**3,16ta,,i22609992juar9,ta1sy*>4,,2:>22122,>*,t9>t23h1,2j66>2**2=*>2>",
",*2j9,9t>2aap6i1=,,>9*X>##X#*:>@**X*,,*71>069a722t,2a>9*>>>$2>2>aj,2t6,e09762tw4ww,tt1ta*>4>22,1,:>,,,>,>1u1792tj>9a92>,>$,,*>9>",
",>,a4,99,,apt6i>>>>22*#**@**#*>@#@#:2,>2,>66wj9>>92,a,,-*#,,>>>1yc,22t,t7i9,2rtrww,y96de>,3>,9*--:*>>2,,>2l0>y2a2>2a71>>>**2**>,",
"4>,a9,93>>ta96i1=*,>,**#:@#@#**@#X#>2,>,2,119pt,*9,2u>,>,%t-*111tj2,2e,47i923uru4w>t29ca;>3>2*>>:>,*:,>,>,vi2y2z9>2j91,>2##9**>,",
"4,>a9>99*1aaj000>*,>2>*#***#**$oX#*,2>>>1>21tut2-9>4j>,,,>9*#2,19z2,2i,92t969tuuy9,t,0N9*>,>,>->>,21>,,21=aa6t>jp>,j01162#*9*>2>",
",*,c2>tz>,jat7ie1*112,*#$>::::$XX*#,,>1;2>1>aja,,9,9i,,>,*9#*9,6tj2*t92a2tt9ttyts9991tN2*>22>:,>,2,9>>>2>=9j2t>tt>2a91,6,@*2*,>2",
"2>1j,,jj22jaae6f1>,12,**@>>>:>@#o**>2;6;>,1>paj,:tt9t2,>>=1*X,2jtc,*t92w1ii6tytau9t41hj>*>37>>>22>*2>:>,,>,j6r,tt,2a06>92**2=,>9",
"3>9j2,jl22zst01z2;,,24>*@*>>>>##@**>9>>=>2,0pyj2>9t292>,>;,*#,7f9z,;a229,9a,t9tw99t42sp*,22>**2>**#*>:,2,>=j9939t>2j79**2**9*>>>",
"9>2y9,fc,7ccyi>f1,12,2>>@$**>:#*#*-,22*1*1>60uj2>ji422>,,,>**,,f0z,,a79396i6a9w99ww,1ue*,22:*,2&****1,>,:,*ai942p>2c99**,#*9*,*2",
"9>9tt2zj>7aNhj6e2,26,,4*#@$#*$@*#**>32*0>2>6itj3,li919,2-,***2,i9j,>t2e2t>i2ar2,22,32j2*>2,*>,**26>*,:*,,,-ah,2tw>2ca0*=4**a#>>2",
"3>7t2,94,2wNaa011,1,>2,:*.@X$@#*@>->,r>2,>,00ta3,9z,2e->$,*:@3>06j,*9,e,y>91at,,29w2ej,>>>,*,>*>,,1*9*-2>,;wr7y,9>,ct6>=9*#t**>,",
",>7t2>99>2,cja6>6;11*w2,*@@#XX*>>>,*2t1>e>>00tp9,>f,1y>>$>*,@4,99j2*2t0,a,26jt2,2ty20j>>9>,*2*,,**1*21*>,>*2j>a>t>>jt0>29*#9**>,",
",>2t2>e9,3,aNt2;7>,1>9w4>#@*@@***>,*9t4>2>,12tat2>f,2u>,$>*t*t>6tc>>,ti>a9>,sy4>9tu>7j>*49>,,>***>2*>1*>,,-2j1a>t>>jt01>,*#e*>>>",
",,,a,,a22>2tvyi>0>11>,a9*******>>,,*tyt2,>,,9ttc2>j,2d,,*2=a*9269j,>29z,y22,jr9wyry>9a**3>:>*2&O#*6>*2>>>,>6j9a>91,jwe>,9*#9**>>",
"2,,ta,a2>,2tctt;0>,>2,t,>*>*>*,,22>*4,t6>>,>7tjc2*t,2s>2*9*9*,79aj,>99j,9j>,swwtudj>9f=>,,>2**###*>6*2,*2>,9j1t,t2,cw0>>9*#e>*,,",
",>2t92u2:32uNtu20*,,6>t,,-***>,>,4,*,249>22;6eac3>a49a>,:,*9#,;1ps,,:2zr,j,,art9wur>rf>>2,*2***>@*=6*>9>,>,6j1t,t>,ct0>14*@t>*22",
",>,a42a2>>29Nau76*111,22,,***>>4,,>*>,,t,,>>66ta9>a,9a->>2*2#,*1ta,>-9z9>a22ayt9,y9>ta*>>2>,>*,,***1>*,1>,,2c9y,i2>cu,>22*:a*62*",
">>2p32u>>>22Ntl07=22;>294>>>>,,92,>>*>,222>>09paw,t>2a*>>2*2*1;1ty,>19i9>ru9aur43u,1tj*>,,>>>*,,***=>&*1,,,2c2t,t,>jt>>22**a*69,",
",,2t,2u>,>2,cat071>2>>2t,,>>-,29t2>*>*-292,>66eat>9,2w*,>1*2*9=6ta,>99i7>4arasaurt>>yj*>,e>*,*2,****,**,->>,x,r2t,,tt1>2,**t*1,>",
"242t,,p2,>,,jtt976*2>6,9,>>>*24422**#>*391>1169wa-2>9t=,>,*2*9=6tp,*49a2>4daaadjaw,1df>>>6>&>>91>##*>2*1*,,,a2w2e*,at>>6>$*9*>2*",
"9,2t4,a,>>,,hatt10;2=6*,2>**:,,922**#**,i>>7=619a*2>,a>,>1*,*1>0a9,*t2i9,9sayaasj91>ti>-,,>*>,92>@#**2*,*,>2a1329*2ce0,2,*#9**1$",
"92,a9,t,>,,,jjat17>>>1>,9>***>2,22**@*#>9,>2>06pa>2>,a*,i1&>*,>1a,2>at02>3aatajad91>tt*,,,>*>>i0,*@@%>*,>>:9a,,29*,cp7>92$$9#>2:",
"93,h9,0,>,>,tate66>*2>,,9:**#>:,,,*#.@@-2>,1>i6yj>,2ta>,6,*,->1>j2,>ta0,>2aysutts2>1aa=>3>,*>*90,*@@***,,>>ty2,9t,2ct0>>2**9*>2*",
"22,j9,tt=,:2tjtw07>>2>,>2**XX*-,>*>#@X@*2>,,,01aj,,9tt,>1,>>>>12j2*ata1,>4yua9929,>9ua>*,,>*,*60,*%@***>>>>9a7,9t>2zi2;>3@*9*>2*",
">,1j9,0t->:2tc9p661>,>,>t:#@@@*->**#@@O*,>1>>11tj2,79e>,1,>*,>29a,*t3j0,>29ua22,,>>0uj,*>,,>>*991>%#@**>>4>ty3,0e-2i961>2$*2**2*",
">>,j,>09>>>29v9a061;,,=,t-X**+#****@$#.*t12,>;2tz229wa,,6,>>2229h,*9tf12>,4ja>>,,,>ida1*>1>>;*62>**##**1,2>tt9>t2,9a00>,,**9**,*",
">,,d,>tt,>2,9c9a0>0*,9*,9>@*:*#@**@@**.*4>2,,19tc,,e4a>>7,,#,>6tt,>9ti72>,9aa,*>2,6ida2-,2->>*22>**@#*#2,,-a9t>t9,ts66214**0&*2*",
">,>d2,9t3>>,9c9y>>0>17>>2>***::@#*@#:>#*9,1>,>6tj2,twp,>02,@2,0a9,,2at2,:>ury>>>6,7ida,;29*99*1,=**@*,*1,,>aad>t9>tw>,0>>**0**,-",
">3*N02e94-:>2Ntt0<i>12>>2#:*@@*$@@$:#**&r>1>,*7tj>>pwi22pt>@,>7s2>29h222*>t9d>**217tca1*>2$2=*>>*****2>>2,>ti,,a2,jj>;,>,#*7=*,*",
",,>u2,1t2,>,2zari1f>>,>>p**&*X#*$*:*##*#2>2>>*fia,*tri22>>>@2>6j,*2ti104*>ttj:*,,>6tcs,>>,*2**>=@##*=2>>,2>ja2>t2,jt2>,;,@@9;>>>",
"22*a,>999>,,,jjyt6e,*,>>2##XX#X@:*#@@.*@>,2>>>e9t2*tra,2:*,*9>7j,*9a6103:,4yj2:2,109Na1=,,:2=%*%*%#*>6,>9,>c79,912ati,,*,#@9=>>>",
"2,*a6479w>:,,Nzyt001>2;1>*#+>>*X@@#@@$*@>16*1,0>t9*9at>,>>,*2>ea2-9j10tw>,>eat232109dj9*,,,,**%%%**>6>,*,2>N9329:2at7>,>>**,*>=>",
"22>t99>t9>>,,cjai661*2>,>*@>9w2*XX+@>>@@>4,=1,6>u4>9ap>2*>2*,>ta,23t1109,>>9yar290ttdct=,,>>-*##**,61*2:,2*a2,92>2jt0>,>:$*,;>>>",
"29>a69,tw>>2,jjjt666*2>2-*$ttet3:::>4,X@,9,*,,61ya,99a>3>#>>119a,2t7020t9>>2raat960tuNt=>,>,*2*@**>=**2>>,>j2,92>,c96,,,>$*t*>>>",
",r,t,a,i2>>,1ajht766>2,2#O202,att92292.@,e>*2,70ut>9wi,2>#>>>199,>a9219t9>>,rjat9>009ma1>,2>22*@,1****>,>>,at,29>,zi6,1,:#*,>>*,",
",r>769,a4>>>>tcia161>119##9>**>pa9wtt9@@,9>*1>06tt*19h,,,#*,>6a2*af0919i9,:,rdat9>609xj2-22>2*,*1>*-22>23>1tt>tt>9p00122:#*2*,-2",
",9,9a9>tt*->29Nty611>,,,#*6#***1099tau@$,9>22,f2tt,,wb>91;*,,6a,*9jt92tt9,*>taat9>20tac6>,,>1*1,2#>99t*e,*229>tt>9t09>92,##9*,>2",
",2>6h2,jt->,,3Nat96,,,>,*2*=,1**>2e9tr#*>9>2,*j0tp,zuN,>2>*,>7e,,,t991929,>,9yat9,>0itbi>,,>>,*,**2,,1:19,22r,a9>wa90>e2,##9*2>1",
",>>6j,3it*,,22cau06>,,,**9*=**>*#>2t9t@**2*1,;f9at>jjt,,2,@>,0a2*9i29611t,>>>yaa21*6itmr>>,,:,*#*1,=,*>23>a>a,t2>tj9t,9,,@#0*>>1",
"2,>1s2t09*,,23Naa00*112*.,2*1-#,**>9t4@**,:11>77dw>z3u*,*,@,,6y2>,09991103,-:rat,6*,0iac**2,>,2**2,>*$>>4*a2t,t2>aj07>1,,o@9*-*2",
",,-1j6tt9,,>>2jasi0,>,2#*=*9>2***#>7ttX*#2>2,>06j2>j99>>*t*2>6s2;26992>00w9>>9st,91>6atN0<,,,*,,2,,*>>2,,>a69992>as0,>>,,o#9*:*,",
">,>>a2929j,>,2atse0**,,@2**>*>,*,**2t2.*@2>1,>0ea3>0e9,,>j*>*6j2,t9999>909,>,2ut>9>21iiat2>22:>>2,>>*:0,4>a6r69>>at61,,,>@*t*>*,",
">>>*pi9>tj*,>,ata01=>>,@2;>,#>>>*=%2t2@*#2>2,>1ta>4t97,:6t*>>2h,>e6ttt1i61,,>,ra2>r,,ai9za>,>**,,,>->2,>,>t2t2t>>jt62>,,,@*t*>:>",
"1,>*tt9>tt>>>>jau61>,,**,*,>::=2*>*,t9##*,>6>>>ej>99,22,>2->16j,>e69990i0,2>>>tu92t929e0ct;,>*>***2,202>,1j,97t-,ht0>12>,@$a*,>:",
"9>:>,a2>t9,>>2zar07>>,*:**>>:::,,1*,i,##-2>,,*>ic,29t,>,>,:>16j,;269990jti12,>9ur9tu216etj1>3,>>**>,029,,,c>39t>,ju1>,>2>@#2*>:*",
"i23-1j9>t29*,2ja99f,>>*p#>*>6>>*96*>a,**>9>,116tz,2t6,2*>**>1tj,>,2e460jfj29,>2t9tdd,>>29c9*,>,***,6>,,2,9y,3ee>2at211>*,#@9*>**",
"24,->s2,2tt>,>saa67>;,@2>>*222>:2;**p>>#33*1116az>29>6,*,*,269j>>209,62jzf00,*,w9ads226>iat*>,>>**91>2,2>ar239t>,lt66,>>r*:9*,*2",
">,,>>a>3,ta>,,cjt172>,@,>,*1,,>>,***t**&29*>26itz>t2,2>>9#,269j,>t09,96aff99,*,9wdjat2,69tl>*2>2,76>2,,9-tt9,192>jy91>>24#:,;,,:",
">,,>=s>3>it*>,ja0>1,>*#,>>>>2>2>>,6*t##*4>>>27ida,a,,,>,2#,,19j,,t0t,70ahfi9,>,9tsjsaj2,>ec2*,>,12>,4>4>>j9t>2,-,ct60=,,9**t,21*",
">2,>>s,r>t2>,,jy60>,>*$;,:,,929*>2>%t#@*9*6>,66ja*e3t*,>>*,>1ts,,t62,t0fjai924>9udyadsht,idt*,,2>,,,>>2>1u7a,e2>,ft10,,,w*>t*-2*",
">2>,>j1a>i9>2,c960>1,*:*1>>3>2,*>2*#9$#*9>6,,60y9>e49,>*,*,>6ta>,t6:,t7jjha292>,tartjjsy26tj>>t>,,,2,2,>2a,a,79>>jp66*1,9>>a**6>",
">2,>>a>t,t99>2za06>22%**,,>,,2>,>2;@9#*:9>,2,9ta2292t>**>*>>6aa>2p6->9iajaf1e9>,tu9rrujd9>tc,>4,:,>>>,>>0d2r>29>>ct0j>1,9**t**2,",
",,2>>j6t999t>,za702>2*,*>>,>,>,2*>*#2@*>21>2*69t22t2a>>**>>>6aa,,p6>:0zufff1t3,2ryry39ruu,9j9;,2,>,,>,,>au2t>93>,jt0j;1>9**t*>21",
"209,-a9242at>,cs00,1,#,**>>,9,,1*1*%9#**22,>>0ta2293a>2**>,;0ta,,t2>>tzajaa609,2ruurw44ra91th*,4,,,,,2,1jt2u,99>,zt7i>,=2*#>*>>2",
":0,,,a2>y,ta>2ja60,12@2,*1,,3,31*2**9$**,6,2,6yp,p79t,,*>,;>epa2>i7>>9fhppf690,24ryruyu9ar19j*>44924,,*7ct>u>t3>2aaei>,>,*#**>*2",
">,,>,a9>u,aa>,ja16,19#,*-,:,>,2,-2**9***,1>>91aa:9929,>*#3>,6ap>2j7>>6aftia061,,,rrruwryra26a>>2,,,,,>>9a02y,ir>2aat0>,,2***1;*2",
"*,>,,at6t2pa>,va2,>>2*,**,,>,>>1*,**9***,>2>01te>933742>#9>*1jt>2t,>>9jj67i016,>w9truyt99s,9u1*,,,>,,>=eu62t,i9>,yjt01,,9*:#9**2",
">>>2>2t9j2at*,vs1>>>2#>*>2,,,,,,:>**2:**>>>17ij9>9202,>,#,,*1at,9t,>>2jz6600762>y9y4at99ws22r,;-2,,,,>>at1r22at>,tj00>2>9**X9%>,",
",>,,*9j7j>ja*2zt>>>>>@,*2,,,>,>2:>#%9>*#,>,6>9c220412>-,@2,>1h9>9a2>:7zj766010,,ur99y9339u2,t2>>->*>,>>dt1j99aw-2tjt0>1>3**.a*>,",
":,,>*2a2s>ft*2cr1,;,>*%1,,,,>>>7:9*&9:**>;*j0tj2,9,2,29,@3,12a9>9t2,,9j926691e,2u4w4rt,,9r7>a9>*->*>>>9ct>t>9a9>29f97,2,2**@t*72"
};
