/* XPM */
static char *_ee978b3b2ee42ccc9c336ef2bf716a7ePwadFPebt73cWfk[] = {
/* columns rows colors chars-per-pixel */
"82 80 256 2 ",
"   c #3D3E39",
".  c #4F3A26",
"X  c #356E03",
"o  c #3C6D03",
"O  c #396B07",
"+  c #2D7503",
"@  c #257C02",
"#  c #2C7B03",
"$  c #2B750B",
"%  c #2C7B0A",
"&  c #267706",
"*  c #327504",
"=  c #3B7403",
"-  c #347904",
";  c #3B7A02",
":  c #34750B",
">  c #3B740C",
",  c #347A0B",
"<  c #3A7A0C",
"1  c #3B6A14",
"2  c #2A7614",
"3  c #387515",
"4  c #2D6F02",
"5  c #2A6F0B",
"6  c #475D05",
"7  c #555B08",
"8  c #555718",
"9  c #655C17",
"0  c #785C1C",
"q  c #695111",
"w  c #426C03",
"e  c #4C6B02",
"r  c #436B0A",
"t  c #486709",
"y  c #546B0A",
"u  c #576709",
"i  c #427302",
"p  c #43730C",
"a  c #4A7308",
"s  c #486916",
"d  c #536B14",
"f  c #5B6A1C",
"g  c #576619",
"h  c #467515",
"j  c #547317",
"k  c #58720A",
"l  c #67690D",
"z  c #666618",
"x  c #766519",
"c  c #68751B",
"v  c #75741C",
"b  c #544F2D",
"n  c #7C5B26",
"m  c #7A5633",
"M  c #69552F",
"N  c #586725",
"B  c #517028",
"V  c #696A27",
"C  c #786728",
"Z  c #67742A",
"A  c #757626",
"S  c #6A6437",
"D  c #766535",
"F  c #797636",
"G  c #6D7433",
"H  c #3C4B5E",
"J  c #555350",
"K  c #785B48",
"L  c #6C534C",
"P  c #5C6E50",
"I  c #7C6759",
"U  c #72714E",
"Y  c #4D4D65",
"T  c #685967",
"R  c #745D6B",
"E  c #5B6C70",
"W  c #686866",
"Q  c #78676B",
"!  c #6A7568",
"~  c #7B7669",
"^  c #696B79",
"/  c #6B7879",
"(  c #787777",
")  c #736C7A",
"_  c #8B6C1C",
"`  c #875A29",
"'  c #875B38",
"]  c #985C3A",
"[  c #8E542B",
"{  c #886729",
"}  c #976B27",
"|  c #87752A",
" . c #886738",
".. c #9C6C3B",
"X. c #976736",
"o. c #887637",
"O. c #967539",
"+. c #95732B",
"@. c #A96829",
"#. c #A1752A",
"$. c #A76838",
"%. c #A67338",
"&. c #B46B31",
"*. c #985D29",
"=. c #875B48",
"-. c #91594B",
";. c #876A46",
":. c #9B6B43",
">. c #976948",
",. c #867645",
"<. c #977645",
"1. c #886B58",
"2. c #986954",
"3. c #8A7457",
"4. c #967455",
"5. c #A56B48",
"6. c #A47448",
"7. c #AC7655",
"8. c #876D67",
"9. c #9B6C65",
"0. c #887566",
"q. c #977566",
"w. c #857779",
"e. c #977C78",
"r. c #A6756B",
"t. c #298202",
"y. c #338106",
"u. c #348214",
"i. c #788534",
"p. c #618114",
"a. c #6B8371",
"s. c #788142",
"d. c #85813A",
"f. c #89845D",
"g. c #898473",
"h. c #A68464",
"j. c #1C70AF",
"k. c #387BB5",
"l. c #2C72AF",
"z. c #397C9C",
"x. c #557799",
"c. c #55708E",
"v. c #69788A",
"b. c #777A85",
"n. c #687C97",
"m. c #717C98",
"M. c #497BA8",
"N. c #557BA6",
"B. c #4679B8",
"V. c #5378B2",
"C. c #647DA6",
"Z. c #3A7DC5",
"A. c #3177D0",
"S. c #1D7EC2",
"D. c #447ECB",
"F. c #4B7DCC",
"G. c #867986",
"H. c #3987B9",
"J. c #358FB8",
"K. c #578496",
"L. c #658188",
"P. c #668497",
"I. c #7A8895",
"U. c #4A87A8",
"Y. c #5786A9",
"T. c #448CBC",
"R. c #4C8ABC",
"E. c #4886B7",
"W. c #5788B7",
"Q. c #5793B5",
"!. c #4D93B1",
"~. c #6684A9",
"^. c #7386AA",
"/. c #6689B6",
"(. c #6498B8",
"). c #7598B8",
"_. c #6A93AA",
"`. c #73A4B8",
"'. c #5EA2B5",
"]. c #2A86C6",
"[. c #3C8CC4",
"{. c #3D86CC",
"}. c #348BCC",
"|. c #3C8CCD",
" X c #3685C6",
".X c #2895C7",
"XX c #3495CC",
"oX c #3C92CD",
"OX c #3997C7",
"+X c #298BD8",
"@X c #3E8ED1",
"#X c #3D8DDA",
"$X c #3688D5",
"%X c #2A98D7",
"&X c #3594D2",
"*X c #3E92D2",
"=X c #3495DB",
"-X c #3B92DA",
";X c #379AD6",
":X c #3B8BE4",
">X c #3793E5",
",X c #3C95F3",
"<X c #2D95E7",
"1X c #2B99D7",
"2X c #4385C4",
"3X c #438BC3",
"4X c #4384CB",
"5X c #448CCB",
"6X c #4B8CCC",
"7X c #4C85C6",
"8X c #5489C9",
"9X c #4393C3",
"0X c #4293CC",
"qX c #4A94CB",
"wX c #4B98C6",
"eX c #5A95C9",
"rX c #4A86D3",
"tX c #448DD4",
"yX c #4A8CD3",
"uX c #448CDB",
"iX c #4786D7",
"pX c #4091D2",
"aX c #4192D3",
"sX c #4192D3",
"dX c #4494DA",
"fX c #4994DC",
"gX c #4998D9",
"hX c #5695D9",
"jX c #558AD4",
"kX c #6F98CB",
"lX c #52A2D9",
"zX c #78A5C9",
"xX c #458BE3",
"cX c #4999E4",
"vX c #5197EA",
"bX c #4EA6EB",
"nX c #60A4ED",
"mX c #908E91",
"MX c #9799A8",
"NX c #8999AD",
"BX c #99A6B4",
"VX c #8DABB7",
"CX c #A8B0B3",
"ZX c #989E95",
"AX c #DECFB9",
"SX c #8AA8C6",
"DX c #97B6D9",
"FX c #96ADCD",
"GX c #A7B7C9",
"HX c #B0B5CC",
"JX c #9AB1E1",
"KX c #B3C7D5",
"LX c #9CC9EC",
"PX c #ADCDEA",
"IX c #A4D1E7",
"UX c #CFD1F2",
/* pixels */
"pXpXpXpXpXpXpXpX@XpXaXpX*X@XpX*X#X#XtXyX6X6XyXtX#X>X>X>X=X&X*X0XyX8XrX4XtX@X-X-X&X&X*XpXaXqX6X6XyX5X3XT.!.J.J.OXXX%X%X%X%X%X.X.XoXpXpXpXpXpXpXpXaXpX|.|.|.@X*X*X*X*X",
"pXpXpXpXpXpXpXpX@XpXpX*X|.|.@X*X-X*XpXaX6X6X6X6X{.|.|.}.}.}.oXaX6X6XyXyXaX*X*X&X*X*X*X*X0X0X5X5XdX@X5XwXwX9X9XoXXX=X=X=X=X&XOXOXoXpXpXpXpXpXpXpXaX@X|.aXgXgXgXaX*X*X",
"pXpXpXpXpXpXpXpXpXpX*X|.|.|.|.*XXX&X&XoXoXoX3XT.E.E.E.E.T.3XoX*XoXoXoX|.|.|.}.}.aXoXoXoXoXoXoX-XcX,X:XuXyX6X4X{.#X-X>X-XdXtX6X6XtXpXpXpXpXpXpXpXaX*X*XgXlXlXgX|.*X*X",
"pXpXpXpXpXpXpXpXpXpXpX|.|.|.|.*XXXXXXXXXXXOXT.U.K.P.P.P.Y.W.T.[.oXXX}. X X X3X3X2X3X3X|.|.}.&X=X,X,X:X$XZ.{.2X5XtXuXuXuXuXyX6X6XtXpXpXpXpXpXpXpXaXpXpXdXgXgX*X}.*X*X",
"pXpXpXpXpXpXpXpXpXaXpX*X|.|.*X*XoXXXXXXXOXT.U.L.( ~ 0.~ b.n.N.E.@X&X}.{.2X7X7X8XF.7X8XrX4X$X#X#X$X#X@X}.J.J.9XwX5XrXrXiXuXdX-X&X*XpXpXpXpXpXpXpXpXaXaXaXpX@X|.|.*X*X",
"pXpXpXpXpXpXpXpX@XpXaXpX*X*XpXpXoXoXoX[.T.U.v.( 3.>.:.>.8.b.n.Y.E.T.R.W.W.~.C.C.C.C././.V.F.7X7XE.!.Q.!.U.U.U.U.W.W.8X6XtX-X=X=X*XpXpXpXpXpXpXpX*XaXaXpX|.|.aXgX*X*X",
"pXpXpXpXpXpXpXpX|.|.pXaXpXpXpXpXtXyX6XR.Y.n.( 3.5.&.&.$.2.8.) v.L.K.L./ / ! ! ! W ! ( b.v.n.n.P.a.a.a.! ~ ~ ! E v.P.Y.R.6XtXuXuXaXpXpXpXpXpXpXpXpXpXpX*X*X*XaXdX*X*X",
"pXpXpXpXpXpXpXpX X|.*XaXpX*X*XtXuXyX8XW.n.( 1.:.@.@.&.&.6.;.L J a.! P B N N V G N S U U 0.0.w.w.U Z N 8 C ,.,.U ~ L.P.Y.R.5XaX-X*XpXpXpXpXpXpXpXdXaX@X|.*X*X|.|.*X*X",
"pXpXpXpXpXpXpXpXpXpXpXpXpX*X*XtX#XiXjXN.MX8.7.] @.@.@.#.O.,.S b S G G V g u y u i.u V ,.,.3.4.M A l k k y 6 g s.U ~ / P.U.J..X%X&XpXgXnXnXbXdX|.pX|.|.pXpX|.|.pX*X*X",
"pXpXpXpXpXpXpXpXpXpXpXpXpX*X*X#XcXA.7X/.MX1.>.%.%.#.} { A V f g 8 z z u e e e e p.e u A C ,.>.q u e e e e y c F ,.3.~ / _.U.J.;X&X|.|.dXgXaX*X*XdX*X*XpXpX*X*XdX*X*X",
"pXpXpXpXpXpXpXpXpXpXpXpXpX*X*X-X<X>Xk./.KXb ;.O.o.| A f d r > r 8 8 g s r > < < h X s N V ,.;.8 6 r t 7 z | +.X...>.0.Q BX~.V.6XgX*X@X@X|.|.*XaXdXpX*XaXaX*XpXdX*X*X",
"pXpXpXpXpXpXpXpXpXpXpXpXpX*X*X-X+XbXH.U.KXT . D D V z j p * + X r s s 1 1 : % % , : > s N G F 8 1 3 s d z C O...X.5.9.Q HX^.V.7XyXdXgXgXdXpXpXpXpX|.*XdXdX*X@XpX*X*X",
"pXpXpXpXpXpXpXpXpXpXpXpXpX*X*X-X+X=X0XE.K.BX  L S V f d h < % # = = - * + # @ @ @ - y.- w j j r 3 2 2 3 s g A O.:.5.9.R GX/.T.|.|.pXdXdXaXpX|.|.@X@XaXgXgXaX@X@X*X*X",
"pXpXpXpXpXpXpXpXpXpXpXpXpX*X*X*X;XXX[.E.M.^.HXJ U D 9 u r < % % + - - # # y.y.# + y.y.- = = i = , $ 2 3 3 s Z O.6.>.-.T NXW.}.=X*XaXpX|.|.pXaXpXpXpXgXcXlXgXpXpX*X*X",
"pXpXpXpXpXpXpXpXpXpXpXpXpX*X*X0XqXwX[.2XkXN.UXT 8. .0 q 6 o $ % # # # # , < < < * < < - = = * = - - - = a c | +... .K T ~.2X+X<X-XaX|.}.|.dXgXpXaXpXaXgXgXaXpXaX*X*X",
"aXpXpXpXtXtXpXpXaX*X-X*X*X*X*XoXH.9XH.R.V.JX^ G.q.<.| v y o $ 2 & # + + + : > O < < * * < - + ; + ; = o y A | 0 { m L ^ Y.5X+X+X&X|.[. X[.0X0X X*XoXXX*X&XXXoXoX*X*X",
"#X#XtXyX6X6XyXtX#X-X>X>X=X&X*X&X%X.XwXN.m.( 8.4.<.o.A j p * + & + * * * * * * * * * * * * * * - + * O t g A O. .<.3.L BXx.qX}.+XgX5X3X9XT.J.J.OXXX&X=X=X=XXXXXXXoX*X",
"-X-XpXtX6X6X6X5X{.|.}.}.}.}.oX;X+X].T.Y.MXq.4.<.C z y o O * + + * * * * * * * * * * * * * * * * $ , p y c o.<.O.>.q.Q GXN.3X}.-XdX@X5XwXwX9X9XoXXX=X=X=X=X&XOXOXoX*X",
"&X&X&X&XoXoX9XT.E.E.E.E.T.3XoX;X>X-XE.~.HX8.1. .C g t X X * - - * * * * * * * * * * * * * * * - + - p y z o.O.:.>.q.w.GXY.3X$X>X,X,X:XuXyX6X4X{.#X-X>X>XuXtX6X6XpX*X",
"XXXXXXXXXXOXT.U.K.P.P.P.Y.W.T.|.$X$XB.C.KXL 3.<.F Z a o * - - + * * * * * * * * * * * * * * * - # - = t z { ..:.>.q.Q BXN.T.}.>X,X,X:X$XZ.2X2X5XtXuXuXxXuXyX6X6XpX*X",
"OXXXXXXXOXT.U.L.( ~ 0.~ b.n.N.E.4XjXW.^.HXb m F i.Z h > * - - + * * * * * * * * * * * * * * * # y.- = t u C X.5.5.1.L MXN.R.5X$X$X#X|.}.J.J.9XwX5XyXrXiXuXuX-X&X*X*X",
"0XoXoX[.T.U.L.( 3.>.:.>.8.b.n.Y.W.kXkX^.CXb M V Z j > * - - - * * * * * * * + * * * * * * * * # t.# - w 7 9 { X.>.m L mXn./.8XE.E.!.Q.!.U.U.U.U.W.W.8X6XtX-X=X=X*X*X",
"yXyX6XR.Y.n.( 3.5.&.&.$.2.8.) v.c.x.P./ g.P F i.d r O * * * - - - * * * * * * + * * * * * * * + @ # * o t 7 z C C M b g./ n.~.K.a.a.! ! ~ ~ ! E L.P.Y.R.6XtXuXuXaX*X",
"iXyX8XW.n.( 1.:.@.@.&.&.6.;.L J I./ ! b N N N j h p < : * * - - : , * * * * * + * * * * * * * * # # , < r r d c 7 7 8 f.~ ! b.( U Z g 8 C ,.,.U ~ L.P.Y.R.5XaX-X*X*X",
":XiXjXN.MX8.7.X.@.@.@.#.O.,.S b P P P B s d a a o = * : : : * * * * * * * * * * * * * * * * * * + + + : : > p r t d Z F ,.f.0.M A l k k e 6 g s.U ~ / P.U.J..X%X&X*X",
"cXA.7X/.MX1.>.%.%.} } { A V f s s B j s w w i = = * : : : : : * * * * * * * * * * * * * * * * * * * % % % % - - X w y c A O. .q u e e e e y c F ,.3.~ / _.U.J.;X&X*X",
"<X>Xk./.KXb ;.O.+.| A f d r o r o t a w o = ; ; * * : : : : : * * * * * * * * * * * * * * * * * * * % % % @ # # # = e u x | { q 6 r t 7 z { +.X...>.0.Q NX~.V.6XtX*X",
"+XbXH.U.KXT . D D V z j p * + * o w i = = = - - * * : : : : : * * * * * * * * * * * * * * * * * * * * # % @ t.t.# - i e l v | 9 r 3 s d z | O...X.5.9.Q HX^.V.7XtX*X",
"+X=XoXE.K.BX  L S V f d h < % # = i = = * * - + * : : : : : - * * * * * * * * * * * * * * * * * - - * # # # # # # - ; i e y c d 3 2 2 3 s g A O...5.9.R GX/.T.|.*X*X",
";XXX[.T.M.^.HXJ U D 9 u r < % % * = = * # - - - - : > > < * * * * * * * * * * * * * * * * * * * - - - * - - - - * * ; = X O h 3 3 2 2 3 3 s Z O.6.>.-.T NXW.}.=X-X*X",
"wXqX[.2XkXN.UXT 8. .0 7 6 o $ 2 : > , - # y.y., , : > > < - - * * * * * * * * * * * * * * * * * * - - = = = = = = = < , & 2 2 2 # ; - > a c | +... .K T ~.2X+X<X-X*X",
"E.8X X2XB.JXc.G.9.5.X._ l t 1 3 : : $ + + # # + : : > < - - - * * * * * * * * * * * * * * * * * * * - = = = = = = = - , & 2 2 & + ; = o y A | ` ` m L ^ W.5X+X+X-X*X",
"7X7X{. XqXPX^ q.5.$.$.X.o.A f r O * * * * * * * * * * - - * - - * * * * * * * * * * * * * * * - * * * * * * - - * - - - , , % , * = p h Z F O.6...2.w.^.8XyXZ.|.pX*X",
"6XZ.aX|.k.PXJ 1.5.$.5.<.o.F z y = * * * * * * * * * * * * * - - * * * * * * * * * * * * * * * * * * * * - - - - * * * * * * * * > O o r f C  .....4.G.).8XyXk.3X0X*X",
"yX XdX|.k.DXW M >.X.X. .G N d r = * * * * - - - - * * * * * - - * * * * * * * * * * * * * * * * * * * - - - - - * * * * * * * * < - - o d V  .....4.G.SX8XrXH.3X0X*X",
"aX@X#XZ.eX~.ZXb ' { C V N s t r - * * * * - - - - - * * * * * - * * * * * * * * * * * * * * * * * * * * - - - - - - - - - - - - ; - - = d V { ....;.) FX8X4XH.T.0X*X",
"*X|.@XZ.eXc.CXL ;.o.F Z B B h h - * * * * - - - - - * - * * * * * * * * * * * * * * * * * * * * * * * * - - - - - - - - - - - - + # # - r g 0 { O.U W FX8X5XH.H.0X*X",
"gX].dX2XV.^.mX3.,.o.Z B h 3 p p - * * * * * - < - - * - * * * * * * * * * * * * * * * * * * * * * * * * - - - - * * * * * * * # # # t.- o u 9 0 O.D J DX6XtX9X9X0X*X",
";XJ.dX7XV.n.w.4. .V d 1 : : o o - - * * * - - - - - - - * * * * - * * * * * * * * * * * * * * * - - - - * * * * * * * * * * * # # t.t.- > g C { o.S J LX6X@X0X0XoX*X",
"OX[.5XB./.Y e.;.C z t O : , i i = * * + * * * - - - - - * * * * , - * * * * * + * * * * * * * * - - - - * * * * - - - - - - - - @ @ t.# > f C o.C M H LXyX$XoXoX*X*X",
"OXH.qXR.JXY e.' | l y p < - = = = * * * * * * * * * * * * * * * * * * * * * * * * * * * * * * * * * * * - - - - - - - - * * * # @ @ @ + 1 N o.<.q b KX/.Z.$XaX X*X*X",
"wXH.2XR.PXY 8.7.O.v u w = - = i - * * * * - * * * * * * * * * * * * * * * * * * * * * * * * * * * * * * - - - - - - - - * * * + u.y.# $ 1 g C  .. AXI.M.fXxXl.gX*X*X",
"wXH.H.7XPXY L 4.O._ u t = = = ; - * * - - - - - - - - - * * * * * * * * * * * * * * * * * * * * * * * * - - - - - - - - * * * * % , , : s N D  .' AX^ V.iX:X XgX*X*X",
"qX3X3X8XJXY L M +._ l y h < = * - - - * - - - - - - - - * * * * * * * * * * * * * * * * * * * * * * * * - - - - - - - - * * * * + : : > s V  .<.h.K b.W.D.$XaXoX*X*X",
"5X[.fX5XkXn.~ . X.{ x d h < - + * * * - - - - - * * * * * * * * * * * * * * * * * * * * * * * * * * * * - - - - * * * * - - - * > < < O s V  .:.6.b b.x.hXxX X0X*X*X",
"yX@XcX XE.).ZXM ..} C g r : - - * * * * * - - - * * * * * * * * * * * * * * * * * * * * * * * * * * * * - - - - * * * * - - - * > > o r g V  .:.:.3.( x.7XfX0X[.oX*X",
"uXuX>X}.H.(.mX1.>... .z 1 : % # + * * - - * * * - - - - - * - - * * * * * * * * * * * * * * * * * * * * - - - - * * * * - - - - o o w y V  ...5...q.( ^.k.5XlXH.0X*X",
"iXuX$X}.[.Y.^ q.:.%.o.V 1 5 & @ + * = * - - - - - - - - - - < < * * * * * * * * * * * * * * * * * * - - - - ; - * * * * - - - - p p a j F ,.:.$...4.( P.W.T.H.9XoX*X",
"8X2X|.[.E.DXR r.$.%.7 t + y.y.- * > < X X = * 4 * - = = i w o o * * * * * * * * * * * * * * * : > > = o o o = = - * - - + + + * * > r 8 M m  .] [ ;.I mX~.E.5X}.*X*X",
"eXk.}.|.k.SX8.-.] O.g h + y.* - * : > * = - * + - * = = i = = * * * * * * * * * * * * * * * * : : > = = = = = - * # # # # + * - * : > s N D ;.>.:.>.K g.c.M.5X}.*X*X",
"5XcX+XS.gXzXT =.[ { V h 2 u.4 ; * $ * - - + + # # # # - - * + + * * * * * * * * * * * * * * * : % % - - * - - # # # # # # - - - @ @ % : s B F O.6.6.' 0.^ N.2X X*X*X",
"cX$X<X=X[./.G.L ' ` G s 3 3 X p < * * , , + + , # # # # # # % % * * * * * * * * * * * * * * * * % # # # # # # # # % # + * < - * & @ @ & : h Z o.O.$.>.q.^ ~.R. XpX*X",
"$XbX+Xj.gX/.W 1.5.X.o.g B j 6 y a = - > = X = < : , , % % @ @ # - * * * * * * * * * * * * * * * # # # # # - , , : < > O O r a o = * + + * h c | } $.5.r.) ^.R. XpX*X",
"dX}.>X*XH.).mX>.5.@.+.V G V z A y a a r w t t d s h h < % # # # - * * * * * * * * * * * * * * * # # # - , : > > p j j d t g f u e w o o w e l _ @.$.5.9.T ~.R.5XpX*X",
"5XhXaXH.Q.GX1.7.@.@.} { O.0 +.O.l v c g 7 z z 9 z f j h < * * - : * * * * * * + + * * * * * * - - - - - > p s d g V C z 9 C C C C 0 9 l l l x _ @.$.>.K Y ~.7XpXpX*X",
"8XT.5XT.Y.KX1.:.@.&.%.X...q X...n o.F V 9 C { n 0 C z j p o o = < , * * * * * + + * * * * * * - = = = = r s g g 9 C  .` n  .;.>.:.X.{  .{ { } X.X.' K J H /.8XtXpX*X",
"7XqXqXR.(.VXmX;...$.5.X.m m ' :.<.4.U M D <.:...` C z d p i w a * * * * * * * * * * * * * * * * = = = O s j V V C O.X.6.M K q.q.q.;.=.2.5.] :.7.;.K J E ).eXZ.tXpX*X",
"qXqXtXH.R.).mXg.3.4.1.K L L I 0.I 3.~ P U 3.>.5.X.{ z j p = w i * * * * * * * * * * * * * * * * * = = > s B Z F o.<.:.7.=.I Q W ~ 8.8.9.9.2.=.K 0.W VXLXW.E.nXiXpX*X",
"*X-X-X$XZ.R._.NXJ W ^ ^ v.mXBXHXHXCXZXa.! 0.>.7.' x d p , - - = * * * * * * * * * * * * * * * * + + + 3 h s Z F 0 n ' h.ZXMXBXFXPXKXMX) Q w.mXb.E VX(.U.lXZ.j.vXtX*X",
"&X=X>X>X$X XE.Q.IXPXPXDXzX/./.~.C.P._.K.a.a.M '  .C d < # # - - * * * * * * * * * * * * * * * * # & & 3 3 s N F <.<.;.q.ZXn.Y.U.z.!.`.SXGXKXHXVX`.U.!.H.j.{.nXZ.pX*X",
"&X=X>X,X>X$XH.E.E.W.eXjX7XB.k.k.B.B.Q.'.`.CX1.>.<.| j < t.t.+ - * * * * * * * * * * * * * * * * # & $ 3 1 s V o.{  . .~ BXx.E.[.OXJ.H.E.Q.(.(.Q.U.wX9XH.pXfXtXfXpX*X",
"oX*X#X:X,X:X}.[.H.H.4XrXiXtX*XgXvXyX[.H.K.CXI >.X.x a * t.@ * - * * * * * * * * * * * * * * * * + + : 1 s Z | O.%.7.4.0.KXW. X$X}.].J.[.T.H.H.E.k.3X{. X@XaX|.|.pX*X",
"T.9XtXuXxXxXpX[.9X3X4XD.Z.$X}.&XA.A.-X9XQ.KX8.>.X.0 t 4 @ # = = * * * * * * * * * * * * * * * * X > 1 r g F O.$.*.$.-.L HXW.$X:XcXfXdXgX0X[.2X6XhXD.D.iX{.fXlX}.*X*X",
"T.wXyXtXuXfXpX[.H.[.{.{.tX-X;XdXxXxX#XH.z.KX8.2.6.{ u = # # = = * : : : * * * * * * * * : : $ : O p s 6 9 o.:.X.$.5.=.. GXV.$X:XuXiXdXtX|. X|.4X4XiXiXtXfXpX}.*X*X*X",
"0X0XpXpXaXaXpX*X0XpXpXpXaX*X*XpXhXD.}.[.E.FXL 7.5.{ u o + @ - ; + 3 3 : X > > X > > : , $ & & $ * p s 8 9 D X.] [ >.K mXP.E.tX$XdXtXpXpXpXpXpXtXtXtXtXtXpXpX*X*X*X*X",
"*X*X*X*X*X*X*X*X*X*X*X*X*X*X*XpX6X2X*X|.R.SXT =.[ ` z h % @ # * * : : : * = = o = = * , $ & % % + , > s N D  .X.:.>.K g.c.M.5X}.*X*X*XpXpXpXpXpXpXpXpXpXpXpXpXpX*X*X",
"*X*X*X*X*X*X*X*X*X*X*X*X*X*X*XpX{.$X>X+X5XzXG.L '  .G B 2 % - = = = = = ; = - - - - - - - ; = - @ @ % 3 h Z F o.6.6.' 8.^ N.3X X*XpXpXpXpXpXpXpXpXpXpXpXpXpXpXpX*X*X",
"*X*X*X*X*X*X*X*X*X*X*X*X*X*X*X*XdX+X<X+X[.kXmXK >.<.F B 1 3 p o a i = i ; - - ; - - * - = i i = # @ % % 3 B A o.O.$.>.q.) ~.R. XpXpXpXpXpXpXpXpXpXpXpXpXpXpXpXpX*X*X",
"*X*X*X*X*X*X*X*X*X*X*X*X*X*X*X*XcX+X<X+XH.Y.G.=.5.:.F g 1 s d t d r r < < , # % # , , * o p a w = + + - , h c | } $.5.r.) ^.R. XpXpXpXpXpXpXpXpXpXpXpXpXpXpXpXpX*X*X",
"*X*X*X*X*X*X*X*X*X*X*X*X*X*X*X*XgX}.=X;XT.).w.2.$.$.o.C V V z z g j j s 1 3 3 3 : 3 h p s d f d y t O w p y l _ @.$.5.9.T ~.R.5XpXpXpXpXpXpXpXpXpXpXpXpXpXpXpXpX*X*X",
"*X*X*X*X*X*X*X*X*X*X*X*X*X*X*XpX5X[.aX9XQ.GX0.6.@.@.#.O.| | { | z Z Z g s B B B s Z Z N g V G A C q 7 l z l x } @.$.>.K Y ~.R.aXpXpXpXpXpXpXpXpXpXpXpXpXpXpXpXpX*X*X",
"*X*X*X*X*X*X*X*X*X*X*X*X*X*X*X0XqXwXqXk.Y.KXI >.@.@.%... .{ X.%.x o.o.V 9 D D D M D  .D n C o.o.X.n 0 ` { ` { ..X.' K J H /.8XtXpXpXpXpXpXpXpXpXpXpXpXpXpXpXpXpX*X*X",
"*X*X*X*X*X*X*X*X*X*X*X*X*X*X*X0X9XqXqXT.(.VXmX;...$.5. .m m ' O.| | | 0 ` X.5.5.[ -.5...{ { { O.4.=.=.2.5.] :.7.;.K J E ).eXZ.tX@X@XpXpXpXpX@X|.@X*XpXaXaXpX*X@X*X*X",
"*X*X*X*X*X*X*X*X*X*X*X*X*X*X*X0XqXqX|.H.R.).mXg.3.4.1.K L L I 3.f.f.K ;. .7.$.$.5.5.5.X.'  .;.3.~ 8.8.9.9.2.=.K 0.W VXLXW.E.nXiXtXpXpXaXaXpXpX*X*XpXpXpXpXpXpX*X*X*X",
"*X*X*X*X*X*X*X*X*X*X*X*X*X*X*X*X*X-X-X}. XR._.NXJ W ^ ^ v.I.BXHXPXJXGX( 3.C #.#.} }  .1.w.MXSXFXPXKXMX) Q w.mXb.E VX(.U.lX Xj.vXtXpXaXaXaXaXpXpXpXpXpX*X*XpXpXpX*X*X",
"*X*X*X*X*X*X*X*X*X*X*X*X*X*X*X*X&X=X>X>X$X XE.Q.IXIXPXDXzX/.Y.W.B.jXW.).E a.F d.d.,.~ / P./.jXrXz.!.`.SXGXKXHXVX`.U.!.H.j.{.nXZ.tXpXpXpXpXpXpXpXaXpX*X@X@X*XpXaX*X*X",
"*X*X*X*X*X*X*X*X*X*X*X*X*X*X*X*XXX&X>X,X>X}.H.H.!.Q.eX8X7XB.k.k.|. XlXeXLXLXPXGXVXVXSXkXeXqX|.].OXJ.T.E.Q.(.(.Q.U.wX9XH.aXfXuXfXpX*X*X*X*X*X*XpXaXpX*X@X@X*XpXaX*X*X",
"*X*X*X*X*X*X*X*X*X*X*X*X*X*X*XoXoXXX#X>X>X#X}.J.H.H.2X4X4X@X*X;X}.}.j. Xl.hX8XeX7X8X6X3X[.}.&X&XXX].J.[.T.H.k.E.k.3X{. X@XaX{.|.pX*X@X@X@X@X*XpXpXpXpX*X*XpXpXpX*X*X",
"*X*X*X*X*X*X*X*X*X*X*X*X*X*X*X0X9X9X5X#XuXdXoX[.9X3X2X{.$X XXXXX X4XnXyXhXZ.4X4XrX6XyX2X{.tXfXfXfXdXdXgX0X[.2X6XhXD.D.iX{.fXcX}.*XpX*X@X@X*XpXpX*XpXpXpXpXpXpX*X*X*X",
"*X*X*X*X*X*X*X*X*X*X*X*X*X*X*X0XT.R.6XtXuXfX0XH.H.H.{.{.tX*X;X;XyXrXrXrXrXrX4XrX4X4X4X4X4XtXuXiXiXuXuXtX|.[.{.4XD.rXiXiXfXaX}.;XaXaXpX*X*XpXaXaX@X*XpXaXaXpX*X@X*X*X"
};
