/* XPM */
static char *c93129ee95044313a00a2632e7e7f81b9Ix1QdiqYURA2Z9g[] = {
/* columns rows colors chars-per-pixel */
"128 128 59 1 ",
"  c #350B00",
". c #3D0D00",
"X c #3E1002",
"o c #420F00",
"O c #451202",
"+ c #4C1604",
"@ c #4E1806",
"# c #4D1708",
"$ c #4E1808",
"% c #501704",
"& c #541A06",
"* c #591C07",
"= c #551B09",
"- c #5B1E09",
"; c #5D1E0C",
": c #5E1F0D",
"> c #601F09",
", c #5B200B",
"< c #5D200A",
"1 c #5F210C",
"2 c #61210B",
"3 c #60220C",
"4 c #65220C",
"5 c #65230E",
"6 c #63250D",
"7 c #64240C",
"8 c #64250E",
"9 c #67240F",
"0 c #69270E",
"q c #6A280F",
"w c #6B280F",
"e c #6C280F",
"r c #642410",
"t c #672610",
"y c #6B2610",
"u c #6B2711",
"i c #672812",
"p c #6B2812",
"a c #6C2812",
"s c #6D2A13",
"d c #6F2A12",
"f c #702A12",
"g c #752B12",
"h c #742C13",
"j c #722B14",
"k c #722C14",
"l c #742D14",
"z c #762E14",
"x c #782F16",
"c c #773117",
"v c #793017",
"b c #763118",
"n c #7A3319",
"m c #7C3118",
"M c #7E3319",
"N c #80331A",
"B c #82341A",
"V c #88371D",
"C c #8C3A1F",
/* pixels */
".%-t8,+128zz:p538<O&@-<&&&&--55*533s=&-&&-<85&-&<%3882-6&3003k-j3+O5:=&+OO=-*-&2ss<22---&-&30<-5&-53&-&33-+<-5M-&&zjtsu3+010s8&-",
".*0s--&1-8ffzu5<82+O&@=**&&=&25*531w-@=&---85*>+-&830*3p&523sz+u&++0:&&OO+-*&*&888222---&**-0-52--35=2&g1&+-5sM5=+vj:tu1@0=0g-&+",
"O-3c<<---8uzsk8=0&+@-&=*&&&&+-->0-18&&&&&--<0&-+-&2u5&6n%5<2uz&s-+&u=+&O%=-+--@3e55-55>**-*--30--*38--+f3&+=50N5&+zx3s1<=0=8h&$O",
"&68k2&*<2sfzvu0<0&O---*&+O&&+2-*0502-&+-&*<88*-&<&&u3+8vO02<-z-u-O-3&+%O*<-@-286888258-&*>*--35-**53-&+3:&%=5wM0&Ozkuz-3&3-<s&-o",
"*8zt3<0-28szfs5-3&O-<<-&+++-*22>020-&&&2&-<w5&-&--&s8@6M.f5-8u-:-O25+&OO2---20s8=-0<50*&->-&-30&&55<*&@:<+&-3fM6=+susz05=3-33=OO",
"-hv83+0288sf8z:<2-O*2<*+++&5-&2>08e=&*--2&28-&=&&2=s3&3c&35+fs3&%+35&O&=--*-ww25-35250--&>-5-35%&50<-&+-5O&=3fN53+suss32*3-s:- +",
"8sn-s&825fhs0vu-8&O*<--&&&&0**220se2<&*--&<02*2&@<=8-&-p&3<<s83-+O-5&&-=-2*2e200-55038--%>>w135&&>8-&=O55O%=50B6-+uktu:--0<03+.*",
"3zb38&33fuzfsk5-8&O&<-*&&%&0-*-58006<-&---=e2>-*+8-3--=kO31-z-u-&+3<%--=2&-25022=--0555-%*>=-3w-%=s=*-Og-O&-50v:++xn13:--3<05O+2",
"sv3&3--8f5fzhs3<8*OO<-&&&&&8*+--5e<6<<***<30-***+<t8*&-8O-8&v555+&:-+-=*-&-s8222+--0582-&>*-=50&&&0=&-+g=o*333x-&+uvp15&-3-3-O&3",
"sc-0-&<hhf8z35--w-O+<*%O+&+-&*&2-e<86<*&&<0-=*-&&3t0&6-1&w8&p=t8O-8*+-+&*&2e5---#->255-2*--==50&--8--2+0-.%35:v53+8nzt5&-830=O-s",
"zt&8&<8sf03f31--8-++&-&O&&+-&--2-0<e38-*@=w-=&-**8k2&36<=f-*u&z:o&5&&-+&&&2e2&*%+--3=3&--*&-+35>28<+=>+--.&530M5=&8jku5&-w00<O8s",
"n-88*31uwf10j==-3-OO=<*X&++=&>-2<<308e<*@=03-&-@&2hs&tp&-3--s=f=O-3&=&<--=855*--%&---5--*-->&<->-8=+=>%-2.*82un3&&-tzs5&-88f-O8z",
"s&88&33hkss8z=--s*+@=-*.+++-&2=5-08ef0<*+-02-&-*&8h5&3pO:013j&u-O-1%---3<<02-*--&-=2<0--&>0-=3**-8-@&-%u-o*-55v3=+&szs0&5-5s-O8v",
"=-8&&5uuztssz:-8e*+@-**O+&&2--55-fs02-2&&388---*&<p-&3pX:s-3k&f=O=:&&<83<8h0-->-%-*>00--&*0&-0+*-0-2&++-5O%-2fz0-+&jfs3&0,5s&+8v",
"+66*-0susujsk:-0s-&<2&&&+&&2--*850f3212==802-*+2&&u=&3zO5--=z&u&O=-%&<5-<8--&>00--&>5>>2-&5+-0&--8*+=+@35O&22uMf=+&Mkf-&0=30=+ts",
"&8*&55s3uussju=30-*-*&&&+O*5*&-35582-58--8---=&**=s=3-s&5-51z-5&O-1O&-0--8--%-+--5-->22-*-2+20&>5<*&=O&05O&-0zMj&=+kts=&*=50&*h8",
"-16-33z&=ttjju&-0*&@-&&+O+-2&&2-5518338-28-5&=&--13=@&t+5-&pv-3+O--+-32--5&2+=&*&5*2>55*&2=*22&&5=&-O+-f-o&-szMz--&jus-&*-5s+<h<",
"8=&=8fz$-=3tku=-3-&+-&&+O&-=&&-222s00-382822&-+-<<3==31+16-6n0-=O=3*<5>---&&-&&&&->*5*-+&-&*2-+22-2+O&-u=O&--1Bj-=+skt3+*-5w2<s=",
"p-@-3fs-&+u:su=31-&&<&+&+&-==%--25f00-=0885-==+*-3s==3=@:8-<5f5-o&5+-05->-**2++O=*-&*&&*--&-2*&58&-O+&=u-o*-51xj:-+sjs5&-8wu+-p&",
"3*O33k8&3&315:=81&O&*%&&&=&=>+=2<5885-=8388---+@-88=#,3=88=33u5*o-5*2-**-&-&2&&+&&-+*>>>-1&*-->28+*O+@-0=.O-50jk0=Oszt5%<358+,k<",
"-&+3fj-30---u-=0-&@+-&+%&++2>&-5-2505-=3e05-&2+@<us&&8-153&t3u3-.=2&-5*>-&---%&++&-&->>&-2-&---5<&&O&-0:=OO--0Bz3-+pzu*&3<5t+=s<",
"&+&58u=81-&=8--8=&&**%&O&+&3-%-5-8<<--52h80-*-+@<u0+<p&:03=s8f--O&-&-5>>-&38&+@&++&-&-**--**-2=2=2&**5u:-OO=-2zvu=-nzu-&-<<8&&sp",
"@+1<8s&-8==&5=33--+&&&&O&&&-=&-5022->255s20-*&&&2-0@68&-23&s3z3-O=5+->*-*=---+&&*+&0-5-0+*-**-&-&-&&-0f5-oO&-2fMj-=vj1>&3<-0O116",
"&&18fs-18=-+-+30--O*&+&+&&+3&&*-3555-=83s=2*&-&&<58&6u+3-0&u<s0-O--+<--0-<*&%*=-**--8-&-&&&&*-&<&&&=5000&o+=-2vMj-&kj05--<-3O883",
"&<<utu&<8:=<&@33--O&&O++*&&1>&==3535--5-0--+=-&&<s8@<s+35s21-z5*O5-%5+2==&--*22-*++*&-+&&--*&-&5-+*-u0u0-.%-50zMs3+jv85--13-+t-1",
"&8-333-3p83--O-2-&O@&O&O*&&35*&&3&02-2500-=&&-**<u-+8p&8-05t-v5*o5=-5-5++*+&&=-2=&&-*&+&&**-+2*2&+&80u05< +-3-fMu++tz33-5-33Ot<=",
"&038t=<=00-&-+=--&&&+O&+&*+-5%--885*=20032-2+&**3s=+8c+8=30fOx6-+0--0&2+*-+&*&@2@-&O*-&+O&O&&->8&+&uus02-o+--6wM5&&stu0*2133+k==",
"=8880@=0-8<<+=8--&&*+O*++&&82*=55822=>0e=--2*-*-<s-&8t+u3<0zOV2&+2*-8--&*%&<,@&-<&-+&&%+O&+&&--8&O-5u85-*.+=-5fM0-=vut0*-15<Oc1&",
"-8h3<=<s*081=-1&*&&-&+&+@+&8--=>23>55--e---2*-O&-s=&0t+182un=x5&+3--1&&+++-*<+O&<***&&+++++&&-&5=+-5u=--&o&---wM:-@nzt0*-852+c&&",
"1<ft-=38-<33-18&-&&<+&&+--+1--*-<--252283502*-+@=8=+ptO305un+z5-+3**=&@++&-<=OO+<-*&-++&-&@&*2&2-&-u5=-3+o&285sM==&nvt3-231-&s-&",
"-8fu=*31*&83130--&&<@*++&&+3--&>--&&5*5360-2&-%&-3<+61%3353s+s3&+0&-<=O&-*<<&O+@2-<--&&***-&-2%--&30u2-@O.*-2:wN:=+vzzs5033-&63@",
"18u:---<*&s<180*-&&-O&O+&+&---*2&-&%5-5<21=2*2%*=3<@83%0353s+z-&O1--8-@&*<<-+OOO=-=<<=-<-<*+-5&<-&30-=&@+.*--33B1-&sM1f-0<s-&t3+",
"13s&&111&+33-53+--*<+&O%&+&---*5*--->51<23=2-**==81&8,&033:z&z1%O3&-2=&*<--+&*+O*-=&=622-8<%--=5-+0:-2&OO.&>=35Bt-+sMt3<0<f1+u=@",
"3uu==131&&<0=83&<-&&+&O&&&&5*-*5-&&--55<-0->>5&&=88&3:+333=j-z5&+3%=+&&-<-&+--&OO-&&&--=&<<&-&=8-&35--++..%-:35Mt&&pMtu=32f3=p1&",
"-ft1@813+&-3=80-<+&-+&O&-*-5&-&-&&>&&252&3<5--&-*88&11+0--=s-z3*+5%<+=&--+O*&-<%O-&&&&&+@=<&--+<&&30-*OO.O&-3-=xs+&kk3f-1323=s3&",
"-fj8@813+&-3303-&&&-+++--**2%*&--&*>*2-=@125*-+<%83&81+82-&k$j3&+u+22=&<O+&<--=*O&*O+O&@&@=@+2&=+&50--Oooo&-5=-zs-&fv38=1<01&p-&",
"3ss:&380+&-10e5*&&&-++&=&**1&-%*&&&-----+<35-2+-&-3*8s+38--x=s>&O0%<2-&<++@-05&*+%+OO+OOO+-+-2*-&&05-&Oooo%-5--zs-&kvuu-3-5:$88+",
"0u35@100*&-:033@-&&<=&&&&&&-&-%&&&-*&-8<+--5-2--&=u&ss+-023x&s-&+3+3-2+&%*@<8w=&++%+**+OO+-+&----&85-&OooO*-35=Bj-&jvuf<--s<$t3+",
"888k--30-*-s83=+*&&**&*&*&&--++*&+2*&-8=&<3---&&&2t3pp&-02Mk=u5*+3+--<O&&-3-001-%+%*=-&OO+=+&-*-2-30-&o.oO*-255ju-%tss8<0<23&i1*",
"38fs=&81-&8s08@-*&&&<&-*-*--*+&+&&2--53=+=e<-*%&-eu=-p=302Mj=u5*&5&=&-OO&<e-<38<**-&**&OO+**&-><2&53-*O.oO*-232zs=+uzu3<3-25&t-&",
"-<3t13s<-&p0s0&---&&-O-*--*2-%&&&&5--5<-O&332&-&203&=s&8068s+s2*&-*=&+&++801830&--*<w3-O&+&-->-8&*55-&O..o-->55v5-Otjt3<8<25&u-&",
"&-st8-83-2880s&--&*&=O-**-52-&&&&*0--51-&&832+-&8&8+-6&3f63j+z--&-&--+-+&8318-0-<--<05-+*&&-*2*2&&-5-@+ oO%-3-2x5=%pssu=02s5&3-+",
"--fus&-3801<30&--+*+&&-***0>**&&&-3&*33-**-85*-&<-3=66*-s21v:s--&#&<*O-+33533=0--&8388-@*&+-&--e=+-5<+%...%=3--zj=&5ksu20388&:-O",
"=2ffz--ssp:-10&---&+&&***-8-&&&+-=<--28***&e2-=&-&68<p--5*3z1u==&&*<++<O-8883-0-&-<-310+-*&<+=*e-+-3-+&oooO&322xk-&1kjf2-810&3-+",
"&s0fs&80p3-530+--&&O**&&&=0-&+&&-&5-=33+**&85&&&&+1p&82-5-uu=8-&&--8&+-%-<883:05*0=---00**+*&<-2-+-:>@*OoO&=<3>zz-&5vzg<=835+t3@",
"&30sk-0s311380&-*&&%<+&*&-5*-&+->%3*-<0&**@2-=-&*+18=18-205t188&+2*3&&*O-13333-0-0=-&=8s5&%-&=-0*+-w5=*&+.&--32zs-&ssjf-+803+s3=",
"&5<uf-88811330&-&&&O<++&&----&+->=5-2<3-&-*<-=&**@88&=8-08-3p10=+5*8-&-O-138<:&031-@=&883-+-+-*0&&&su--&*oO*&:-xs-&ssj5-+803Ot&8",
"+32uu33130-3<3*---&+<O+++-<*>%+---5--5-*&-*60-&-&+50+-8&08-tz:0-@5*3-*-+2=3831-8--&@--&80-&-@--5-*-sz-3&&O+&$=3xu-Otpzt-2p23+t-3",
"@--3su<318-3-1=+&--&-@&&&--&>&&---->&3=-*&*<0-&-+&80==s@03-tx-5-O5*--&<+--2<-3=803#&:1-&85&=&-*5-+&g53--@OO-&&5xu-+5zz:5&p-5+h-=",
"O--8fu<333<3-05@&-2&&-+&&----**>*2*&=5-&2-*2s2+2O&20-1pO2h<tz&s-O0*<>&<+&38515-ss1O=3t<<8s&&&*&<-&*u0u3==+o&235xs=&3zz:3&w08&s==",
"=&15su&-883--sp13<**&&+&&===&%%>*-+*-8<&2&-&02%-&&8z@-tO00-8j&h5O0-e*--O&800838s01&:sku-3w&*+*&--&*-350-=&o+253Mf-&:vju3+05:+w6-",
"1+32ss--=11-=00138&&&=&+&3=*-&+&*&&*-5-&-&*-82+=&*=u&=p+50-0M%f-+0-s---O&800<20ss-+3sju3-s&&&----&*&5:00--.%=3-Ms=+tvzu#&s2:%3s2",
"8&<3ws-@@-88=803w8-&+=&&&1*->-&&**+--5<&=&&-8-+=**<t-=s&=<&uz&x3O3+8>--O&0838-sss3&1skss-3**&-22<&&@00:u--o+&32Mu=%usj3-&s0u+-s-",
"8@=38f8=@@-81=8320w&O=&*--&*>-&2&*%2-83*<&&&3-&-&*3s-<p@-820n28-O0&2-&=O&-80p-5fs3$3zuvs-8&&-&522-+&-5053=.O&3-zu&=fjk35&s0g-&p3",
"1=&-2sz3=+&38=83-2w-&=&---*-*>&2-&+-&08----=35&5*&<f<-<+35-3suj-%5-=&==O+&108:0ss8$1vhvs&3&&&&5&<-O+--3su+oO&--M3+-fnzt0&85-<+fu",
"2-&38hz0&=@=-<-&<383+&O&---%&>&--&===<-<-2-<05&2&*2s3-*+133-3-s-%--&&&&++&=8-10fs3-:pfus&=&&*&5&1<%&&*-3u2OO---M8&-fvjt0+133-Osp",
"-1**0<ff=-&@=+-=-=88&&O&--&%+&&-=--&-0=8-2-28-&2&*258&--33--uu85&-*--=+&+=--=30sw--=ttju=-&=&+--0-*O&&*352&O5--j5&=snf:f&8-53+&t",
"18=&8<fs3&-=&&@<0=&f**-->**>+%&--2-=<0-8&--28-&>&-238**33&3-jt-3-+-=-&&++-&*-80s0<--z3k3#3%-&@-&0--O++&233+O*-5u3@+fcs:u-3833&&8",
"68=&-3fs8-=-==38uu=8-&&+->*2%--&>>--2523*-*88*%-&<-8s*583-0-su-5-O2=2=&+O&2-=11002<-zsfs+2O<&&=&8-2-&++*f-+o&--s1&Ohsstf<3200-.8",
"k<6++-sst3&==+s3tu33+&-+-5*->--&--&--258--&02&-2&<2<3&8h&0820B&w=.-*0&&@X&*2&38003=&kkfu-&O<&&--8&---O+&s3&.&-2z=&+fssus-28sx-O1",
"v-8=+3ssss=+-$svtzu==O=O&5*&&&+*->&--28s--&22&2<+--1h=pz&u0+3x=u-O5*-&*-OOO*-63u86=&sfk3-*O-&*--5@&&-%&+05+o&-2z-&&ssxzu2&s3u-+=",
"z-86O800sk:+@:kkpss=-&-&=2--*=&-&--=-5082*=55%2-+<*$u-<s+u1O0z&s2O--2-&<&+O&-86010-+uuv:=*O-+-->8*&---+@=u=.&25M=O=skvzz5&p338&&",
"h=3*+&8usuu&=5ju0uh--+=&&>-255-&-->---02w*-8>&2*&-&@s-1u%:-Ouz3:5O-*2-&-**%++38010-&szv:$*O=&&--2&---2O&+5-O%-0x#&=szkss5&f-80=O",
"sp<-+5=fkuf--uufz0z13&&&%-<500--*5-0-*053<352&--%=&-z<18&t<+5u:32&-&<*&&<-&OO-36w::=svu=<&@=O--52&2->2&+-3-O+23v&&+uzksss%h2-s-o",
"8c==O-&hutku3u3fffs38+-+&-<12<---2003*303282-&-&%-+-h8&8@38&-88:5&=-*>-&@<@@&*<0<=0&uut=u***+-*58&-*---O*u-++2-M=&+sknfs0+0<=u=O",
"2c=1+-=3:uzu3jssuf83-&*=&&-----&+-0<2%-58w502&-&&-+&s3&8O38-5sj-1-+325>&&&@*%-=--&8&03s=8++*&=*2<&*@&&-O&05+O--M#&%3kzf55+3--u&O",
"-c-,**3618su1zsh5z8t1-&+&&&---3&+5032&---wf2&&-=&&&083+8&u5-2uk+3-+8-5**&*--O-+&--0&-:1&<+&&+=-5=&&&&&&+&-0+%=-M:=&5zsfu0%2--0-+",
"+p<0-&1-t0gu=zzu=f3u-<&@*&&*@*5&---52+=-325-&-&&&=+s:uO1<2s2ssM+s-+0*2&2&&-<O&-&*&---1==&O--+=23-&-=&@+2&*0%%--u3-&5Mzz=0&&818:=",
"Op:61&3-f0fk:ku-=8ts=<O&&++&+-5%>--05--*=08-&-&*&-+--u+3*55x5sz&u=O5&---*&&<+%22-<&8--@1-+<*----<&<-*&22+-f%%3-zt<&+suz1w*O-<00<",
"Os1-,&2<8f0ksf5=--ss&5O<@+&&=&0*-*>55>>+&-0---*&&&+<10+<-8-h<3z+s3%2--5&-+&-&+--&&-0-+-8&%-&->*<2=<=<*@&%&0&&3&st-&Otsj35-O388x&",
"Oss<$&&-3s03sku-<-zu33*-=O***&-&=*>35>-&&->---&+&&X<18+<3:5s-zMOv5&---8+&&&**+*@*&+0&=-s&O<%---82&-12*+--&5&O23zu&&&unjp-0+h2ws=",
"+1k=,&&-1h01uus=-<hs50-*<+&*+*2&+&-2--%-*->*&+&O+&O-8u&-8-36-1z-z5-O5-8&&-&&=%O+&++0:1p0++<&=*-02&<-,&&<-+--O>2zj=*+fnjp=0&z2301",
"+=z&=*O--k01suf&-=k0z8&%=&&&+*2&+---&-*2=>5*&-+O&--13p-=0-88+3s3302O0&-8---&-&OO&+&-8382++&&&&-3<&-33-*--O-2O20fz--+fnjs-8&z88-3",
"&@k==-&=<fs085h-<&s33<&O&&+&&&2-&->-&-2*=5*&&-&++--530&-s-8f+3j02w5.:&-02&2&*&OOOO-+-<e-O&+&&*282=118&-&=+-2.25sx:-+tnzs38&-65-3",
"=Op16+&=3psf30f--$h-s<-O&++&-+--*2--=>5*+&*&&-&%%*-28u-<k&wp&svs=f-.<=-3---&&=@OOO&<-&**O-&+-&28-<8=s-2*=+-2O-58n3++:nku00%-6583",
"-O8t03&&83tzsss=<$h:k-8&&@+&&O--*2-->>5*+&-*--+&+&&-5s&-s+5p&sks&h1+&3*&8>>-+&-++O*&--&&@&&--&20-=3=888=-&-2O-51nt&+:vj3u0%=8<23",
"&O0s-6-&813fzf321-fuh-8*+=&&&O=*&&&-&22&>----&+&O+=-3h&&u+s0+uzu-j5*O3&+8-->&+-&O+O&*&&++&+-=&=5-<3=388<-&-2O-3-0u-+:ksuf0&-u<e8",
"<.6v<8-&3-3fsu32p8szf-1&O&-&&++&*+&-&5&>->-2<+%&O+--1z--s&28+usuOu2-O12+<==-+@<&OO%+@&+O@&&*-*-5=01<=888*&&3o235zu-+:k08h8+-u=3s",
"&O<k=8&@==f8fu-382fzs=8&O&-&+=+=-&+2*>%*>--0=+&%+*=&-z8=s%58&0tz+30-O*3&*=5*-&*<++%+OOOO@&%-&-252083-221-**8O=--sj=&=zz8f5%2s=3u",
"3+&s,3=*&-szfz0<3-fsf&<&O@-@%-+-*&O2>-&**-2-&+&%+&=&-z8-s+30+01v&8u-%+3*-&0&-&-<++&+OOOO&+&-&-28<w52-058&*$8O=--tz&+3zz1h-%-h&--",
"5=+ss<8&&--hsf818=uuk&1--<<+&&&--*%52--*%-8-*+*++&@==s338&30+-tz&2x--O3-2*8--&&-&*<*@+O%-+&2&--8385--53-&&&3O&-&sj#=8uz:u-+-83-3",
"1-Osc-8=+-&zss833=0sf+p2&@<@&&&-*-+22=&&*<-&-&*O&&+2=s&<c+38&:uk=>x-*O-5+5-5-*+-*****&&&=@&-&2<0w88-&-<&&&-5O%3-uM&&8tz8u&&&8s2<",
"f&o0z-8$+1&hfu013-0fsO0<&O=*&+&2*-&-5-+&--&*-%-O&&&-3t+<8+08-:sz2&x&2O&0&*&5&>&@-----*&*-++-&-<38e2>->=3-&-8O&53sB&+8uz3u-*&2c2s",
"z-o<s331&02f8s3=<-0fuO3--O--&++2->&&55*&--*-&+-&+-*2-1&3:+u--3uv8=v03++5&2-e&-&+,&<--<=@-&&-+-3-0s-252=0-&2:o&253M=+szz-u1&+-z80",
"e-O=t8=6*-8sut0<<-sfs@8&<+-&&+-2-*-&52---&-@++*&&@&3&8=$tOf&-5ujf+s03*O-5%-2-*-&,&6-==-=*&5*&>0-f832&--0-**3O&-33j=+uzs-z3+&=h85",
"88+*8p@1@=18u3s2--0hs&<&2+--&+-2-&--->&--=@OO+-+O@+-=s&$hOf-&5sjuOu055O-0&@-0>-&-@-=-=<=*+--&=03323-&--<-*&0O&2-3z&O3ju8x-&%-z10",
"w5-&8p&8=&3:stf-=-0su=0*2+--+&&-&%*>->=-5*O+O&-&@&Ow=f-&k+u1&3fzk=3s>=O=s&&-5&5&-==&<<,<&+2>-+-8-55>&*--=&*8.%>-=B&Ouku0x5=&2s13",
"0s-O0n=3=%06zuu3--0s3=8*<+*-O+-&-&*>50-&&*&&&&--&,&s-8-=kO81&-8ku%-x0-O=3<&28--+<=*-*<=&+&=2&&-3-52--*=-==*8.+&-1B&Okjuuj--&-p3<",
"5f-O3v$-<&01fs802$20s<8-2&**++-+5--=00=&=%&&&@&&*=Os33*-sO0-&2:zk&-j::+&50+-3---*-*&&--&+---==-5002&--&-<&-3.+=-8M&Ozzpps*<&2s6-",
"80-O<k1-3&33ssu82--f1=8-2&**&&-&2-*>58>&*&%*+*@&<&+s88@6h+0--28zu&&M5=&O3u*---%&&*-&++*&+8>&=-&200&=&>*53=--.+-&0x++zvk3z5<+-h<-",
"5f5+,ss=6&-30fuu<22s1<<-<%&&&*-*5>*-55>&0+&+&=@&<&&w88&1h&5-&2ukj&+M53-O-0&2-2%=O&***-*+&-*&2-&-50+*+&*--&--.+-#uj++vzk1j5-+-s1-",
"008&*hc+8=3=08z532<s33-<*%&@&@&*0-*25-52&&&%&*@&=-&3t5@8f&1-<-3zs*+f83&O-u-+&8-=O-&&&*&&&-&&2-**25-=&&&----=.%-#0s&+kjt1f52+-s<&",
"08s&&pM-8&-35w8us<<s38=<*O=*&++*0&*-8---*+&&&@*&2=&=s0&2f+3-2-3fz3&s05&o=8=O&8*=++++O++O&-&*25--*>-2&&+---3=o+250x&+kzu3z58+-s,=",
"0w0&X8n-,+-0uftss-&z&8=<&O<&&++*8*&-8<2-*&&%*&*&<=+=8sO-hO102-1sk5&3f3=o&30+&2-=&+O&O%+&%-&-222-&>->+&&=--5=o+2-ss+&zzsus-3%231-",
"s3s&.0z==+&s0hf0u5-z<8--@O<&&&+&8&-2312+*&+%**<==-O==8O&k+30*23sn3&:j3-O+5s@-=-&&++=%%+&-*&--&+-=-2*+&*-2&3=o%-3zu+-zxuuf-0&=t3<",
"w3h=X0s=s&=swhk0husu-8-&&O&+&*&=3&-8330+*+&+*&<-,=+==sO=8Ou0353ts5&3x>-o&30-&&<-&++=-+-*->*&-&+%&=2*&--22%<-.*55xt+&jzxsf-0+-h<<",
"05f=.<z@0&-0ushufsh1-03=OO-&--*&3&+3013&-+&O&@<-,*%=1u+-p+s88=3sv3+u0--O&-:-&-5*2+-&*@--5>*&***O&**&&--0<*=-O-0sj3&&kznk0=8+2z8=",
"80x-O,v+8+<u8zsuwfts-02=++<&-28*5&&3s-=--++O&+<-1-+&10@&f&z8-=uzk5+tj--O&-32-*0--&-&*+&&3&-%&>>&>**&+*-0&+-=O---v3+3kzzv5-3+<hw=",
"35f-.=M36&=s8kp8wf5s=02-&*-&-5<<5O-8e8-2&++O&&=<=++=80*-s&x<*-ssz1+3z-2+&255&-0--&&*-*O==&-%***&-**&+*-5-+2=.*35z3&uzzszf-5%-fs<",
"-2u=O,M-3*1u8ht88fss&02-&<@&*323-+-00w82=&+%&*-2==&-1p&<s+s2-&sun-+3u--O+-fs+28*--****+-%+-&---&-->-**>5&&0=o*35z3=unusu0=u%=us-",
"25s=&<c-=&830f3t53fk&8<-&-*&*-%-*&-0=80-2-O%O&=<=&&-,0&1hO823&spk=&5j->OO-0f&+5&-2--55<-++*-*-&&*-**+*>f*+f-.-15N-=kjtsu5-0%=us=",
"8-f<&-k2=%8z03puts0s=52-&-&&--**>*20<=s--&+++&*<=&&-:<+1pO051-sfz-+uz-=OO=30&+2**5-0<8-=*&*-*2>->&&&*>28&&0-o-50M==fzjtu3>0+-f8=",
"03g--=p=<*3fw1sfukzs=83=&-&---&->*-88-8>&&++++*-&&@<=8&13+0-8=sfc-+ux-&O+=-u&&32--03=3%*&&>>=0550%*&*5-3&+f*o--sx&+zzjuu353%-f3-",
"8<f33*v3@&3hssukkszs+88&&&&&5&&&&&>8-282+&&+O+&--*O3:0-,8+0-3=sjzu&xz-=OO=-0&--5--*-%*&-&&-*-85505>*--5<-+0-O--uz&Okkf1s553%2gs<",
"3-f3&-p<-+5s3htzpjku@80@&=&&5%-*>&><&225&-%%+O&--+O55s-=k%385=8jc-&ff--+O--5-2282-&>&*&*&&*>-5w0002*---<=+0*+-2fj@Xusk8f858%2f32",
"0-s<&-s3-&8u1htk38s3&13+&=&+-%&>--2<<-20--*%*O*=2-O3=u&-hof08=3sz-*M5-0+O2-w&-<8-*&--*>**--0&&5085>**-=-+&0&+35su&+skz8f523+-f,-",
"05u=&2t1+&-ssfsu3s3&=1:O&&+&-+->-*25<<25---&-+&*-*O<-3&3pO:80=1uz--z335+O2:u&--02>&*-2*-&-5-=*-535-&*23-&25+O2*x:&&unz355-8+-h,<",
"35u$&st,+-<hfst31-&-&31-&&+&2+>&-*252-23*-*-&&+=<*+=1w*8h+583&ujzO-M25=O+-:f+&-e8-2-&%%&&%31&-233--&+-8-+3-+O3=x3&&snj3u>-8&-h<<",
"55f=&p8,O=8zzfs1&=+=&-3-*&+&2&-+&&50<@-<*2&&&-&*<&&=8z&8s&0---usz-3v--&.+-0w+>&082-->&+*%&5----2&-%*&-8&&:-O&=-x3&-kxsu5-33+-p<<",
"80s=O6-6+=3zpvs0@--3--3-*-&-0-%&&*>0<&@-2-=+&-+&<+&=-s&pcOu3-5tus=5f3-&.+-05&-*288=&22=&&&5=*--35&+%*50-+0*.-35v1+&zxsp5&0<&8z80",
"<0s-O6&,+&=suts&==1-813-+<&-5&&&**>58*&<5--+-&&&-+&31:-1zox---us8-j8--&.%203&---80<--25*&&<>&--0>+&%20w2&02.*35x-&&zz3f058=&3f85",
"-0s-O8-<&1-ss3u-&-01<18*&&&*5+&----83**82*--0*&@&O*380-3u+x<5-us5@M85>O &332+2&@205<2>5&&=8>&*-0-+-&2<3-&u-o520n3&-zz3s003+*8823",
"@58-O:-<&338suu-&5s83s8-%@*&-&&-->*88-*-8-%-0-&+&.--8s-38+s320sk-+x8-*+ &55=+-=+<w0<552-&&0>*&*5&&&&23--&0-O2-wz-&5jk:j5ws+&s6-3",
"20s-Ot&<+5-0ktu--813008-+-*&=&--5-&8<&-*<>&-52&+&O-30s2<t+:15:uz-5j5=&Oo-55&+=&&-<8<05&-&%32-&-2--&&2-&-&:&O--:f-&skk=z2f5&&s6<3",
"wu3-Ou=-&883sz5*-011ss1-O<*--&--2-=86*-*85&**2&+-O&8us-=tO3&-8sn+0z>-%o -55&+&&&*30f82+-+&02-&+---&&>-&*&:&O-3uu*&uBz3k-f-%*8635",
"g83-+k1&&388fu==$3<&8-&-O-&-----=--08--*-2&&*2%*&O-3z0-&h+0$*usnOj3--Oo+-00++*-*&<ws58&2&*-2*-+&-*&+2--&*:&+--Mu&&uMv3s-w&O+8-3-",
"z1-&+k<&=88up8+&13&*--O*%-&&-+->*&522-&-&0&&>-&&+@--uh-&s&0=&fzk@M--%Oo&<u2+O-&**<0853&&+--3&*&-*&>+---%-5OO-3M5&+sxj3f5w++=p-03",
"s8-+&s0--30833+&8--2&*&+O=&--+=>-&222-*-*8+>&2*&=+1-uz=&p&5=+uxu&z--%o%*30-&+&-**20050*=+>-8&&&5-&-@3<2+=>OO25z3&&ssu-j3-%&53-03",
"f3&O-k8*--u3u<&=w&-*2-<++-&--*=>>>52<->-*<=---&+&O-=fg+-w+3-O0z1=g-&OO--3g&&O&2*&=3s20>-%-*0=&*5*-*28<-+>-O%2-z1&-ssz-z-=&&08353",
"s1OO-p1&&:3uu3-80&----*+-<&--**=2>-3-&-2&--*-=&+&O-=k1%38&53+0j3102&o*-285&&O&-*&<=e202-&-*0*-*5%>&-5<-&5-O&03s3+3jsj-z>2O-s8-=3",
"3-&.-6=&=-sfh1-8s+-&*&%&<=&->&%&--33=&--@---==*+-O-@81-01@58-0k=t0-+O-=5u-+OO&2**2<e-05-%-*02*-8%-*>0-&*0-O&58z-&3szz-v-2O-p2-33",
"-=&Opt,O1=ssf3-20+*&@OO*2*O&-+&+>-88<&--**1<---+<&&$s3@3-+88-tz&z2-O&--0u-&OO-&**833-02-+-*35**5&*&00-*&f=O-22M-&3ukzuN5-O-8<=0:",
"&=OOp<6O8=u3s3&23&*OOOO-<*%-*++*>-01<---2*68-+-+<&==s3@3=@w3=kj&C5%o&=33f*-+=+&*-03&25--+-*-1555-&=58-+&5&.-50M-+-pkzuM--O-s22u-",
"@& @s&<&8=ssu1&20-*OOOO==-+-&&&&>=08<&&&2*<8-+-&<+810-*33&ww=su-x:&.-:850&&%-=>*-we=--*-+&*=-55=-&>23&++3=O>50M3+=zuu1z5**31-0s5",
"3+o,sO=-13ffst=30-&OOO+<**%2=&-*--5e-&=&=&=8-+=&<&=3f<&88=83=tt30-+O230s2-*3-=2*<sh5-+>-+-&&301=&%28<-%&>-o5-sz-O=nut8j5*-838gs-",
"<oO3s&&-33zhfs=58-&OO%-<&*&0>&2*-050=&&&&+@<-&=&<+=ss-&:-&-,=3-u5&O&5uf0-&+2---*-ef85>52&-&238-=&+20-*+2:-O-51z<O<vs1-u0&=s2wx2&",
"@.+8p3&<58zfut-3--++O&-@+-*>--5---50<*--=+<,3--+=+-ss--&*----1-x5&o=5s<-O++->2-&-882-=22&-&2258=&*>5=-&2--O-35M-+&zkt=t0+&u23u--",
".O@33<@125fu1u38w*OO@*2O@&&>&22-33<0=&>*&+-05&2O<+188--:-3-8-t&z3+o-38&&OO=--2*-8e-8----&&&550<3>-0s<-+5--O3-0N-&+tzt155&-1333--"
};
